<svg width="92" height="92" viewBox="0 0 92 92" fill="none" xmlns="http://www.w3.org/2000/svg">
<path d="M48.8613 35.8886C48.8735 35.8679 48.8876 35.8679 48.9045 35.8886L48.8792 35.9093L48.8613 35.8886Z" fill="#0124DD"/>
<path d="M27.7252 42.9575C27.9911 42.1535 28.2432 41.3935 28.4897 40.6401C28.5201 40.5481 28.5817 40.5269 28.6618 40.5122C29.993 40.2638 31.3298 40.0522 32.6895 40.1193C33.6491 40.1644 34.5719 40.3604 35.398 40.8756C36.5186 41.5729 37.031 42.6236 37.1037 43.9116C37.146 44.6522 37.0255 45.3836 36.9197 46.1086C36.6998 47.5861 36.4735 49.0618 36.261 50.5393C36.2552 50.6012 36.2328 50.6605 36.1962 50.7108C36.1597 50.7612 36.1102 50.8007 36.0531 50.8254C35.1864 51.301 34.2462 51.5614 33.2802 51.7196C32.0847 51.9268 30.8654 51.9578 29.6609 51.8116C28.6572 51.6856 27.7215 51.3737 26.9929 50.6359C26.6767 50.3121 26.4312 49.9261 26.2721 49.5025C26.1129 49.0788 26.0436 48.6267 26.0684 48.1748C26.0932 47.7229 26.2117 47.2811 26.4163 46.8774C26.6209 46.4737 26.9072 46.117 27.2569 45.8298C28.004 45.2152 28.8872 44.9098 29.8173 44.712C31.2258 44.4139 32.6472 44.4544 34.0695 44.563C34.2471 44.5758 34.2857 44.5215 34.294 44.3633C34.3575 43.2538 33.6914 42.4571 32.5221 42.2427C31.7107 42.0937 30.9139 42.2225 30.1172 42.3531C29.3043 42.4869 28.5041 42.6891 27.7252 42.9575V42.9575ZM32.7006 46.3045C32.1943 46.3012 31.6885 46.3384 31.1881 46.4158C30.6471 46.5078 30.1218 46.6504 29.6857 47.0092C29.1926 47.415 29.0611 47.9596 29.1586 48.5594C29.2506 49.1068 29.6333 49.4068 30.1292 49.5834C30.3565 49.6634 30.5929 49.7143 30.833 49.7352C31.7199 49.8208 32.581 49.6662 33.4366 49.4546C33.4946 49.4469 33.5478 49.4183 33.5862 49.374C33.6245 49.3298 33.6452 49.273 33.6445 49.2145C33.7613 48.3451 33.8773 47.4748 34.0061 46.6072C34.0281 46.4572 33.9785 46.4287 33.8533 46.4048C33.4722 46.3419 33.0868 46.3083 32.7006 46.3045V46.3045Z" fill="#114185"/>
<path d="M68.7975 49.0167C68.6503 49.4638 68.5215 49.864 68.3854 50.2642C68.2768 50.5926 68.1609 50.9183 68.0579 51.2495C68.048 51.3002 68.0233 51.3468 67.987 51.3835C67.9506 51.4202 67.9042 51.4453 67.8536 51.4556C66.446 51.831 65.02 52.0343 63.5664 51.8512C61.9104 51.6424 60.5415 50.9312 59.7024 49.4123C59.1863 48.4721 59.0225 47.4481 59.0925 46.3928C59.2259 44.3854 60.0621 42.7211 61.6169 41.4322C62.5618 40.6484 63.6639 40.2454 64.8765 40.1258C65.7128 40.0439 66.5445 40.0596 67.3605 40.2868C69.022 40.7468 70.1297 42.0394 70.3422 43.7506C70.4646 44.7341 70.3422 45.7001 70.1831 46.667C70.1637 46.7875 70.103 46.7912 70.011 46.7912C69.5648 46.7912 69.1177 46.7912 68.6715 46.7912C66.5248 46.7912 64.3782 46.7912 62.2315 46.7912C62.0585 46.7912 62.0079 46.8335 62.0052 47.0111C61.9813 48.4573 62.7798 49.4123 64.2012 49.6561C65.2519 49.8401 66.274 49.6809 67.2943 49.4583C67.8045 49.3442 68.3067 49.1967 68.7975 49.0167V49.0167ZM65.0439 44.9135H67.1047C67.734 44.9135 67.734 44.9135 67.7552 44.2842C67.7984 43.01 67.0192 42.1793 65.7523 42.1084C64.2371 42.0229 62.8083 43.1204 62.4403 44.7488C62.41 44.8841 62.4403 44.9172 62.5783 44.9163C63.3981 44.9098 64.2159 44.9135 65.0439 44.9135Z" fill="#114185"/>
<path d="M74.0875 51.888C72.7366 51.879 71.3957 51.6554 70.1149 51.2256C69.987 51.1815 69.953 51.1447 69.999 51.0057C70.2094 50.3685 70.4109 49.7282 70.6034 49.0848C70.6513 48.9265 70.7074 48.9394 70.8344 49.0001C72.0645 49.6018 73.4538 49.7977 74.8023 49.5595C75.1187 49.5113 75.4189 49.3883 75.6782 49.2007C75.7981 49.1176 75.8978 49.0086 75.9701 48.8818C76.0423 48.755 76.0853 48.6137 76.0957 48.4681C76.1061 48.3226 76.0837 48.1766 76.0303 48.0408C75.9768 47.905 75.8936 47.783 75.7867 47.6836C75.5529 47.4671 75.2904 47.2839 75.0066 47.139C74.3028 46.7452 73.587 46.3763 72.9182 45.92C71.1214 44.6899 71.3404 42.1296 73.1095 41.0062C73.8934 40.5085 74.7517 40.2592 75.6634 40.1644C77.1833 40.0071 78.6525 40.2675 80.1006 40.7036C80.2331 40.7431 80.2671 40.779 80.2165 40.9198C79.9985 41.5242 79.7878 42.1323 79.59 42.7441C79.5375 42.9051 79.475 42.8932 79.3508 42.8361C78.445 42.4087 77.4533 42.1947 76.4519 42.2105C75.9661 42.2225 75.4923 42.3025 75.0811 42.5896C74.9063 42.701 74.7729 42.8668 74.7014 43.0614C74.6299 43.2561 74.6243 43.4688 74.6855 43.6669C74.7647 43.889 74.9143 44.0793 75.1114 44.2088C75.5374 44.5289 76.025 44.7451 76.4914 45.0009C77.0621 45.2989 77.6068 45.6441 78.1198 46.0331C79.636 47.2365 79.4823 49.5291 78.0278 50.6939C77.0894 51.4437 75.9909 51.7436 74.8226 51.8503C74.5291 51.8761 74.2374 51.8807 74.0875 51.888Z" fill="#114185"/>
<path d="M84.0119 51.888C82.679 51.8751 81.3563 51.6538 80.0918 51.2321C79.9455 51.1833 79.9078 51.1401 79.9621 50.9855C80.17 50.3617 80.3669 49.7343 80.5582 49.105C80.6042 48.9523 80.6502 48.9302 80.7993 49.002C82.0242 49.5981 83.4054 49.7944 84.7479 49.5632C85.0356 49.518 85.3113 49.4154 85.5584 49.2614C86.1684 48.8723 86.2429 48.1574 85.7277 47.6569C85.5116 47.4628 85.2714 47.2973 85.0129 47.1647C84.2769 46.747 83.5124 46.3735 82.8196 45.8767C81.2216 44.7221 81.4203 42.6328 82.3973 41.584C83.056 40.8784 83.8877 40.4993 84.8105 40.296C86.035 40.02 87.2586 40.0863 88.4813 40.3126C88.9965 40.4046 89.5006 40.5444 90.0048 40.6806C90.1722 40.7275 90.233 40.7772 90.1621 40.9685C89.9496 41.5454 89.7564 42.1287 89.5687 42.7165C89.5163 42.8775 89.4638 42.9005 89.3056 42.8315C88.4119 42.4119 87.4354 42.1984 86.4481 42.2069C85.9881 42.2151 85.5437 42.2832 85.1426 42.5243C84.7626 42.7515 84.5704 43.0818 84.6274 43.5363C84.6633 43.8251 84.8372 44.0266 85.0561 44.1922C85.5161 44.5409 86.0451 44.7709 86.5456 45.0469C87.116 45.3625 87.679 45.6909 88.1768 46.115C89.5715 47.311 89.4142 49.5282 88.0148 50.669C87.2632 51.2827 86.391 51.601 85.4499 51.7657C84.9744 51.8429 84.4937 51.8838 84.0119 51.888Z" fill="#114185"/>
<path d="M47.5636 49.1795C47.5167 49.4555 47.398 49.703 47.3106 49.9633C47.1441 50.4592 46.9666 50.9505 46.8019 51.4473C46.7898 51.497 46.7623 51.5415 46.7232 51.5746C46.6842 51.6077 46.6358 51.6275 46.5848 51.6313C45.4808 51.8153 44.3648 51.9321 43.2433 51.8475C41.5699 51.7215 40.1347 51.1115 39.1484 49.6855C38.4529 48.6809 38.2073 47.5391 38.2689 46.3367C38.3719 44.3311 39.222 42.6898 40.7888 41.4331C41.6867 40.7137 42.7429 40.3604 43.868 40.2132C45.2608 40.0158 46.679 40.1006 48.0384 40.4625C48.2978 40.5334 48.548 40.6327 48.8029 40.7155C48.8949 40.745 48.9188 40.7845 48.8848 40.8848C48.6676 41.5196 48.4524 42.1562 48.249 42.7956C48.204 42.9364 48.1405 42.9079 48.0494 42.872C47.3998 42.6056 46.7119 42.4444 46.0116 42.3945C44.4964 42.309 43.1789 42.7257 42.2332 43.987C41.3472 45.1692 41.2101 47.1325 42.1587 48.3193C42.7484 49.0553 43.5267 49.4454 44.4504 49.553C45.4467 49.6689 46.41 49.4767 47.3612 49.2034C47.422 49.1859 47.4836 49.174 47.5452 49.1593L47.5636 49.1795Z" fill="#114185"/>
<path d="M58.0517 49.1667C57.8401 49.7757 57.5973 50.3783 57.4234 51.0002C57.2973 51.4538 57.0848 51.6691 56.5899 51.7187C55.2099 51.8567 53.8299 52.0113 52.4499 51.6461C50.2796 51.0692 48.8619 49.3378 48.7441 47.0875C48.6153 44.6421 49.5519 42.688 51.5216 41.2427C52.3496 40.6364 53.3156 40.3494 54.3239 40.2178C55.7163 40.0211 57.1341 40.1055 58.4933 40.4662C58.7454 40.5352 58.9874 40.6382 59.2385 40.7109C59.3701 40.7496 59.3738 40.8094 59.3305 40.9244C59.1199 41.5398 58.911 42.1553 58.7151 42.7754C58.6681 42.9235 58.612 42.918 58.4915 42.872C57.5273 42.504 56.5411 42.3044 55.5006 42.412C53.7333 42.6015 52.3882 43.7699 52.0487 45.4894C51.804 46.7305 52.0285 47.8658 53.0175 48.7444C53.8059 49.4436 54.7655 49.6386 55.7876 49.5788C56.5087 49.5313 57.2212 49.3954 57.9091 49.174C57.9505 49.1667 57.9873 49.1326 58.0517 49.1667Z" fill="#114185"/>
<path d="M23.0037 46.6348L11.5432 35.1744V36.9334L21.2446 46.6348L21.2483 46.6385L12.845 55.0418L12.8349 55.0317L4.43716 46.6348L4.4298 46.6275L8.55232 42.5049H6.76292L2.63672 46.6311L2.6404 46.6348L12.8312 56.8257L12.8349 56.822L23.0129 46.644L23.0037 46.6348Z" fill="#FE6309"/>
<path d="M11.5392 38.1441V39.9031L18.2745 46.6385L12.8484 52.0646L7.41763 46.6348L7.41027 46.6274L11.5328 42.5049H9.74339L5.61719 46.6311L5.62087 46.6348L11.9495 52.9635L12.8346 53.8485L13.7343 52.9497L20.0391 46.644L11.5392 38.1441Z" fill="#FE6309"/>
<path d="M17.0684 46.6348L13.7077 43.2703L12.8134 42.3761L11.9339 43.2556L8.55566 46.6311L11.9357 50.0112L12.8208 50.8962L13.7187 49.9974L17.0776 46.644L17.0684 46.6348ZM12.8364 49.1188L10.3524 46.6348L10.3451 46.6274L12.8226 44.1499L15.3066 46.6339L12.8364 49.1188Z" fill="#FE6309"/>
</svg>
