<svg width="48" height="48" viewBox="0 0 48 48" fill="none" xmlns="http://www.w3.org/2000/svg">
<path d="M45.818 0.287994H2.18217C1.13609 0.287994 0.288086 1.136 0.288086 2.18207V45.8179C0.288086 46.864 1.13609 47.712 2.18217 47.712H45.818C46.8641 47.712 47.7121 46.864 47.7121 45.8179V2.18207C47.7121 1.136 46.8641 0.287994 45.818 0.287994Z" fill="#5C2682"/>
<path d="M9.45013 19.4069V21.1589H13.3256V22.7722H9.45013V25.9166H7.66309V17.7941H13.8474V19.4069H9.45013Z" fill="white"/>
<path d="M21.7604 25.2087C21.5328 25.3886 21.2856 25.5424 21.0236 25.6671C20.7444 25.7983 20.4502 25.895 20.1476 25.9551C19.7961 26.0242 19.4384 26.0573 19.0801 26.0539C18.5107 26.0591 17.9461 25.9486 17.4207 25.729C16.9258 25.5228 16.4763 25.2213 16.0979 24.8415C15.7228 24.4605 15.427 24.0089 15.2276 23.5128C15.017 22.9932 14.9105 22.4372 14.9142 21.8765V21.8535C14.9099 21.2941 15.0165 20.7394 15.2276 20.2215C15.4296 19.7252 15.7251 19.2723 16.0979 18.8875C16.4772 18.499 16.931 18.1911 17.4323 17.9822C17.9772 17.7576 18.5622 17.6462 19.1516 17.6549C19.4999 17.6523 19.8476 17.6833 20.1899 17.7475C20.4821 17.8035 20.7679 17.889 21.0428 18.0029C21.2925 18.1083 21.5299 18.2406 21.7508 18.3974C21.9656 18.5509 22.1674 18.7217 22.3542 18.9082L21.2156 20.2191C20.9249 19.9517 20.5988 19.7256 20.2465 19.5471C19.9009 19.3811 19.5215 19.2978 19.1382 19.3037C18.8125 19.3007 18.4899 19.368 18.1926 19.501C17.9078 19.6285 17.6529 19.8143 17.4443 20.0463C17.233 20.2823 17.0677 20.5558 16.9571 20.8527C16.8395 21.1661 16.7804 21.4985 16.7828 21.8333V21.8563C16.7808 22.193 16.8398 22.5272 16.9571 22.8427C17.066 23.1405 17.2287 23.4158 17.4371 23.6549C17.6496 23.8953 17.9114 24.0871 18.2047 24.2172C18.498 24.3474 18.8159 24.4128 19.1367 24.409C19.6011 24.409 19.9937 24.3239 20.3147 24.1536C20.6626 23.9643 20.9844 23.7303 21.2718 23.4576L22.4089 24.6063C22.2083 24.8232 21.9915 25.0246 21.7604 25.2087V25.2087Z" fill="white"/>
<path d="M30.1965 25.9166V20.6136L27.9102 24.083H27.8622L25.5995 20.6486V25.9166H23.8379V17.7941H25.7637L27.8987 21.2289L30.0337 17.7941H31.96V25.9166H30.1965Z" fill="white"/>
<path d="M40.5874 24.6633C40.4438 24.9427 40.2328 25.1819 39.9735 25.3593C39.6817 25.5561 39.3563 25.6978 39.0135 25.7774C38.6047 25.8742 38.1856 25.9209 37.7655 25.9166H33.9092V17.7941H37.6738C38.5074 17.7941 39.1617 17.9837 39.6365 18.3629C40.1114 18.7421 40.349 19.2526 40.3493 19.8945V19.92C40.3526 20.1282 40.3233 20.3357 40.2625 20.5349C40.2084 20.7048 40.1308 20.8664 40.0321 21.0149C39.9381 21.1556 39.825 21.2825 39.6961 21.3921C39.5705 21.4998 39.4333 21.5932 39.2871 21.6705C39.7565 21.8488 40.1261 22.0905 40.3959 22.3958C40.6657 22.7011 40.8004 23.1238 40.8001 23.664V23.687C40.8083 24.0248 40.7354 24.3596 40.5874 24.6633V24.6633ZM38.5853 20.196C38.5853 19.9253 38.4849 19.7184 38.2839 19.5753C38.0829 19.4323 37.7929 19.3608 37.4137 19.3608H35.6497V21.0777H37.2961C37.6906 21.0777 38.0039 21.0101 38.2359 20.8747C38.4679 20.7393 38.5839 20.5208 38.5839 20.219L38.5853 20.196ZM39.038 23.4451C39.0422 23.3202 39.0158 23.1961 38.9612 23.0837C38.9066 22.9713 38.8253 22.8739 38.7245 22.8C38.5156 22.6416 38.1796 22.5616 37.7165 22.56H35.6525V24.347H37.7761C38.1706 24.347 38.4801 24.2755 38.7044 24.1325C38.9287 23.9894 39.0407 23.767 39.0404 23.4653L39.038 23.4451Z" fill="white"/>
<path d="M40.6668 31.1213V35.0986H7.48535V33.0067C7.48529 32.7591 7.53401 32.5139 7.62874 32.2851C7.72347 32.0563 7.86235 31.8485 8.03744 31.6734C8.21254 31.4983 8.42041 31.3594 8.64919 31.2647C8.87797 31.1699 9.12317 31.1212 9.37079 31.1213H40.6668Z" fill="#FAB613"/>
<path d="M7.48535 36.3864H40.6668V40.3637H9.37079C9.12313 40.3638 8.87789 40.315 8.64908 40.2203C8.42027 40.1255 8.21237 39.9866 8.03727 39.8114C7.86218 39.6363 7.72331 39.4284 7.62861 39.1995C7.5339 38.9707 7.48523 38.7254 7.48535 38.4778V36.3864Z" fill="#FAB613"/>
</svg>
