<svg width="53" height="53" viewBox="0 0 53 53" fill="none" xmlns="http://www.w3.org/2000/svg">
<path d="M6.90764 48.6482H4.85495L4.88145 47.6618V41.499C4.87847 41.2221 4.86078 40.9456 4.82845 40.6706C4.8152 40.5393 4.7862 40.4102 4.74206 40.2858C4.6889 40.1818 4.62721 40.0823 4.55762 39.9885L4.66362 39.706H6.93626L9.44104 39.6663C9.59842 39.9005 9.69329 40.171 9.71664 40.4523C9.74668 40.738 9.71153 41.0269 9.61382 41.2971H9.30165C9.26137 41.1042 9.11297 40.9399 8.85645 40.8042C8.60418 40.6694 8.32491 40.593 8.03919 40.5805L6.84298 40.5275C6.78503 41.5621 6.75623 42.5899 6.75659 43.611H8.45736C8.59445 43.611 8.70045 43.6089 8.77536 43.6047C8.86998 43.5956 8.9629 43.5735 9.05149 43.539C9.15469 43.5026 9.24873 43.4442 9.32709 43.3678C9.35633 43.5194 9.37177 43.6734 9.3732 43.8278C9.3732 44.3847 8.95909 44.6631 8.13088 44.6631C7.96234 44.6631 7.72313 44.6587 7.41326 44.6499C7.10338 44.641 6.87972 44.6366 6.74228 44.6366C6.73804 45.2196 6.74475 45.8597 6.76242 46.5568L6.78203 47.6088L6.81542 48.0297C6.82212 48.2387 6.85307 48.4463 6.90764 48.6482V48.6482Z" fill="#11237D"/>
<path d="M12.9823 45.7157C12.9823 46.9693 13.0311 47.9468 13.1286 48.6482H11.2206L11.2937 44.0589C11.2965 43.8082 11.272 43.558 11.2206 43.3127C11.1891 43.1442 11.1331 42.9814 11.0542 42.8293C10.9991 42.7327 10.9296 42.6451 10.848 42.5696C10.7983 42.519 10.74 42.4777 10.6757 42.4477C10.65 42.4378 10.6231 42.4312 10.5957 42.4281V42.1848C11.1147 41.8689 11.6046 41.711 12.0654 41.711C12.7212 41.711 13.0489 42.1384 13.0485 42.9931C13.0485 43.1245 13.0376 43.3469 13.0157 43.6603C12.9934 43.9741 12.9823 44.2179 12.9823 44.3933V45.7157ZM11.0621 39.9885C11.0599 39.8639 11.0838 39.7402 11.132 39.6253C11.1803 39.5105 11.252 39.4069 11.3425 39.3212C11.4303 39.2329 11.535 39.1632 11.6504 39.1163C11.7658 39.0694 11.8895 39.0463 12.014 39.0483C12.1338 39.0471 12.2526 39.0707 12.3629 39.1177C12.4732 39.1647 12.5726 39.234 12.6548 39.3212C12.7425 39.4084 12.8116 39.5125 12.8579 39.6272C12.9041 39.7419 12.9266 39.8648 12.924 39.9885C12.9256 40.1074 12.9025 40.2253 12.8562 40.3348C12.8098 40.4443 12.7412 40.5429 12.6548 40.6245C12.5713 40.7096 12.4715 40.7769 12.3614 40.8224C12.2513 40.868 12.1331 40.8908 12.014 40.8895C11.7639 40.8937 11.5223 40.7984 11.3425 40.6245C11.2533 40.5445 11.1821 40.4463 11.1338 40.3367C11.0855 40.227 11.061 40.1083 11.0621 39.9885V39.9885Z" fill="#11237D"/>
<path d="M21.5532 48.124V48.4197C21.0172 48.6911 20.519 48.8269 20.0586 48.8273C19.8262 48.8216 19.5993 48.7547 19.4009 48.6333C19.1795 48.5093 19.0044 48.3165 18.9022 48.0842C18.3135 48.5789 17.7023 48.8262 17.0684 48.8262C16.7178 48.8284 16.3698 48.7661 16.0418 48.6423C15.7141 48.5154 15.4139 48.3264 15.1577 48.0858C14.8896 47.8385 14.6776 47.5011 14.5217 47.0735C14.3659 46.646 14.2884 46.1513 14.2891 45.5895C14.2897 45.2172 14.3354 44.8463 14.4253 44.485C14.5179 44.1141 14.6606 43.7575 14.8493 43.425C15.0328 43.0935 15.2615 42.789 15.5287 42.5203C15.8031 42.25 16.1282 42.0365 16.4854 41.8922C16.8684 41.7345 17.279 41.6548 17.6933 41.658C17.9101 41.6622 18.1259 41.6878 18.3377 41.7343C18.5851 41.7845 18.7087 41.8184 18.7087 41.8361C18.7087 41.5598 18.7064 41.3045 18.7018 41.0702C18.6973 40.8359 18.6907 40.6222 18.6822 40.4289C18.6753 40.2559 18.6564 40.0836 18.6255 39.9132C18.6014 39.7778 18.5625 39.6453 18.5095 39.5184C18.4639 39.4098 18.3951 39.3126 18.3078 39.2337C18.2205 39.1547 18.1169 39.096 18.0044 39.0615V38.8182L18.1904 38.7197C18.3572 38.6325 18.5332 38.5641 18.7151 38.5156C18.9265 38.4521 19.1458 38.4189 19.3665 38.417C19.532 38.4134 19.6973 38.4312 19.8583 38.47C19.9899 38.5074 20.1099 38.5777 20.207 38.6741C20.3228 38.7968 20.402 38.9493 20.436 39.1145C20.4905 39.3578 20.5156 39.6067 20.5107 39.856V40.0272C20.5107 40.1063 20.4998 40.4044 20.4779 40.9213C20.456 41.4382 20.4325 42.0724 20.4074 42.824C20.383 43.5738 20.3708 44.273 20.3708 44.9217C20.3708 45.2945 20.3729 45.6001 20.3772 45.8386C20.3814 46.0771 20.3904 46.3161 20.4042 46.5557C20.4124 46.7437 20.4301 46.9313 20.4572 47.1175C20.4795 47.2545 20.5117 47.3896 20.5537 47.5219C20.5815 47.6279 20.6299 47.7273 20.6962 47.8145C20.7567 47.8821 20.8273 47.9399 20.9056 47.9856C20.9922 48.0385 21.0881 48.0745 21.1881 48.0916C21.3089 48.1105 21.4309 48.1213 21.5532 48.124V48.124ZM17.7728 47.8542C18.1317 47.8542 18.4262 47.7731 18.6563 47.6109L18.67 46.0655V42.7106C18.1824 42.5922 17.8192 42.533 17.5804 42.533C17.3138 42.5287 17.0544 42.6196 16.849 42.7895C16.6358 42.968 16.473 43.1992 16.3767 43.46C16.2721 43.7288 16.1943 44.0074 16.1446 44.2915C16.0961 44.5695 16.0716 44.8511 16.0715 45.1332C16.0715 45.9879 16.2287 46.6552 16.5432 47.135C16.8576 47.6148 17.2675 47.854 17.7728 47.8526V47.8542Z" fill="#11237D"/>
<path d="M27.5214 44.8936L27.4011 44.944C27.1753 45.032 26.8696 45.0759 26.4842 45.0759L23.4679 45.0362C23.4764 45.1369 23.4812 45.3038 23.4812 45.536C23.4985 46.1889 23.6967 46.7013 24.0758 47.073C24.455 47.4447 24.8768 47.6311 25.3415 47.6321C25.7602 47.6285 26.1733 47.5355 26.5531 47.3592C26.9629 47.1751 27.3228 46.8552 27.6327 46.3994C27.7079 46.6671 27.7079 46.9505 27.6327 47.2182C27.5603 47.4738 27.4243 47.7069 27.2373 47.8956C27.0367 48.0953 26.8071 48.2637 26.5562 48.3948C26.2838 48.54 25.9933 48.6483 25.6923 48.7171C25.3853 48.7883 25.071 48.8239 24.7558 48.8231C24.3724 48.8264 23.9912 48.7629 23.6296 48.6354C23.2809 48.51 22.9599 48.3184 22.6841 48.071C22.4014 47.8194 22.1767 47.4809 22.0099 47.0555C21.8431 46.6301 21.7578 46.1412 21.7539 45.589C21.7539 44.8661 21.879 44.2108 22.1291 43.6232C22.3793 43.0356 22.7409 42.5703 23.2141 42.2272C23.6826 41.8843 24.25 41.7031 24.8306 41.711C25.155 41.7067 25.4784 41.75 25.7904 41.8392C26.0408 41.9082 26.2786 42.0168 26.4948 42.1609C26.6796 42.2919 26.8408 42.4531 26.9718 42.6379C27.0934 42.8024 27.1958 42.9802 27.277 43.1679C27.3493 43.347 27.4026 43.5332 27.436 43.7234C27.4676 43.8843 27.491 44.0467 27.506 44.2099C27.515 44.3308 27.5192 44.4543 27.5192 44.5809L27.5214 44.8936ZM24.7442 42.533C24.5713 42.5303 24.4019 42.5808 24.2587 42.6777C24.1059 42.7871 23.9828 42.9328 23.9004 43.1017C23.8025 43.2885 23.7212 43.4836 23.6577 43.6847C23.5854 43.9211 23.5266 44.1614 23.4817 44.4044C23.7432 44.4002 24.1373 44.3871 24.6641 44.3652C25.191 44.3433 25.5985 44.3301 25.8868 44.3255C25.8827 44.1143 25.8582 43.9039 25.8137 43.6974C25.7709 43.4984 25.7039 43.3053 25.6144 43.1224C25.5327 42.951 25.4094 42.8028 25.2556 42.6915C25.1063 42.5857 24.9271 42.5302 24.7442 42.533V42.533Z" fill="#11237D"/>
<path d="M30.9971 48.6482H29.0891C29.1156 47.2702 29.1288 45.9946 29.1288 44.8216L29.1622 40.5937C29.1622 40.1507 29.0903 39.7973 28.9465 39.5337C28.8027 39.2702 28.6425 39.1126 28.4658 39.061V38.8177L28.6518 38.7191C28.8235 38.6323 29.0038 38.5639 29.1898 38.5151C29.4057 38.4515 29.6294 38.4183 29.8544 38.4165C30.2784 38.4165 30.5708 38.5262 30.7316 38.7456C30.8923 38.9651 30.972 39.3025 30.9706 39.7579C30.9706 40.0342 30.9573 40.3499 30.9308 40.705C30.8743 41.6654 30.846 42.8447 30.846 44.2428V45.9589C30.846 46.4497 30.8572 46.9253 30.8794 47.3857C30.8973 47.8082 30.9366 48.2296 30.9971 48.6482V48.6482Z" fill="#11237D"/>
<path d="M34.639 45.7157C34.639 46.9693 34.6877 47.9468 34.7853 48.6481H32.8773L32.9509 44.0589C32.9538 43.8082 32.9291 43.5579 32.8773 43.3126C32.8462 43.1442 32.7903 42.9813 32.7114 42.8293C32.6563 42.7327 32.5868 42.6451 32.5052 42.5696C32.4555 42.5188 32.3969 42.4775 32.3324 42.4477C32.3069 42.4378 32.2802 42.4312 32.2529 42.4281V42.1848C32.7716 41.8689 33.2613 41.711 33.7221 41.711C34.3779 41.711 34.7056 42.1383 34.7052 42.9931C34.7052 43.1245 34.6943 43.3469 34.6724 43.6603C34.6501 43.9741 34.639 44.2179 34.639 44.3933V45.7157ZM32.7188 39.9885C32.7164 39.864 32.74 39.7404 32.788 39.6255C32.836 39.5106 32.9074 39.407 32.9976 39.3212C33.0853 39.233 33.19 39.1633 33.3053 39.1164C33.4206 39.0695 33.5441 39.0463 33.6686 39.0483C33.7885 39.0471 33.9074 39.0707 34.0177 39.1177C34.1281 39.1647 34.2276 39.234 34.3099 39.3212C34.3976 39.4084 34.4667 39.5125 34.513 39.6272C34.5592 39.7419 34.5817 39.8648 34.5791 39.9885C34.5807 40.1074 34.5576 40.2253 34.5113 40.3348C34.4649 40.4443 34.3963 40.5429 34.3099 40.6245C34.2263 40.7096 34.1265 40.7769 34.0163 40.8225C33.9061 40.868 33.7878 40.8908 33.6686 40.8895C33.4186 40.8936 33.1773 40.7983 32.9976 40.6245C32.9087 40.5443 32.8378 40.4461 32.7898 40.3365C32.7417 40.2268 32.7175 40.1082 32.7188 39.9885V39.9885Z" fill="#11237D"/>
<path d="M38.7724 40.7316L38.6192 41.8493H39.8912C40.0353 41.8481 40.1788 41.8316 40.3194 41.8C40.4728 41.7672 40.5692 41.7114 40.6088 41.6326C40.637 41.7376 40.6504 41.8461 40.6486 41.9548C40.6486 42.4936 40.2588 42.7632 39.4794 42.7636C39.4087 42.7636 39.2614 42.7569 39.0374 42.7434C38.8134 42.73 38.6616 42.7235 38.5821 42.7238V45.7549C38.5779 45.8821 38.5779 46.0162 38.5821 46.1561C38.5863 46.296 38.5922 46.4354 38.5985 46.5738C38.6046 46.7074 38.6271 46.8399 38.6653 46.9681C38.6988 47.0834 38.7467 47.194 38.8079 47.2972C38.8687 47.3941 38.9548 47.4725 39.057 47.5241C39.1755 47.5831 39.3067 47.6124 39.4391 47.6094C39.7301 47.6069 40.019 47.5613 40.2966 47.4742C40.5929 47.3847 40.7795 47.2654 40.8547 47.116C40.9118 47.2488 40.9351 47.3937 40.9223 47.5378C40.9095 47.6818 40.8612 47.8204 40.7816 47.9412C40.618 48.2108 40.3622 48.4256 40.0142 48.5856C39.6629 48.7465 39.2806 48.8284 38.8943 48.8257C38.4784 48.8257 38.1341 48.7775 37.8613 48.681C37.6122 48.6016 37.3947 48.4452 37.2401 48.2343C37.097 48.0299 36.9974 47.7982 36.9476 47.5537C36.8895 47.2449 36.8629 46.9309 36.8681 46.6167C36.8681 46.2835 36.8902 45.7888 36.9343 45.1327C36.9785 44.4765 37.0006 43.9965 37.0006 43.6927C37.0006 43.1754 36.9608 42.8664 36.8813 42.7657C36.7051 42.5411 36.4685 42.3713 36.1992 42.2765L36.2655 41.8758C36.3194 41.8735 36.3727 41.8646 36.4245 41.8493C36.5304 41.8168 36.6337 41.7763 36.7335 41.728C36.9077 41.6384 37.0652 41.5194 37.1988 41.376C37.387 41.1827 37.5498 40.9661 37.6832 40.7316H38.7724Z" fill="#11237D"/>
<path d="M45.1086 48.6349L44.9496 48.5692C44.816 48.5115 44.6953 48.4277 44.5945 48.3227C44.4684 48.2053 44.3755 48.0567 44.3252 47.8919L43.1354 44.149C43.0593 43.8943 42.9627 43.6461 42.8465 43.407C42.7622 43.2284 42.6619 43.0578 42.5471 42.8971C42.4669 42.7883 42.3769 42.687 42.2784 42.5945C42.2166 42.5357 42.1497 42.4825 42.0786 42.4355C42.0479 42.4156 42.0145 42.4001 41.9795 42.3894L41.9657 42.1461C42.1497 42.0196 42.3496 41.918 42.5603 41.844C42.7712 41.7607 42.9951 41.7157 43.2218 41.711C43.603 41.711 43.882 41.8007 44.0586 41.9802C44.2353 42.1597 44.3766 42.4468 44.4826 42.8415C44.571 43.3503 44.9254 44.4633 45.5458 46.1805L45.7085 46.5123C45.8082 46.7161 45.8624 46.8313 45.8712 46.8578L45.9375 46.5817C45.9729 46.4229 46.0197 46.2669 46.0774 46.1148L46.9344 43.6884C47.0584 43.3425 47.1205 43.0598 47.1205 42.8404C47.1205 42.621 47.0452 42.4698 46.8947 42.3867L46.8676 42.1435C47.1745 41.88 47.5612 41.7276 47.9653 41.711C48.2833 41.711 48.4423 41.8776 48.4423 42.2108C48.4423 42.4429 48.3292 42.8374 48.1031 43.3943L45.3942 49.996C45.2967 50.2327 45.2148 50.4245 45.1483 50.5715C45.0819 50.7185 44.9962 50.892 44.8913 51.092C44.8041 51.2637 44.6961 51.4239 44.5696 51.569C44.4512 51.6967 44.3235 51.8154 44.1874 51.9241C44.0425 52.0419 43.8752 52.1292 43.6956 52.1806C43.5003 52.2346 43.2983 52.2606 43.0956 52.258C42.6879 52.258 42.3678 52.1046 42.1353 51.798C41.9028 51.4913 41.8321 51.1098 41.9233 50.6537C42.012 50.7632 42.1549 50.8531 42.3521 50.9235C42.5427 50.9926 42.7439 51.0285 42.9467 51.0295C43.2831 51.0295 43.5698 50.9671 43.8069 50.8424C44.0328 50.7291 44.2108 50.5389 44.3088 50.306L44.9448 48.919L45.1086 48.6349Z" fill="#11237D"/>
<path d="M40.8919 0.835815C40.5531 0.773258 40.2093 0.741856 39.8648 0.742005H7.75316C7.67674 0.742145 7.60349 0.772567 7.54945 0.826607C7.49541 0.880647 7.46498 0.953901 7.46484 1.03032V27.958C7.46439 29.2364 7.89686 30.4772 8.69179 31.4783C17.9615 27.8902 34.2553 15.3578 41.6048 1.01389C41.3714 0.938886 41.1332 0.879396 40.8919 0.835815Z" fill="#11237D"/>
<path d="M45.5352 6.41299V33.3396C45.535 33.4161 45.5046 33.4893 45.4506 33.5434C45.3965 33.5974 45.3233 33.6278 45.2469 33.628H13.1352C12.2827 33.6287 11.441 33.437 10.6729 33.0672C20.1143 29.2878 36.46 16.5773 43.5959 2.14331C44.206 2.67467 44.6948 3.33085 45.0294 4.06747C45.364 4.80408 45.5365 5.60396 45.5352 6.41299V6.41299Z" fill="#4DC247"/>
</svg>
