<svg width="89" height="89" viewBox="0 0 89 89" fill="none" xmlns="http://www.w3.org/2000/svg">
<path d="M3.86606 39.8489C5.07824 40.6846 6.16137 41.3076 7.73222 41.8256L9.02717 34.2285L4.59853 34.265L3.86606 39.8489ZM3.05082 44.5445L1.39453 54.8827H5.687L6.92143 47.0899C5.39686 46.3734 4.4677 46.1127 3.05082 44.5445Z" fill="#68AC48"/>
<path d="M16.8856 34.3878L15.5986 42.5714L19.973 41.9804L20.8835 35.9444L20.8843 35.9391L20.928 35.6498H20.9306L21.1353 34.3878H16.8856Z" fill="url(#paint0_linear_895_696)"/>
<path d="M25.2201 34.3878H22.3472L22.1211 35.6605L25.0091 35.689C25.2761 35.6712 27.7681 36.0236 27.4931 38.869C27.446 39.3585 26.8657 41.4375 26.5933 41.749C27.9906 42.0107 28.9901 42.194 29.9104 42.7449C31.0131 41.9323 31.8791 40.5893 32.0882 39.1636C32.7521 34.7518 28.951 34.3878 25.2201 34.3878Z" fill="url(#paint1_linear_895_696)"/>
<path d="M26.8775 46.814C27.1276 48.2131 27.2736 49.1645 26.574 50.8929C25.9012 52.5527 23.7501 53.6892 22.7106 53.6278L19.1986 53.6189L19.0117 54.6576H22.9945C28.3113 55.002 30.2595 53.0734 31.5839 49.84C31.065 48.8334 30.6716 47.3907 26.8775 46.814Z" fill="url(#paint2_linear_895_696)"/>
<path d="M14.7372 47.8971L13.7119 54.6567H17.9893L18.2029 53.2896L18.2224 53.1633L19.0937 47.3702L14.7372 47.8971Z" fill="url(#paint3_linear_895_696)"/>
<path d="M1.10449 39.3736C1.10449 39.3736 6.408 43.5699 12.2535 43.5699C18.099 43.5699 18.9196 42.4183 24.2062 42.4183C29.6299 42.4183 32.3569 44.0087 31.8718 48.6483C31.8718 48.6483 30.9818 45.7398 25.3428 45.7398C19.7037 45.7398 18.601 47.1451 13.0723 47.1451C7.54364 47.1451 2.86135 45.0393 1.10449 39.3736Z" fill="url(#paint4_linear_895_696)"/>
<path d="M40.5091 33.909H42.0372L41.5521 37.3284H45.5678L46.0511 33.909H47.5792L46.3688 42.4913H44.8389L45.3729 38.707H41.3581L40.8241 42.4913H39.2969L40.5091 33.909Z" fill="#68AC48"/>
<path d="M49.6538 40.0901C49.6298 40.9507 50.2119 41.4722 51.0244 41.4722C51.7516 41.4722 52.2704 41.1331 52.6976 40.6846L53.6313 41.474C52.8303 42.3106 51.9216 42.6381 50.9995 42.6381C49.2409 42.6381 48.0162 41.4135 48.2708 39.5819C48.5253 37.7502 50.1024 36.5265 51.861 36.5265C53.4862 36.5265 54.4314 37.6666 54.1403 39.6913L54.0923 40.0918L49.6538 40.0901ZM52.7822 38.998C52.8917 38.1498 52.4191 37.6158 51.5095 37.6158C50.648 37.6158 50.0294 38.1614 49.7989 38.998H52.7822Z" fill="#68AC48"/>
<path d="M55.9239 36.668H57.3791L57.258 37.59H57.2821C57.475 37.2659 57.7485 36.9972 58.076 36.81C58.4035 36.6229 58.7739 36.5237 59.1511 36.522C59.324 36.5246 59.4956 36.5531 59.6601 36.6066L59.4661 38.0137C59.2415 37.9477 59.0094 37.911 58.7755 37.9042C57.4049 37.9042 57.0533 39.0568 57.0044 39.3718L56.5683 42.4868H55.1113L55.9239 36.668Z" fill="#68AC48"/>
<path d="M60.6661 36.668H62.1221L61.3096 42.4895H59.8535L60.6661 36.668ZM61.7813 33.82C62.3153 33.82 62.6793 34.1965 62.6063 34.6931C62.5333 35.1897 62.0723 35.5662 61.5383 35.5662C61.0043 35.5662 60.6768 35.1541 60.7373 34.6931C60.7826 34.4489 60.9117 34.2281 61.1022 34.0687C61.2927 33.9094 61.5329 33.8214 61.7813 33.82V33.82Z" fill="#68AC48"/>
<path d="M62.9453 37.9069L63.1153 36.6698H64.3159L64.5589 34.9841H66.014L65.7711 36.668H67.3731L67.2031 37.9051H65.6011L65.2451 40.4523C65.1605 41.0344 65.2816 41.3975 65.9241 41.3975C66.1796 41.3975 66.5311 41.3494 66.7367 41.2195L66.5721 42.4423C66.2446 42.5883 65.723 42.6364 65.383 42.6364C63.8433 42.6364 63.5763 41.9457 63.7703 40.5751L64.1459 37.9051L62.9453 37.9069Z" fill="#68AC48"/>
<path d="M71.446 41.6903H71.4104C70.9129 42.3453 70.1849 42.6363 69.4088 42.6363C68.3301 42.6363 67.3716 42.0427 67.5398 40.8902C67.7943 38.998 70.0256 38.8654 71.4807 38.8654H71.8447L71.8687 38.707C71.9658 37.995 71.4691 37.6159 70.6931 37.6159C70.0905 37.6267 69.5093 37.8402 69.043 38.2219L68.3888 37.4583C69.1284 36.8033 70.0745 36.5247 70.9957 36.5247C73.4823 36.5247 73.2269 38.319 73.1183 39.144L72.6448 42.4913H71.3374L71.446 41.6903ZM71.616 39.8836H71.3125C70.5115 39.8836 69.1302 39.9441 69.0092 40.7807C68.9362 41.3147 69.4453 41.5452 69.9179 41.5452C70.9129 41.5452 71.4585 41.0237 71.5679 40.2102L71.616 39.8836Z" fill="#68AC48"/>
<path d="M81.0154 36.668L80.2776 41.9697C79.9866 44.0675 78.7744 45.4016 76.5067 45.4016C75.4271 45.4016 74.481 45.1711 73.7539 44.4439L74.7934 43.254C75.3034 43.788 75.8614 44.0906 76.6731 44.0906C78.0802 44.0906 78.6382 43.2896 78.7958 42.1388L78.8563 41.7143H78.8322C78.3232 42.2839 77.5346 42.5634 76.8066 42.5634C75.0604 42.5634 74.1028 41.2284 74.3333 39.5792C74.5754 37.8579 75.8365 36.5238 77.6316 36.5238C78.4442 36.5238 79.1598 36.8389 79.4873 37.542H79.5113L79.6324 36.6689L81.0154 36.668ZM75.7884 39.5667C75.6549 40.4879 76.2735 41.2524 77.2552 41.2524C78.3347 41.2524 79.0992 40.5128 79.2327 39.5427C79.3778 38.5361 78.8082 37.8321 77.7527 37.8321C76.7345 37.8339 75.9335 38.537 75.7884 39.5685V39.5667Z" fill="#68AC48"/>
<path d="M83.356 40.0901C83.3311 40.9507 83.9131 41.474 84.7275 41.474C85.4555 41.474 85.9735 41.1349 86.4016 40.6863L87.3334 41.474C86.5324 42.3106 85.6237 42.6381 84.7017 42.6381C82.943 42.6381 81.7184 41.4135 81.9729 39.5819C82.2275 37.7502 83.8046 36.5265 85.5632 36.5265C87.1883 36.5265 88.1335 37.6666 87.8425 39.6913L87.7944 40.0918L83.356 40.0901ZM86.4843 38.998C86.5938 38.1498 86.1203 37.6158 85.2107 37.6158C84.3501 37.6158 83.7316 38.1614 83.5011 38.998H86.4843Z" fill="#68AC48"/>
<path d="M40.5091 46.4482H43.8563C45.154 46.4482 46.4035 47.0427 46.1704 48.6074C46.0369 49.5775 45.3453 50.22 44.4242 50.487L44.4117 50.5111C45.4797 50.6321 46.1339 51.4812 45.9763 52.5848C45.7218 54.4538 44.0112 55.0341 42.3861 55.0341H39.2969L40.5091 46.4482ZM41.0066 53.7249H42.4137C43.2013 53.7249 44.3174 53.5914 44.4749 52.4637C44.5959 51.5657 44.0628 51.2507 42.8257 51.2507H41.3581L41.0066 53.7249ZM41.5406 49.9406H42.9352C43.9543 49.9406 44.5247 49.5045 44.6209 48.8619C44.7179 48.1223 44.2577 47.7583 43.1079 47.7583H41.8432L41.5406 49.9406Z" fill="#68AC48"/>
<path d="M50.77 54.2339H50.7308C50.2342 54.889 49.5062 55.18 48.7301 55.18C47.6505 55.18 46.6929 54.5855 46.8611 53.4338C47.1156 51.5417 49.3469 51.4082 50.802 51.4082H51.166L51.19 51.2506C51.287 50.5386 50.7904 50.1595 50.0135 50.1595C49.4112 50.17 48.8301 50.3836 48.3643 50.7656L47.7093 50.002C48.4497 49.3469 49.3958 49.0675 50.3169 49.0675C52.8036 49.0675 52.5482 50.8626 52.4396 51.6876L51.9661 55.034H50.6614L50.77 54.2339ZM50.9399 52.4272H50.6365C49.8355 52.4272 48.4542 52.4877 48.3331 53.3243C48.2602 53.8583 48.7692 54.0889 49.2418 54.0889C50.2369 54.0889 50.7824 53.5673 50.8919 52.7539L50.9399 52.4272Z" fill="#68AC48"/>
<path d="M54.3468 49.217H55.7298L55.6079 50.1506H55.6328C55.9719 49.5686 56.5904 49.071 57.5605 49.071C59.1252 49.071 59.5257 50.1746 59.3673 51.3637L58.8457 55.0376H57.3906L57.8035 52.0908C57.9005 51.4482 57.9975 50.3811 56.9785 50.3811C56.0208 50.3811 55.5474 51.0842 55.4388 51.8603L54.9938 55.0376H53.5342L54.3468 49.217Z" fill="#68AC48"/>
<path d="M61.7813 45.8661H63.2364L62.4238 51.6271L65.0048 49.2134H66.8738L64.0116 51.8567L66.2188 55.034H64.292L62.3891 52.065H62.3651L61.953 55.0358H60.4961L61.7813 45.8661Z" fill="#68AC48"/>
<defs>
<linearGradient id="paint0_linear_895_696" x1="17.5175" y1="37.3604" x2="21.7539" y2="42.9452" gradientUnits="userSpaceOnUse">
<stop offset="0.76" stop-color="#68AC48"/>
<stop offset="0.78" stop-color="#6EAF4F"/>
<stop offset="0.81" stop-color="#7FB863"/>
<stop offset="0.84" stop-color="#9CC784"/>
<stop offset="0.88" stop-color="#C3DBB1"/>
<stop offset="0.89" stop-color="#CFE1BF"/>
<stop offset="0.91" stop-color="#A4C6A2"/>
<stop offset="0.93" stop-color="#4E9066"/>
<stop offset="0.95" stop-color="#176D41"/>
<stop offset="0.96" stop-color="#026032"/>
</linearGradient>
<linearGradient id="paint1_linear_895_696" x1="3044.7" y1="3406.98" x2="3573.75" y2="4245.09" gradientUnits="userSpaceOnUse">
<stop offset="0.76" stop-color="#68AC48"/>
<stop offset="0.78" stop-color="#6EAF4F"/>
<stop offset="0.81" stop-color="#7FB863"/>
<stop offset="0.84" stop-color="#9CC784"/>
<stop offset="0.88" stop-color="#C3DBB1"/>
<stop offset="0.89" stop-color="#CFE1BF"/>
<stop offset="0.91" stop-color="#A4C6A2"/>
<stop offset="0.93" stop-color="#4E9066"/>
<stop offset="0.95" stop-color="#176D41"/>
<stop offset="0.96" stop-color="#026032"/>
</linearGradient>
<linearGradient id="paint2_linear_895_696" x1="23.6299" y1="57.0081" x2="27.0066" y2="46.8781" gradientUnits="userSpaceOnUse">
<stop offset="0.22" stop-color="#68AC48"/>
<stop offset="0.33" stop-color="#63A847"/>
<stop offset="0.46" stop-color="#559E44"/>
<stop offset="0.59" stop-color="#3E8C3F"/>
<stop offset="0.73" stop-color="#1D7438"/>
<stop offset="0.83" stop-color="#026032"/>
</linearGradient>
<linearGradient id="paint3_linear_895_696" x1="971.409" y1="4162.83" x2="1305.8" y2="4488.41" gradientUnits="userSpaceOnUse">
<stop offset="0.76" stop-color="#68AC48"/>
<stop offset="0.78" stop-color="#6EAF4F"/>
<stop offset="0.81" stop-color="#7FB863"/>
<stop offset="0.84" stop-color="#9CC784"/>
<stop offset="0.88" stop-color="#C3DBB1"/>
<stop offset="0.89" stop-color="#CFE1BF"/>
<stop offset="0.91" stop-color="#A4C6A2"/>
<stop offset="0.93" stop-color="#4E9066"/>
<stop offset="0.95" stop-color="#176D41"/>
<stop offset="0.96" stop-color="#026032"/>
</linearGradient>
<linearGradient id="paint4_linear_895_696" x1="383.611" y1="4625.52" x2="11058" y2="4625.52" gradientUnits="userSpaceOnUse">
<stop offset="0.76" stop-color="#68AC48"/>
<stop offset="0.78" stop-color="#6EAF4F"/>
<stop offset="0.81" stop-color="#7FB863"/>
<stop offset="0.84" stop-color="#9CC784"/>
<stop offset="0.88" stop-color="#C3DBB1"/>
<stop offset="0.89" stop-color="#CFE1BF"/>
<stop offset="0.91" stop-color="#A4C6A2"/>
<stop offset="0.93" stop-color="#4E9066"/>
<stop offset="0.95" stop-color="#176D41"/>
<stop offset="0.96" stop-color="#026032"/>
</linearGradient>
</defs>
</svg>
