<svg width="84" height="59" viewBox="0 0 84 59" fill="none" xmlns="http://www.w3.org/2000/svg">
<path d="M49.7738 25.1321V35.1286H46.8553V33.6687C46.5574 34.1759 46.1249 34.5921 45.6051 34.8719C45.0672 35.153 44.4668 35.2955 43.8591 35.2862C42.6019 35.2862 41.6623 34.9376 41.0404 34.2406C40.4185 33.5435 40.1082 32.4919 40.1095 31.0858V25.1321H43.1028V31.1453C43.1028 32.3544 43.6253 32.959 44.6702 32.959C45.2915 32.959 45.7944 32.7489 46.1789 32.3287C46.5633 31.9084 46.7552 31.3564 46.7546 30.6725V25.1321H49.7738ZM61.218 20.5729V35.1286H58.2607V33.6498C57.9542 34.1638 57.5072 34.5807 56.9716 34.8521C56.3882 35.148 55.7407 35.297 55.0858 35.2862C54.2683 35.2996 53.4655 35.0693 52.781 34.6251C52.0905 34.1666 51.5438 33.5243 51.2035 32.7717C50.8264 31.9788 50.6378 31.0686 50.6378 30.0411C50.6378 29.0137 50.8264 28.1101 51.2035 27.3304C51.5433 26.591 52.0867 25.9622 52.771 25.5166C53.4627 25.0833 54.2672 24.861 55.0848 24.8774C55.7255 24.8695 56.3586 25.015 56.9307 25.3016C57.4635 25.5635 57.9108 25.97 58.2208 26.4741V20.5729H61.218ZM57.67 32.2593C58.0691 31.7538 58.2687 31.027 58.2687 30.0788C58.2687 29.1452 58.0668 28.4256 57.663 27.9201C57.2593 27.4146 56.6939 27.1616 55.9668 27.1609C55.2252 27.1609 54.6495 27.4107 54.2397 27.9102C53.83 28.4097 53.6251 29.1194 53.6251 30.0392C53.6251 30.9854 53.83 31.7181 54.2397 32.2375C54.6495 32.7568 55.2252 33.0165 55.9668 33.0165C56.7032 33.0178 57.2709 32.7654 57.67 32.2593V32.2593ZM72.6623 25.1321V35.1286H69.7039V33.6498C69.3975 34.1641 68.95 34.5811 68.4138 34.8521C67.8306 35.1472 67.1834 35.2955 66.5291 35.2842C65.7121 35.3062 64.907 35.0864 64.2161 34.6528C63.5252 34.2192 62.9797 33.5913 62.6488 32.849C62.2717 32.0673 62.0831 31.1638 62.0831 30.1383C62.0831 29.1128 62.2717 28.199 62.6488 27.3968C62.9872 26.6406 63.534 25.9949 64.2262 25.5345C64.9106 25.092 65.7126 24.8632 66.5291 24.8774C67.186 24.8669 67.8347 25.0231 68.4138 25.3313C68.9485 25.6135 69.3947 26.0363 69.7039 26.5534V25.1321H72.6623ZM69.1093 32.2682C69.5084 31.7687 69.7079 31.0458 69.7079 30.0996C69.7079 29.1534 69.5084 28.4266 69.1093 27.9191C68.7102 27.4123 68.1411 27.1593 67.4021 27.1599C66.6631 27.1606 66.0874 27.4239 65.675 27.9499C65.2652 28.4785 65.06 29.2083 65.0594 30.1393C65.0587 31.0703 65.2606 31.7832 65.665 32.2781C66.0688 32.7704 66.6478 33.0168 67.4021 33.0175C68.1424 33.0182 68.7115 32.7687 69.1093 32.2692V32.2682ZM39.4999 35.2693H35.7812L31.7802 30.7369V35.2693H28.7451V20.5729H31.7802V29.498L35.5997 25.1658H39.2385L34.9162 30.0223L39.4999 35.2693ZM20.4298 35.2743L14.6049 28.6139L17.7857 35.2743H15.5807L12.336 28.4841L13.685 35.2743H12.33L10.98 28.4742V35.2743H10.4482V20.5729H10.98V27.9072L12.349 20.5729H13.6999L12.325 27.939L15.6326 20.5729H17.8137L14.5191 27.9122L20.5016 20.5729H23.9199L17.7319 28.1659L23.9489 35.2743H20.4298Z" fill="#41276D"/>
<path d="M75.1755 35.1128C76.0831 35.1128 76.8188 34.382 76.8188 33.4804C76.8188 32.5789 76.0831 31.848 75.1755 31.848C74.268 31.848 73.5322 32.5789 73.5322 33.4804C73.5322 34.382 74.268 35.1128 75.1755 35.1128Z" fill="#41276D"/>
</svg>
