<svg width="79" height="37" viewBox="0 0 79 37" fill="none" xmlns="http://www.w3.org/2000/svg">
<g clip-path="url(#clip0_895_610)">
<path d="M1.22448 31.0262L0.646145 34.0818C0.569034 34.3168 0.569034 34.5127 0.569034 34.7477C0.569034 35.4137 0.954588 35.7271 1.49436 35.7271C2.18836 35.7271 2.68958 35.257 2.88236 34.0818L3.49924 31.0262H4.11613L3.5378 34.0818C3.26791 35.6096 2.53536 36.2364 1.45581 36.2364C0.569034 36.2364 -0.0478516 35.7663 -0.0478516 34.7085L-0.00929619 33.9642L0.530479 30.987H1.22448V31.0262ZM5.0029 36.2364L5.46557 33.6117C5.58123 33.1807 5.58123 32.8282 5.65834 32.5148H6.19812L6.08245 33.2199C6.3909 32.6715 6.89212 32.3973 7.43189 32.3973C7.856 32.3973 8.31867 32.6715 8.31867 33.4158L8.28011 34.0426L7.856 36.158H7.20056L7.58611 34.0426L7.62467 33.5333C7.62467 33.1807 7.47045 32.9065 7.04634 32.9065C6.62223 32.9065 5.96679 33.4158 5.81257 34.356L5.46557 36.158H5.0029V36.2364ZM9.6681 36.2364L10.3621 32.5148H11.0175L10.3235 36.2364H9.6681ZM10.4778 31.4571C10.4778 31.2612 10.7091 31.0262 10.9019 31.0262C11.1332 31.0262 11.2874 31.1828 11.2874 31.4179C11.2874 31.6921 11.1332 31.8488 10.8633 31.8488C10.632 31.8488 10.4778 31.6921 10.4778 31.4571ZM13.7164 31.5354L13.5622 32.5148H14.4104L14.2947 32.9849H13.4465L13.1381 34.7869C13.061 35.0219 13.061 35.1786 13.061 35.4137C13.061 35.6096 13.1766 35.7271 13.408 35.7271H13.6779L13.6008 36.2364L13.1381 36.2755C12.5983 36.2755 12.367 35.9621 12.367 35.5704L12.4055 34.8652L12.7911 32.9849H12.2513L12.367 32.5148H12.9068L13.061 31.6921L13.7164 31.5354ZM17.7647 36.0013C17.4948 36.158 17.0322 36.2755 16.5695 36.2755C15.6056 36.2755 15.1815 35.6096 15.1815 34.7869C15.1815 33.69 15.9912 32.3973 17.1478 32.3973C17.8418 32.3973 18.2274 32.8282 18.2274 33.3374C18.2274 34.3168 17.1478 34.591 15.7984 34.5127C15.7599 34.7085 15.7984 35.0219 15.8755 35.257C16.0297 35.5704 16.2996 35.7271 16.6852 35.7271C17.1093 35.7271 17.4177 35.5704 17.6491 35.4529L17.7647 36.0013ZM17.0322 32.9065C16.4538 32.9065 16.0297 33.4941 15.8755 34.0426C16.8394 34.0426 17.572 33.9251 17.572 33.3374C17.572 33.0632 17.3792 32.9065 17.0322 32.9065ZM23.0854 30.7519L22.2757 35.0219C22.1986 35.4137 22.1215 35.8446 22.1215 36.158H21.5046L21.6203 35.4529C21.3118 36.0013 20.8106 36.2755 20.3479 36.2755C19.6154 36.2755 19.2684 35.6879 19.2684 34.9044C19.2684 33.6117 20.2323 32.3973 21.5046 32.3973C21.7359 32.3973 22.0058 32.4364 22.16 32.5148L22.4685 30.7519H23.0854ZM22.0444 33.0632C21.9287 32.9457 21.7359 32.9065 21.466 32.9065C20.6178 32.9065 19.8853 33.8075 19.8853 34.7869C19.8853 35.257 20.0781 35.7271 20.6178 35.7271C21.0805 35.7271 21.6974 35.1786 21.8516 34.356L22.0444 33.0632ZM26.8252 31.1045C27.1722 31.0262 27.5578 30.987 27.9048 30.987C28.4446 30.987 28.8301 31.1045 29.1 31.3395C29.3313 31.5746 29.4856 31.8488 29.4856 32.1622C29.4856 32.8282 28.9458 33.3374 28.406 33.4941C28.9072 33.6508 29.2542 34.0426 29.2542 34.6302C29.2542 35.1786 28.9843 35.5704 28.6759 35.8446C28.2903 36.158 27.712 36.2755 27.018 36.2755L25.9385 36.2364L26.8252 31.1045ZM26.6325 35.6879L27.1722 35.7271C27.9048 35.7271 28.6373 35.4137 28.6373 34.591C28.6373 33.9642 28.1361 33.69 27.5578 33.69H27.0566L26.6325 35.6879ZM27.0951 33.2199H27.5964C28.2903 33.2199 28.9072 32.8282 28.9072 32.2406C28.9072 31.7313 28.5217 31.5354 27.9819 31.5354L27.4421 31.5746L27.0951 33.2199ZM32.8784 36.2364L32.9941 35.2962C32.6086 36.0405 32.0688 36.3147 31.5676 36.3147C30.9507 36.3147 30.5651 35.7663 30.5651 35.1395C30.5651 33.8075 31.4904 32.5148 33.0712 32.5148C33.4182 32.5148 33.8423 32.554 34.0737 32.6715L33.6881 34.591C33.5724 35.257 33.5339 35.8838 33.5339 36.2755H32.8784V36.2364ZM33.3025 32.9457L32.8784 32.9065C31.9531 32.9065 31.1434 33.8859 31.1434 34.9044C31.1434 35.3353 31.2977 35.7271 31.7989 35.7271C32.3387 35.7271 32.917 35.0219 33.0712 34.0426L33.3025 32.9457ZM35.0761 36.2364L35.5773 33.6117L35.7315 32.5148H36.2713L36.1556 33.2199C36.4641 32.6715 36.9653 32.3973 37.5051 32.3973C37.9292 32.3973 38.4304 32.6715 38.4304 33.4158L38.3533 34.0426L37.9292 36.158H37.2738L37.6593 34.0426L37.6979 33.5333C37.6979 33.1807 37.5436 32.9065 37.1195 32.9065C36.6954 32.9065 36.04 33.4158 35.8858 34.356L35.5773 36.158H35.0761V36.2364ZM39.8184 36.2364L40.8208 30.8303H41.4377L40.7823 34.1993C40.898 34.0818 41.0522 33.9251 41.0907 33.8075L42.4016 32.5148H43.1342L41.5534 34.0426L42.5944 36.2364H41.9004L41.0522 34.4343L40.551 34.8652L40.2811 36.2755H39.8184V36.2364ZM46.0644 36.2364L46.6427 32.9849H46.18L46.2572 32.5148H46.7584L46.7969 32.2797C46.9126 31.7313 47.0668 31.3004 47.4138 30.987C47.6066 30.7519 47.9536 30.6344 48.262 30.6344C48.5319 30.6344 48.6861 30.7128 48.7633 30.7519L48.5705 31.2612C48.4934 31.1828 48.3777 31.1828 48.2235 31.1828C47.7223 31.1828 47.4524 31.6921 47.3367 32.2797V32.5148H48.1464L48.0307 32.9849H47.2596L46.6427 36.2364H46.0644ZM52.2332 33.9642C52.2332 35.1395 51.4236 36.3147 50.1898 36.3147C49.303 36.3147 48.8018 35.6096 48.8018 34.7869C48.8018 33.6117 49.65 32.4364 50.8452 32.4364C51.8091 32.3973 52.2332 33.1807 52.2332 33.9642ZM49.4573 34.7477C49.4573 35.3353 49.7657 35.7663 50.3055 35.7663C51.0766 35.7663 51.6164 34.7869 51.6164 33.9642C51.6164 33.5333 51.385 32.9457 50.7296 32.9457C49.997 32.9065 49.4573 33.8859 49.4573 34.7477ZM53.3899 36.2364L53.814 33.8075C53.9297 33.3374 53.9682 32.8282 54.0068 32.5148H54.5466L54.4695 33.3374C54.6622 32.8282 55.0863 32.4364 55.5876 32.4364H55.7418L55.6261 33.0632H55.4719C54.9321 33.0632 54.4695 33.69 54.2767 34.591L53.9682 36.2364H53.3899ZM59.5588 34.591L58.7491 36.2364H58.0937L60.754 31.1045H61.4865L62.2191 36.2364H61.5636L61.3323 34.591H59.5588ZM61.2938 34.0426L61.0624 32.554C61.0239 32.2797 61.0239 31.888 60.9468 31.6138L60.5226 32.554L59.7901 34.0426H61.2938ZM63.4914 36.2364L64.0697 32.9849H63.6071L63.7227 32.5148H64.1854L64.2625 32.2797C64.3396 31.7313 64.5324 31.3004 64.8408 30.987C65.0336 30.7519 65.3806 30.6344 65.6891 30.6344C65.959 30.6344 66.1132 30.7128 66.1903 30.7519L66.0361 31.2612C65.9204 31.1828 65.8047 31.1828 65.6505 31.1828C65.1493 31.1828 64.8794 31.6921 64.8023 32.2797L64.7252 32.4364H65.5348L65.4192 32.9457H64.6095L64.0312 36.158H63.4914V36.2364ZM66.2288 36.2364L66.6529 33.8075L66.8843 32.5148H67.4241L67.3084 33.3374C67.5397 32.8282 67.9638 32.4364 68.4265 32.4364H68.6193L68.5036 33.0632H68.3494C67.8096 33.0632 67.3084 33.69 67.1542 34.591L66.8457 36.2364H66.2288ZM69.3133 36.2364L70.0073 32.5148H70.6627L69.9687 36.2364H69.3133ZM70.1229 31.4571C70.1229 31.2612 70.2772 31.0262 70.547 31.0262C70.7398 31.0262 70.9326 31.1828 70.9326 31.4179C70.9326 31.6921 70.7398 31.8488 70.4699 31.8488C70.2772 31.8488 70.1229 31.6921 70.1229 31.4571ZM74.2098 36.0405C73.9785 36.158 73.5929 36.2755 73.1303 36.2755C72.1664 36.2755 71.7423 35.6096 71.7423 34.8652C71.7423 33.6117 72.629 32.4364 73.9399 32.4364C74.2484 32.4364 74.5954 32.554 74.6725 32.6323L74.5182 33.1024C74.364 33.0632 74.2098 32.9457 73.9399 32.9457C72.976 32.9457 72.3591 33.8859 72.3591 34.7477C72.3591 35.3353 72.7061 35.7271 73.2845 35.7271C73.67 35.7271 73.9399 35.6096 74.1327 35.492L74.2098 36.0405ZM77.8726 36.2364L77.9497 35.2962C77.6027 36.0405 77.0629 36.3147 76.5617 36.3147C75.9062 36.3147 75.5592 35.7663 75.5592 35.1395C75.5592 33.8075 76.446 32.5148 78.0653 32.5148C78.4123 32.5148 78.8364 32.554 79.0292 32.6715L78.6822 34.591C78.5666 35.257 78.4894 35.8838 78.4894 36.2755H77.8726V36.2364ZM78.2967 32.9457L77.8726 32.9065C76.9472 32.9065 76.1376 33.8859 76.1376 34.9044C76.1376 35.3353 76.2918 35.7271 76.793 35.7271C77.3328 35.7271 77.9111 35.0219 78.0653 34.0426L78.2967 32.9457ZM15.6442 9.08847L13.3309 19.979C12.6369 22.3294 11.3645 23.9748 8.66566 24.0923C6.35234 24.0923 5.42701 22.5253 6.00534 19.2346L8.04878 9.08847H4.6559L2.30403 20.7233C1.87992 25.1892 4.46313 26.4427 8.39578 26.3252C12.1356 26.2077 14.7189 24.484 16.184 21.0367L18.7672 9.08847H15.6442ZM44.2137 14.5729L45.5632 20.214H40.551L44.2137 14.5729ZM45.2547 9.08847L33.8809 25.9335H36.9653L39.1244 22.682H46.2186L46.9126 25.9335H50.5754L46.527 9.08847H45.2547ZM56.3201 26.051H62.836C68.6964 25.7768 69.9687 23.0737 68.0795 18.5687L60.9468 4.42671L56.3201 26.051ZM72.3206 0C66.4602 0.274221 65.2264 3.01643 67.1156 7.48232L74.2098 21.6243L78.8364 0H72.3206ZM23.2396 23.8181L24.4348 18.1378H25.7843C27.7506 18.1378 29.4085 18.8429 29.4085 20.7233C29.4085 22.9954 27.2108 23.9356 24.7433 23.9356L23.2396 23.8181ZM25.8228 11.2431H27.4421C29.2157 11.2431 30.2952 11.674 30.2952 13.1234C30.2952 14.8471 28.6759 15.944 26.2469 15.944H24.8975L25.8228 11.2431ZM23.2396 9.08847L22.9697 9.12764L19.5383 26.0118H26.1312C28.3675 26.0118 29.6398 25.385 30.488 24.8758C31.8374 23.9748 32.8013 22.5253 33.1483 20.7624C33.5724 18.3728 31.9531 17.1192 29.9482 16.9234C31.9917 16.4533 33.7267 14.9255 33.8423 12.7317C34.1122 9.08847 30.0639 9.08847 30.0639 9.08847H23.2396Z" fill="#D71920"/>
</g>
<defs>
<clipPath id="clip0_895_610">
<rect width="79" height="36.2755" fill="white"/>
</clipPath>
</defs>
</svg>
