<svg width="90" height="90" viewBox="0 0 90 90" fill="none" xmlns="http://www.w3.org/2000/svg">
<path d="M26.8986 35.1C25.9707 35.01 25.0671 35.2296 24.1599 35.3547C24.0816 35.271 24.1509 35.2089 24.1833 35.1558C26.3865 31.5495 29.4303 29.0925 33.6477 28.2483C35.1328 27.9459 36.6578 27.8929 38.1603 28.0917C38.7651 28.1736 39.3123 27.9513 39.8856 27.8667C40.4337 27.7857 40.5417 27.8667 40.2663 28.3455C39.7263 29.2851 40.0521 30.2031 40.2042 31.1355C40.4706 32.7585 40.7493 34.38 41.0403 36C41.0934 36.3006 41.0322 36.5292 40.8153 36.7263C40.4013 37.1034 40.0458 37.5804 39.3519 37.3509C38.9019 37.2033 38.5563 37.0215 38.5419 36.4842C38.5353 36.364 38.4909 36.2491 38.415 36.1557C37.8057 35.4555 37.2072 34.7418 36.4692 34.1685C36.0327 33.8292 35.7816 33.876 35.4693 34.3413C35.1156 34.8678 34.9212 35.4699 34.6935 36.0558C34.1535 37.4373 33.6225 38.8197 32.7432 40.0356C32.5686 40.2768 32.3967 40.3839 32.0799 40.3533C30.8764 40.2283 29.6651 40.1947 28.4565 40.2525C28.4817 40.419 28.5906 40.4145 28.6968 40.428C29.8857 40.5738 31.0728 40.7268 32.2617 40.8699C33.1986 40.9833 33.7917 41.9661 33.4101 42.8202C32.6559 44.4671 31.8116 46.0712 30.8811 47.6253C30.7633 47.8348 30.5902 48.0079 30.3807 48.1257C29.8839 48.4017 29.3898 48.6831 28.8984 48.9699C28.7022 49.0842 28.5735 49.0599 28.4745 48.8421C28.246 48.35 28.1603 47.8037 28.227 47.2653C28.2711 46.9134 28.8507 46.6353 29.2791 46.7298C29.811 46.8495 30.054 46.6506 30.0315 46.0998C30.0207 45.8406 30.1458 45.6381 30.2709 45.4365C30.6984 44.7507 31.1376 44.0721 31.566 43.3863C31.656 43.2396 31.8252 43.0812 31.7091 42.9021C31.593 42.723 31.3806 42.777 31.2069 42.7923C30.4068 42.8625 29.6256 42.9219 28.8669 43.2882C27.5781 43.9092 26.1669 44.1621 24.7548 44.3574C22.9206 44.6103 21.0567 44.5869 19.209 44.9604C19.2684 44.1234 19.3458 43.317 19.2036 42.4233C18.9867 42.6861 18.9723 42.9093 18.9471 43.1226C18.6366 45.7965 17.1588 47.7324 15.0528 49.2642C13.7725 50.1853 12.3231 50.845 10.7877 51.2055C9.71399 51.4674 8.94719 52.0587 8.41619 53.0298C7.81229 54.1341 7.34339 55.3077 6.71789 56.3958C6.06359 57.5352 5.05829 58.2642 3.73079 58.4712C3.05399 58.5765 2.94599 58.4388 3.14489 57.7818C3.22769 57.5118 3.33299 57.2418 3.42839 56.9772C3.64439 56.367 3.92069 55.8522 4.71989 55.9512C5.02139 55.989 5.18429 55.7712 5.29049 55.4841C5.90339 53.8281 6.54059 52.182 7.14809 50.5242C7.19088 50.3825 7.26671 50.2529 7.36936 50.1462C7.472 50.0395 7.59851 49.9587 7.73849 49.9104C8.45849 49.6404 9.17849 49.3893 9.87509 49.0896C11.0793 48.5757 11.4231 48.0096 11.3394 46.7172C11.2701 45.6273 11.1333 44.5383 11.3655 43.4511C11.829 41.2722 13.2555 39.87 15.1113 38.8224C16.7727 37.8864 18.597 37.4058 20.4213 36.9324C22.4211 36.4188 24.4197 35.9013 26.4171 35.3799C26.5863 35.3358 26.751 35.2773 26.9175 35.226L26.8986 35.1Z" fill="#03B1F0"/>
<path d="M45.2034 54.8172C47.3076 54.8172 48.9519 56.4372 48.9366 58.4865C48.9204 60.5628 47.2554 62.1765 45.1458 62.1612C43.0605 62.1459 41.4432 60.5529 41.4414 58.5108C41.4396 56.43 43.0893 54.81 45.2034 54.8172ZM43.0497 58.4487C43.0443 59.7627 43.9434 60.7365 45.171 60.7455C46.4256 60.7545 47.3418 59.8086 47.3418 58.5036C47.3418 57.222 46.4022 56.2338 45.1818 56.2275C43.938 56.2212 43.0551 57.1428 43.0497 58.4487V58.4487Z" fill="#06B4F1"/>
<path d="M31.1164 55.9998C31.5934 55.3815 32.1244 54.9801 32.8435 54.8541C34.369 54.5841 35.6776 55.5336 35.7559 57.0798C35.827 58.4829 35.7892 59.8923 35.7784 61.299C35.7784 61.7688 35.4562 62.0352 34.9909 62.0316C34.5256 62.028 34.2079 61.7517 34.189 61.2513C34.1674 60.6537 34.1827 60.0543 34.1818 59.4513C34.1818 58.9275 34.1917 58.4028 34.1746 57.8799C34.1422 56.8521 33.5995 56.268 32.6941 56.2671C31.7635 56.2671 31.1209 56.8971 31.0984 57.9006C31.0741 58.9923 31.0984 60.0858 31.0867 61.1784C31.0822 61.7184 30.8005 62.0136 30.3109 62.0253C29.8213 62.037 29.4955 61.7553 29.4928 61.2738C29.4802 59.403 29.4802 57.5319 29.4928 55.6605C29.4889 55.4627 29.5625 55.2713 29.6979 55.1272C29.8333 54.983 30.0198 54.8976 30.2173 54.8892C30.4211 54.8737 30.6231 54.9357 30.783 55.0629C30.9429 55.1901 31.0488 55.373 31.0795 55.575C31.0993 55.6902 31.1002 55.8 31.1164 55.9998Z" fill="#06B4F1"/>
<path d="M52.3663 55.9746C53.0935 55.026 53.9953 54.6561 55.1221 54.882C56.1796 55.0944 56.9437 55.9269 56.9752 57.0132C57.0157 58.4487 56.9968 59.886 56.9896 61.3224C56.9896 61.758 56.6719 62.0496 56.2489 62.0613C56.1476 62.0666 56.0463 62.0519 55.9507 62.018C55.8551 61.9841 55.7672 61.9316 55.6919 61.8636C55.6167 61.7957 55.5556 61.7135 55.5122 61.6218C55.4687 61.5302 55.4438 61.4309 55.4389 61.3296C55.4083 60.7626 55.4281 60.1929 55.4227 59.6196C55.4164 58.9617 55.4416 58.3011 55.3885 57.6468C55.3192 56.7936 54.8161 56.3229 54.0106 56.2707C53.2051 56.2185 52.5949 56.6766 52.3906 57.465C52.261 57.9672 52.333 58.4775 52.324 58.9842C52.3114 59.7042 52.324 60.4242 52.3195 61.1388C52.3195 61.7049 51.9865 62.0667 51.5005 62.0568C51.0352 62.0487 50.7175 61.6968 50.7157 61.1487C50.7094 59.3982 50.7157 57.6468 50.7157 55.8963C50.7157 55.26 50.9929 54.9063 51.487 54.8874C51.9811 54.8685 52.2781 55.2015 52.3249 55.8333C52.3347 55.8815 52.3485 55.9287 52.3663 55.9746Z" fill="#05B3F1"/>
<path d="M25.696 61.0434C25.5529 61.0668 25.5106 61.1748 25.4467 61.2504C24.6916 62.1504 23.5819 62.2881 22.5343 61.9515C21.6001 61.6509 21.0439 60.741 21.0358 59.6115C21.0268 58.3236 21.0304 57.0348 21.0358 55.7469C21.0358 55.2069 21.3265 54.8991 21.8035 54.8937C22.2976 54.8883 22.6189 55.2114 22.6252 55.7559C22.6351 56.7144 22.6252 57.6729 22.6252 58.6359C22.6252 58.8159 22.6252 58.9959 22.6378 59.1759C22.7008 60.1326 23.2462 60.6708 24.1417 60.6663C25.0372 60.6618 25.6717 60.0687 25.7014 59.1489C25.7356 58.041 25.7176 56.9322 25.7158 55.8189C25.7158 55.3842 25.8688 55.0485 26.3053 54.9189C26.8453 54.7578 27.3151 55.1331 27.3178 55.7289C27.325 57.5415 27.325 59.3541 27.3178 61.1667C27.3178 61.6914 27.0163 62.0361 26.5654 62.0568C26.1145 62.0775 25.7932 61.7661 25.7185 61.2468C25.7122 61.1838 25.705 61.1154 25.696 61.0434Z" fill="#06B4F1"/>
<path d="M0.423559 47.8548C0.319926 47.4019 0.34613 46.929 0.499159 46.4904C1.26776 44.0838 3.04346 42.8598 5.39696 42.3126C6.25016 42.1146 7.11686 42.0975 7.98536 42.1191C9.08786 42.1461 10.1679 42.066 11.1768 41.5647C11.2722 41.517 11.3865 41.4558 11.4693 41.5386C11.571 41.6403 11.445 41.7267 11.3937 41.8086C11.1206 42.202 10.9003 42.6296 10.7385 43.0803C10.653 43.3314 10.4361 43.3998 10.2435 43.4997C8.29226 44.5095 6.20966 45.1395 4.07666 45.6372C3.33236 45.8118 2.60336 46.0269 1.92656 46.3932C1.29074 46.7192 0.767226 47.2283 0.423559 47.8548V47.8548Z" fill="#05B3F1"/>
<path d="M35.4768 41.0256C35.1636 41.0526 34.8387 41.0355 34.5408 41.1156C33.9675 41.2722 33.5814 40.9896 33.1908 40.6548C33.0783 40.5594 33.0936 40.4955 33.1548 40.3956C33.2718 40.2039 33.3879 40.0122 33.4977 39.8169C34.0278 38.8773 34.0278 38.8746 35.1096 39.0069C35.763 39.0861 36.4155 39.1734 37.068 39.258C37.7682 39.348 38.3145 40.2318 38.031 40.8825C37.3636 42.4382 36.5682 43.9358 35.6532 45.36C35.2473 45.9837 34.4634 46.1826 33.8262 46.53C33.6903 46.6047 33.6174 46.4526 33.5688 46.3455C33.3714 45.9225 33.2954 45.4529 33.3492 44.9892C33.3906 44.6625 33.8712 44.406 34.2717 44.4762C34.8027 44.5662 34.9593 44.4411 34.9656 43.8912C34.9656 43.6671 35.0754 43.4898 35.1852 43.3134C35.5659 42.7041 35.9583 42.1029 36.3354 41.4918C36.5784 41.0994 36.5262 41.0157 36.06 41.0076C35.9556 41.0076 35.8512 41.0121 35.7459 41.0166C35.6559 41.0166 35.5659 41.0283 35.4759 41.0346L35.4768 41.0256Z" fill="#06B4F1"/>
<path d="M60.258 56.4777C60.9357 55.5543 61.788 54.9477 62.9688 54.9549C63.8032 54.9518 64.605 55.2789 65.199 55.8648C66.5319 57.1446 66.639 59.499 65.424 60.9003C64.974 61.4241 64.4169 61.8084 63.7392 61.9524C63.0944 62.1067 62.4184 62.0682 61.7952 61.8417C61.1481 61.5942 60.6855 61.1154 60.1536 60.6339C60.1536 60.8967 60.1536 61.1595 60.1536 61.4223C60.1536 61.6653 60.1761 61.9497 59.8233 61.9362C59.5182 61.9245 59.5128 61.6716 59.5137 61.4349C59.5137 60.6564 59.5137 59.8779 59.5137 59.0949C59.5137 57.3273 59.5137 55.56 59.5137 53.793C59.5137 53.6733 59.5137 53.5536 59.5182 53.433C59.5308 53.2431 59.6343 53.1153 59.826 53.1135C60.0456 53.1135 60.1356 53.2476 60.1365 53.4645C60.1365 54.288 60.1464 55.1115 60.1518 55.935C60.1518 56.0952 60.1518 56.2554 60.1518 56.4156L60.258 56.4777ZM65.5626 58.5C65.5518 56.79 64.4277 55.5669 62.877 55.5768C61.3263 55.5867 60.1203 56.88 60.1257 58.5279C60.1311 60.1758 61.3632 61.4484 62.9157 61.4466C64.4826 61.4448 65.5734 60.2325 65.5626 58.5Z" fill="#0AB8F2"/>
<path d="M72.8996 60.8031C71.7629 62.1621 70.223 62.2431 69.0764 61.8201C68.1305 61.47 67.6643 60.7671 67.6832 59.8401C67.7012 58.9545 68.2142 58.2768 69.1421 57.9501C70.2572 57.5514 71.3921 57.663 72.5081 57.9096C72.8456 57.9834 72.9149 57.9222 72.905 57.5928C72.8699 56.4561 72.1571 55.7145 70.9826 55.629C70.2624 55.5769 69.5404 55.7037 68.8811 55.998C68.6687 56.088 68.4311 56.2077 68.3141 55.908C68.1971 55.6083 68.4464 55.5228 68.6588 55.4355C69.5588 55.0647 70.4939 54.9063 71.4686 55.0809C72.6872 55.2996 73.4855 56.1609 73.5179 57.3957C73.5548 58.7718 73.5296 60.1506 73.5332 61.5276C73.5332 61.7427 73.4882 61.9371 73.238 61.9488C72.9599 61.9623 72.896 61.7634 72.8996 61.5267C72.8996 61.3143 72.8996 61.11 72.8996 60.8031ZM71.0996 58.2894C70.3058 58.2741 69.7676 58.2894 69.2663 58.5288C68.7263 58.7844 68.3924 59.193 68.3717 59.814C68.351 60.4503 68.6417 60.9138 69.1997 61.1865C70.1393 61.6446 71.0636 61.5267 71.9402 61.0146C72.7628 60.5349 72.9824 59.7627 72.923 58.8609C72.9077 58.6341 72.833 58.5486 72.6224 58.5009C72.0293 58.3821 71.4398 58.2903 71.0924 58.2894H71.0996Z" fill="#0AB8F2"/>
<path d="M86.4624 58.6053C85.9368 59.1201 85.4382 59.6151 84.9324 60.1011C84.7974 60.2307 84.7776 60.3792 84.7803 60.5511C84.7803 60.8958 84.7803 61.2405 84.7803 61.5843C84.7803 61.7985 84.6903 61.9308 84.4617 61.9263C84.2331 61.9218 84.1458 61.7877 84.1431 61.5771C84.1431 61.5168 84.1431 61.4574 84.1431 61.3971C84.1431 58.8357 84.1431 56.274 84.1431 53.712C84.1379 53.6072 84.1409 53.5022 84.1521 53.3979C84.1567 53.3215 84.1908 53.2499 84.2472 53.1982C84.3037 53.1465 84.378 53.1187 84.4545 53.1207C84.4961 53.1171 84.5379 53.1227 84.5772 53.137C84.6164 53.1514 84.652 53.1742 84.6814 53.2038C84.7108 53.2334 84.7334 53.2691 84.7475 53.3084C84.7617 53.3477 84.767 53.3896 84.7632 53.4312C84.7695 53.6859 84.7794 53.9397 84.7794 54.1944C84.7794 55.7676 84.7794 57.3408 84.7794 58.914V59.3568C84.9936 59.3325 85.062 59.184 85.1592 59.0868C86.3184 57.8946 87.4746 56.6997 88.6278 55.5021C88.7115 55.4121 88.797 55.332 88.8789 55.2447C89.0283 55.0836 89.2092 54.999 89.3874 55.1601C89.5809 55.3356 89.4657 55.5102 89.3172 55.6614C88.8546 56.1312 88.3902 56.5992 87.9303 57.0708C87.5955 57.4137 87.0375 57.7368 86.997 58.113C86.952 58.5297 87.5244 58.8915 87.8268 59.2776C88.3542 59.949 88.8969 60.6078 89.4369 61.2693C89.5863 61.4493 89.7456 61.6743 89.5386 61.857C89.3118 62.0577 89.1066 61.8831 88.9401 61.677C88.1175 60.6447 87.2868 59.6232 86.4624 58.6053Z" fill="#0AB8F2"/>
<path d="M76.4769 56.178C77.2167 55.2501 78.1392 54.855 79.2939 54.9756C80.607 55.1115 81.5575 56.0376 81.6097 57.3579C81.6646 58.7484 81.6303 60.1425 81.6357 61.5348C81.6357 61.7526 81.5862 61.929 81.3198 61.9245C81.03 61.9191 80.994 61.7202 80.994 61.4907C80.994 60.3375 80.994 59.1843 80.994 58.0311C81.0003 57.8067 80.9888 57.5823 80.9598 57.3597C80.7672 56.1708 79.9239 55.4895 78.7278 55.5435C77.5047 55.5984 76.5345 56.5263 76.4922 57.753C76.4535 58.8897 76.4805 60.0282 76.4787 61.1667C76.4787 61.2864 76.4787 61.4061 76.4787 61.5267C76.4787 61.7409 76.4274 61.9191 76.1637 61.9254C75.9 61.9317 75.8289 61.7724 75.8271 61.5483C75.8271 61.488 75.8271 61.4286 75.8271 61.3683V55.6623C75.8271 55.5876 75.8271 55.5129 75.8271 55.4382C75.8388 55.2402 75.9045 55.0782 76.1367 55.0782C76.3896 55.0782 76.467 55.2483 76.4733 55.4643C76.4823 55.7001 76.4769 55.9386 76.4769 56.178Z" fill="#0AB8F2"/>
<path d="M39.5656 58.4748C39.5656 59.3748 39.5656 60.2694 39.5656 61.1667C39.5656 61.7256 39.3082 62.0109 38.8168 62.0307C38.3047 62.0505 37.9753 61.7607 37.9708 61.2045C37.9576 59.3805 37.9576 57.5559 37.9708 55.7307C37.9753 55.2096 38.3182 54.8883 38.7754 54.8919C39.2551 54.8919 39.5602 55.2321 39.5638 55.7829C39.5701 56.6802 39.5656 57.5775 39.5656 58.4748Z" fill="#06B4F1"/>
<path d="M9.19965 55.5444C9.01966 55.5687 8.91616 55.4166 9.01966 55.1052C9.11865 54.8082 9.23295 54.5157 9.33105 54.2178C9.48855 53.7363 9.74505 53.4078 10.3211 53.4366C10.6226 53.4519 10.8224 53.2773 10.8791 52.965C11.0501 52.0173 11.573 51.4035 12.5279 51.1533C12.8249 51.0759 13.0913 50.8833 13.373 50.7438C13.4504 50.7051 13.5305 50.6295 13.6178 50.6988C13.7051 50.7681 13.6439 50.8617 13.6052 50.9373C13.0652 52.0047 12.6152 53.1333 11.8952 54.0819C11.2814 54.8829 10.4399 55.4634 9.19965 55.5444Z" fill="#06B4F1"/>
</svg>
