<svg width="74" height="74" viewBox="0 0 74 74" fill="none" xmlns="http://www.w3.org/2000/svg">
<path d="M41.292 40.8258C41.3231 40.7688 41.3483 40.7089 41.3757 40.6504L51.3131 19.0528C51.3945 18.8767 51.4767 18.7013 51.5566 18.5244C51.5847 18.4637 51.6128 18.4105 51.6942 18.4112C51.877 18.4112 52.0605 18.4112 52.2692 18.4112C52.2233 18.5222 52.1952 18.6043 52.1567 18.6835C48.6136 26.4081 45.0707 34.1325 41.5281 41.8566C41.3868 42.1645 41.241 42.4716 41.1048 42.7816C40.9849 43.0554 41.0027 43.3218 41.201 43.5542C41.2873 43.6626 41.4029 43.744 41.5341 43.7886C41.6653 43.8332 41.8065 43.8392 41.941 43.8058C42.237 43.7458 42.385 43.5409 42.5005 43.2878C46.0362 35.5933 49.5707 27.9002 53.1039 20.2087C53.4414 19.4746 53.7699 18.7383 54.1177 18.0072C54.3086 17.6016 54.154 17.0311 53.6212 16.9208V16.872H50.9527C50.9553 16.8795 50.9563 16.8875 50.9555 16.8954C50.9547 16.9033 50.9523 16.911 50.9483 16.9179C50.6582 16.9815 50.5043 17.1865 50.3852 17.4359C49.9905 18.2953 49.5958 19.1544 49.2012 20.0133C46.3951 26.1375 43.586 32.2603 40.774 38.3816C40.7341 38.4696 40.6919 38.5562 40.6438 38.6583C40.5328 38.5843 40.5313 38.4615 40.4714 38.3749C40.2657 38.0789 40.316 37.8059 40.4647 37.4825C43.3596 31.1861 46.2456 24.886 49.1227 18.5821C49.213 18.3838 49.3062 18.1862 49.3958 17.9901C49.6074 17.5195 49.3817 17.0489 48.8822 16.9134C48.8798 16.8993 48.8742 16.8859 48.8659 16.8742H46.25C46.2541 16.8895 46.252 16.9057 46.2441 16.9194C45.9555 16.9778 45.7846 17.1687 45.6677 17.424C45.2168 18.4082 44.7651 19.392 44.3127 20.3752L38.3668 33.3252C38.3394 33.3836 38.3113 33.4413 38.2743 33.5168C38.1544 33.3895 38.1263 33.2267 38.0449 33.0972C37.8925 32.856 37.9169 32.6407 38.0375 32.3794C40.2151 27.6637 42.3858 22.9449 44.5495 18.2232C44.642 18.022 44.7116 17.8214 44.6605 17.5928C44.6319 17.4451 44.5578 17.3101 44.4486 17.2067C44.3394 17.1033 44.2005 17.0368 44.0515 17.0163C43.9631 17.0058 43.8741 17.0016 43.7851 17.0037C43.1058 17.0037 42.4265 17.0163 41.7479 16.9985C41.3083 16.9867 41.0367 17.1747 40.8599 17.5654C39.668 20.1722 38.4714 22.7777 37.2701 25.382C36.8454 26.307 36.4206 27.232 35.9959 28.157C35.9663 28.2229 35.9307 28.2858 35.8819 28.3827C35.7635 28.1237 35.6599 27.8913 35.5496 27.6582C35.5089 27.5687 35.5718 27.5028 35.6037 27.4362C35.9544 26.6637 36.3069 25.8921 36.6611 25.1215C37.7307 22.7861 38.8 20.4504 39.869 18.1145C40.017 17.7933 39.9734 17.4744 39.7528 17.2361C39.6922 17.1651 39.617 17.1079 39.5324 17.0683C39.4477 17.0287 39.3556 17.0077 39.2622 17.0067C38.4615 17.0067 37.6609 17 36.8602 17.0067C36.5161 17.0067 36.2933 17.2102 36.1542 17.5128L35.355 19.2526C34.7793 20.5076 34.2028 21.7614 33.6256 23.014C33.5968 23.0776 33.5842 23.1546 33.5035 23.2012L32.9049 21.904C32.2544 20.4876 31.5988 19.0728 30.9579 17.652C30.8099 17.3182 30.6353 17.0252 30.2853 16.8742H29.9456C29.8842 16.9541 29.7813 16.9675 29.7044 17.0222C29.4535 17.2028 29.3277 17.4388 29.3655 17.7511C29.3878 17.862 29.427 17.9688 29.4816 18.0678C30.5176 20.3303 31.5536 22.592 32.5896 24.8529C32.6243 24.9151 32.6431 24.9849 32.6445 25.0561C32.646 25.1273 32.6299 25.1978 32.5978 25.2614C31.3393 27.989 30.0847 30.7179 28.8341 33.448C28.8152 33.5093 28.7814 33.565 28.7357 33.6101C28.6744 33.5295 28.6264 33.4395 28.5936 33.3437C26.1827 28.0956 23.7721 22.847 21.3616 17.5979C21.3242 17.5087 21.2797 17.4226 21.2284 17.3404C21.0064 17.0089 20.6039 16.8964 20.2731 17.074C19.8883 17.2783 19.7447 17.666 19.9112 18.0582C19.9401 18.1256 19.9719 18.1907 20.0015 18.2573L27.955 35.6177C27.9864 35.6935 28.0218 35.7676 28.0608 35.8397C28.362 36.3577 29.0376 36.371 29.3595 35.87C29.4169 35.7727 29.4675 35.6715 29.5112 35.5674L33.3851 27.158C33.415 27.0708 33.459 26.989 33.5154 26.916C33.6286 27.0781 33.6789 27.2675 33.7751 27.434C33.8536 27.5687 33.8351 27.6849 33.7714 27.8203C33.4355 28.5374 33.1054 29.2581 32.7783 29.9774C31.5943 32.5541 30.4103 35.1308 29.2263 37.7074C29.175 37.8086 29.148 37.9203 29.1473 38.0337C29.1467 38.1471 29.1725 38.2591 29.2226 38.3609C29.2855 38.4926 29.3455 38.625 29.4054 38.7575C29.7214 39.4568 30.0389 40.1554 30.3511 40.8561C30.4562 41.0915 30.6146 41.2609 30.8691 41.326C31.2784 41.4304 31.6173 41.2691 31.8023 40.8724C32.1871 40.0444 32.5667 39.2148 32.9485 38.3853C33.8859 36.3449 34.8247 34.3049 35.765 32.2655C35.7953 32.1996 35.8057 32.1175 35.8937 32.0746C35.9729 32.247 36.0366 32.4142 36.1231 32.5681C36.2097 32.7221 36.1927 32.8442 36.1231 32.9973C34.6357 36.2321 33.1503 39.4689 31.6669 42.7076C31.6299 42.7883 31.5892 42.8682 31.5603 42.9518C31.524 43.049 31.5089 43.1528 31.5161 43.2563C31.5233 43.3597 31.5526 43.4605 31.602 43.5517C31.6515 43.6428 31.7199 43.7224 31.8027 43.7848C31.8855 43.8473 31.9808 43.8913 32.082 43.9138C32.4409 44.0063 32.7761 43.8398 32.9478 43.4698C33.3425 42.6188 33.7337 41.7673 34.1214 40.9153C35.0529 38.8897 35.9848 36.8643 36.9172 34.8392C36.9512 34.7652 36.9616 34.6697 37.0607 34.6261C37.1192 34.7511 37.1739 34.8681 37.228 34.985C37.3397 35.227 37.444 35.4734 37.5654 35.7102C37.6248 35.8356 37.7182 35.9418 37.8351 36.0166C37.9519 36.0915 38.0875 36.132 38.2262 36.1335C38.5304 36.1446 38.7442 35.9855 38.8996 35.7331C38.9431 35.6556 38.9824 35.5758 39.0173 35.4941L46.2944 19.684C46.4666 19.3096 46.6393 18.9354 46.8124 18.5614C46.8465 18.4874 46.8694 18.4068 46.976 18.4134C47.1521 18.4216 47.3297 18.3979 47.5095 18.429C47.5169 18.557 47.4429 18.651 47.3978 18.7494C45.0959 23.7725 42.7925 28.7946 40.4877 33.8158C39.908 35.0787 39.3281 36.3414 38.7479 37.6038C38.6999 37.6932 38.6725 37.7921 38.6677 37.8933C38.6628 37.9946 38.6806 38.0957 38.7198 38.1892C39.1145 39.0668 39.5106 39.9427 39.9082 40.8169C40.0437 41.1129 40.2908 41.2424 40.6105 41.2446C40.7526 41.2492 40.893 41.2119 41.0141 41.1374C41.1352 41.063 41.2319 40.9546 41.292 40.8258V40.8258ZM34.4248 24.8877C34.7332 24.2128 35.0435 23.5382 35.3558 22.8638C35.9914 21.4852 36.63 20.108 37.2576 18.7257C37.3316 18.5585 37.4233 18.4919 37.6017 18.5126C37.7451 18.5202 37.8889 18.5202 38.0323 18.5126L34.692 25.7942C34.5706 25.5315 34.4752 25.3206 34.3767 25.1119C34.336 25.0246 34.396 24.958 34.4278 24.8877H34.4248ZM34.9628 30.3992C34.5188 31.3686 34.0748 32.337 33.6308 33.3044C32.841 35.0282 32.0507 36.7533 31.2599 38.48C31.2169 38.574 31.1725 38.6665 31.1156 38.7886C31.0995 38.7717 31.0847 38.7536 31.0712 38.7346C30.9683 38.5066 30.8048 38.2854 30.7811 38.0493C30.7589 37.8273 30.9417 37.6194 31.0386 37.4077C32.2098 34.8429 33.3829 32.28 34.558 29.7191C34.5883 29.625 34.6388 29.5386 34.706 29.4661C34.817 29.7088 34.928 29.9404 35.0287 30.1735C35.0642 30.2593 35.002 30.3282 34.9658 30.3992H34.9628ZM37.0585 30.9498C36.9401 30.6937 36.8476 30.488 36.7492 30.2838C36.6974 30.1765 36.7588 30.0951 36.798 30.01C37.1784 29.1797 37.5602 28.3504 37.9435 27.5221C39.2874 24.6016 40.631 21.6808 41.9743 18.7597C41.998 18.7087 42.0246 18.6584 42.0483 18.6058C42.0589 18.5759 42.0792 18.5505 42.1061 18.5337C42.133 18.5169 42.1648 18.5097 42.1963 18.5133C42.3732 18.5133 42.5493 18.5133 42.7624 18.5133L37.0585 30.9498Z" fill="#990D81"/>
<path d="M12.2538 50.3377L10.2277 55.8611L9.58903 57.5557C9.58089 57.5786 8.30735 57.6253 8.30735 57.6253C8.30258 57.5938 8.29516 57.5629 8.28515 57.5328C7.69513 56.0735 7.10411 54.6144 6.51211 53.1557C6.49509 53.1135 6.48769 53.0632 6.43219 53.0506C6.42322 53.0644 6.41507 53.0787 6.40777 53.0935L4.57183 57.6253H3.31383C3.33085 57.5305 3.27535 57.4536 3.24575 57.3722C2.91078 56.4694 2.57556 55.5688 2.24009 54.6704C1.78277 53.4371 1.32521 52.2052 0.867393 50.9749L0.861473 50.9586L0.666112 50.4384L0.632812 50.3481C1.16857 50.3481 1.70581 50.3481 2.24157 50.3348C2.38291 50.3348 2.41547 50.4088 2.45469 50.5139C2.82173 51.4793 3.1905 52.4445 3.56099 53.4095C3.70011 53.7691 3.83849 54.1288 3.99611 54.538C4.04125 54.4359 4.07011 54.3752 4.09453 54.316C4.60415 53.0644 5.11401 51.8143 5.62411 50.5657C5.73215 50.3022 5.67517 50.3437 5.97117 50.3385C6.34117 50.3385 6.71117 50.3385 7.08635 50.3385C7.30021 50.3385 7.30095 50.3385 7.38235 50.5398C7.86927 51.7874 8.35595 53.0355 8.84237 54.2842C8.87049 54.3582 8.90379 54.4322 8.95189 54.5446C8.99407 54.4455 9.02589 54.3848 9.04661 54.3226L10.5399 50.5642C10.6295 50.3377 10.6302 50.3377 10.8626 50.3377H12.2538Z" fill="#990D81"/>
<path d="M29.1394 54.9613C29.1394 53.467 29.1394 51.9724 29.1394 50.4776C29.1394 50.263 29.1394 50.2615 28.9292 50.2608C28.4852 50.2608 28.0412 50.2719 27.5972 50.2549C27.3863 50.2467 27.2686 50.3104 27.1606 50.4991C26.482 51.6831 25.7894 52.8589 25.0997 54.0363C25.0575 54.1103 25.0309 54.1946 24.9399 54.2457C24.8918 54.1636 24.8496 54.0977 24.8111 54.0237C24.1451 52.8308 23.4836 51.6394 22.8272 50.4428C22.802 50.3807 22.7572 50.3286 22.6996 50.2944C22.642 50.2601 22.5748 50.2458 22.5082 50.2534C22.0235 50.2652 21.5388 50.2534 21.0541 50.2586C20.7433 50.2586 20.7722 50.2216 20.7722 50.5457C20.7722 52.7514 20.7722 54.9571 20.7722 57.1628C20.7722 57.316 20.7759 57.4699 20.7781 57.6231H22.3321V53.2978C22.4106 53.314 22.4217 53.3651 22.4431 53.4043C23.2009 54.7556 23.9581 56.107 24.7149 57.4588C24.7326 57.4945 24.7479 57.5313 24.7608 57.569C24.8311 57.6112 24.8599 57.5624 24.8903 57.5113L25.372 56.6973C26.0134 55.612 26.6559 54.5289 27.2997 53.448C27.3339 53.3624 27.3919 53.2884 27.467 53.2349V53.4317C27.467 54.74 27.467 56.0474 27.467 57.3537C27.467 57.4425 27.4714 57.5313 27.4736 57.6201H29.1238C29.1453 57.5338 29.1511 57.4443 29.1408 57.3559C29.1404 56.5597 29.1399 55.7615 29.1394 54.9613Z" fill="#990D81"/>
<path d="M19.4188 56.166C17.924 56.166 16.429 56.166 14.9337 56.166C14.7058 56.166 14.7043 56.166 14.7036 55.9492C14.7036 55.5614 14.7036 55.1729 14.7036 54.7852C14.7036 54.575 14.7036 54.5742 14.9145 54.572H15.0351C15.9808 54.572 16.9265 54.572 17.8722 54.572C18.0587 54.572 18.0617 54.572 18.0624 54.3892C18.0624 54.0422 18.0624 53.6944 18.0624 53.3466C18.0624 53.1194 18.0624 53.1394 17.8456 53.1379C17.2802 53.1342 16.7141 53.1379 16.1488 53.1379C15.7285 53.1379 15.3081 53.1379 14.8908 53.1379C14.7102 53.1379 14.7073 53.1335 14.7058 52.9477C14.7058 52.6243 14.7058 52.301 14.7058 51.9776C14.7058 51.8103 14.7102 51.8066 14.8834 51.8066C15.4325 51.8066 15.9823 51.8066 16.5321 51.8066C17.4936 51.8066 18.4556 51.8066 19.4181 51.8066C19.6024 51.8066 19.6046 51.8066 19.6061 51.6194C19.6061 51.2798 19.6061 50.9401 19.6061 50.6012C19.6061 50.3281 19.6386 50.3422 19.3433 50.3422C17.3389 50.3422 15.3348 50.3422 13.3309 50.3422C12.969 50.3422 13.0178 50.3022 13.0178 50.6456C13.0178 52.9726 13.0178 55.3002 13.0178 57.6282H19.7133C19.7133 57.2405 19.7222 56.8527 19.7222 56.4649C19.7178 56.1231 19.7533 56.1697 19.4188 56.166Z" fill="#990D81"/>
<path d="M70.0117 53.1209C71.1306 52.1811 72.249 51.2405 73.3669 50.2993V50.2512C72.7009 50.2512 72.0415 50.263 71.3792 50.2556C71.203 50.2491 71.0309 50.3097 70.8975 50.4251C69.8827 51.2524 68.8642 52.0748 67.842 52.8922C67.7843 52.9381 67.7406 53.0225 67.6333 52.9973V52.8012C67.6333 52.0168 67.6333 51.2326 67.6333 50.4487C67.6333 50.2645 67.6296 50.2615 67.4446 50.2608C67.008 50.2608 66.5717 50.2608 66.1356 50.2608C65.9491 50.2608 65.9491 50.2608 65.9447 50.4465C65.9447 50.4946 65.9447 50.5435 65.9447 50.5945V56.8268C65.9447 57.0207 65.9498 57.2153 65.9447 57.4084C65.9402 57.532 65.9802 57.5786 66.1089 57.5772C66.5618 57.5705 67.014 57.5712 67.4668 57.5772C67.5875 57.5772 67.6526 57.5476 67.637 57.4151C67.634 57.3658 67.634 57.3164 67.637 57.2671C67.637 56.5957 67.637 55.9247 67.637 55.2543C67.637 55.1803 67.6178 55.0922 67.6985 55.0323C67.9708 54.8305 68.2421 54.627 68.5125 54.4218C68.5225 54.4119 68.5347 54.4045 68.5481 54.4001C68.5615 54.3958 68.5758 54.3947 68.5897 54.397C68.6036 54.3992 68.6168 54.4047 68.6282 54.413C68.6396 54.4213 68.6489 54.4322 68.6553 54.4447C68.6849 54.4832 68.716 54.5187 68.747 54.558C69.5319 55.5136 70.3163 56.4694 71.1003 57.4255C71.1343 57.4739 71.18 57.5128 71.2332 57.5387C71.2864 57.5646 71.3453 57.5766 71.4044 57.5735C71.9705 57.5653 72.5366 57.5735 73.102 57.5683C73.1523 57.5683 73.2152 57.5994 73.25 57.5342C73.2184 57.4597 73.1715 57.3926 73.1123 57.3374C72.0674 56.0419 71.0218 54.7464 69.9754 53.4509C69.8311 53.2726 69.7956 53.3022 70.0117 53.1209Z" fill="#990D81"/>
<path d="M37.4598 56.7032C36.4904 54.6623 35.5232 52.6209 34.5583 50.579C34.468 50.3866 34.3651 50.32 34.1587 50.3333C33.8684 50.3511 33.5773 50.3511 33.287 50.3333C33.0916 50.3222 32.991 50.3851 32.9066 50.5694C32.1244 52.2788 31.3297 53.9822 30.5386 55.6887C30.2426 56.3325 29.9466 56.9792 29.6543 57.6245H31.2549C31.5235 57.0814 31.7944 56.5404 32.0563 55.9965C32.1133 55.8789 32.1925 55.8589 32.3072 55.8596C33.0021 55.8596 33.6977 55.8596 34.3933 55.8596C34.6197 55.8596 34.8461 55.8596 35.0726 55.8596C35.1122 55.855 35.1522 55.8636 35.1866 55.8839C35.2209 55.9042 35.2477 55.9352 35.2628 55.9721C35.5232 56.5012 35.7889 57.0273 36.0516 57.5557C36.0581 57.5798 36.0603 57.6048 36.0583 57.6297H37.8535C37.889 57.5557 37.8357 57.5076 37.8098 57.4521C37.6959 57.202 37.5775 56.9511 37.4598 56.7032ZM32.6935 54.5572L33.6858 52.614C34.0255 53.2896 34.3378 53.9134 34.6634 54.5617L32.6935 54.5572Z" fill="#990D81"/>
<path d="M47.4075 53.8942C47.329 53.8416 47.2321 53.8128 47.1729 53.7351C47.1788 53.7218 47.1803 53.7136 47.1855 53.7092C47.2173 53.684 47.2491 53.6596 47.2817 53.6352C47.6931 53.3392 47.9358 52.944 47.9699 52.4364C48.0439 51.3863 47.5259 50.6078 46.5128 50.3592C46.1972 50.288 45.8743 50.255 45.5508 50.2608C44.0955 50.2608 42.6402 50.2608 41.1848 50.2608C40.9717 50.2608 40.9688 50.2608 40.9688 50.4702C40.9688 52.7662 40.9688 55.0624 40.9688 57.3589C40.9688 57.5698 40.9687 57.5698 41.1811 57.572H41.2781C42.6367 57.572 43.9951 57.572 45.3532 57.572C45.6442 57.5737 45.935 57.5584 46.2242 57.5261C47.3882 57.3922 48.2585 56.6011 48.1978 55.292C48.1926 55.0117 48.1176 54.7371 47.9796 54.4931C47.8416 54.249 47.645 54.0432 47.4075 53.8942V53.8942ZM42.6567 51.9221C42.6567 51.7452 42.6611 51.7393 42.8254 51.7393C43.6897 51.7393 44.5545 51.7405 45.4198 51.743C45.5817 51.7409 45.7429 51.7636 45.8979 51.8103C46.1754 51.8991 46.2967 52.0834 46.2923 52.4023C46.2879 52.7035 46.1591 52.8833 45.8912 52.9662C45.6955 53.0179 45.4933 53.0403 45.2911 53.0328C44.927 53.0365 44.5637 53.0328 44.1996 53.0328C43.7474 53.0328 43.2946 53.0328 42.8417 53.0328C42.6604 53.0328 42.6582 53.0284 42.6567 52.8419C42.6547 52.536 42.6547 52.2294 42.6567 51.9221V51.9221ZM46.094 55.9543C45.8076 56.0868 45.4975 56.092 45.1912 56.1023C44.8597 56.1112 44.5252 56.1023 44.1966 56.1023C43.7526 56.1023 43.3086 56.1023 42.8646 56.1023C42.6611 56.1023 42.6582 56.1023 42.6574 55.9085C42.6574 55.4955 42.6574 55.0834 42.6574 54.6712C42.6574 54.5557 42.6952 54.5173 42.8106 54.518C43.6986 54.5232 44.5866 54.518 45.4746 54.5284C45.6692 54.5302 45.8621 54.566 46.0444 54.6342C46.3345 54.743 46.4736 54.9613 46.4884 55.2661C46.5032 55.571 46.387 55.8197 46.094 55.9543Z" fill="#990D81"/>
<path d="M64.7344 50.2578C64.354 50.2645 63.9744 50.2578 63.594 50.2578C63.3158 50.2578 63.3358 50.2349 63.3358 50.5228C63.3358 51.8158 63.3358 53.1091 63.3358 54.4026C63.3358 54.4832 63.3631 54.5735 63.284 54.669C63.2151 54.5905 63.1589 54.521 63.0967 54.4581C61.7771 53.1133 60.4582 51.7684 59.14 50.4236C59.0911 50.3662 59.0296 50.3211 58.9602 50.2916C58.8908 50.2622 58.8156 50.2494 58.7404 50.2541C58.4251 50.266 58.1099 50.2541 57.7946 50.2578C57.4986 50.2578 57.5142 50.226 57.5142 50.5257V57.2915C57.5142 57.3404 57.5142 57.3885 57.5142 57.4395C57.509 57.5283 57.543 57.5727 57.6385 57.572C58.0751 57.572 58.5117 57.572 58.9483 57.572C59.0386 57.572 59.0852 57.5417 59.0822 57.4477C59.0822 57.3826 59.0822 57.3182 59.0822 57.2531C59.0822 55.9521 59.0822 54.6507 59.0822 53.3488C59.0711 53.2614 59.0773 53.1726 59.1007 53.0876C59.1836 53.0957 59.2147 53.1616 59.2576 53.2023C59.5484 53.4939 59.837 53.7884 60.1271 54.0814C61.2282 55.1973 62.3294 56.314 63.4305 57.4314C63.4721 57.4793 63.5242 57.5171 63.5827 57.5417C63.6412 57.5664 63.7046 57.5772 63.7679 57.5735C64.0639 57.5639 64.3666 57.5735 64.6655 57.5735C64.9016 57.5735 64.9016 57.5735 64.9038 57.3352V50.5672C64.9038 50.5183 64.9001 50.4695 64.9038 50.4192C64.9157 50.2948 64.8594 50.2556 64.7344 50.2578Z" fill="#990D81"/>
<path d="M55.2713 54.427C54.6408 53.0994 54.0113 51.7719 53.3828 50.4443C53.3199 50.3104 53.2474 50.2504 53.0935 50.2563C52.7627 50.2682 52.4275 50.2697 52.1004 50.2563C51.9383 50.2497 51.8592 50.303 51.7911 50.451C50.7304 52.7529 49.6665 55.0533 48.5995 57.3522C48.5706 57.4151 48.5151 57.4736 48.5484 57.5742C49.0264 57.5742 49.5104 57.5742 49.9921 57.5742C50.1113 57.5742 50.1401 57.4936 50.1764 57.4159C50.4184 56.9319 50.6655 56.4539 50.8994 55.9625C50.9211 55.9035 50.9622 55.8536 51.016 55.8209C51.0697 55.7883 51.133 55.7748 51.1954 55.7827C52.076 55.7893 52.9566 55.7908 53.8372 55.7827C54.0059 55.7827 54.0947 55.83 54.168 55.9869C54.3944 56.4687 54.6408 56.9415 54.8798 57.4173C54.9191 57.4965 54.9457 57.5757 55.0641 57.575C55.6132 57.5698 56.1623 57.575 56.7298 57.575C56.7243 57.4917 56.6989 57.4111 56.6558 57.3396C56.1936 56.3673 55.7321 55.3964 55.2713 54.427ZM51.5987 54.501C51.6172 54.3382 52.3387 52.893 52.5607 52.577L53.5279 54.501H51.5987Z" fill="#990D81"/>
</svg>
