<svg width="18" height="18" viewBox="0 0 18 18" fill="none" xmlns="http://www.w3.org/2000/svg">
<g clip-path="url(#clip0_750_16)">
<path d="M11.8928 0.642823C11.56 0.642697 11.2289 0.689442 10.9092 0.78168C10.8613 0.795495 10.8172 0.820288 10.7805 0.854096C10.7437 0.887904 10.7154 0.929796 10.6977 0.976456C10.68 1.02312 10.6734 1.07326 10.6784 1.12291C10.6834 1.17257 10.6999 1.22037 10.7266 1.26254C11.2785 2.13503 11.5714 3.14619 11.5714 4.17854C11.5714 5.21089 11.2785 6.22204 10.7266 7.09454C10.6999 7.1367 10.6834 7.1845 10.6784 7.23416C10.6734 7.28381 10.68 7.33396 10.6977 7.38062C10.7154 7.42728 10.7437 7.46917 10.7805 7.50298C10.8172 7.53678 10.8613 7.56158 10.9092 7.57539C11.3954 7.71583 11.9061 7.75025 12.4068 7.67633C12.9074 7.60242 13.3864 7.42189 13.8112 7.14695C14.2361 6.87201 14.597 6.50906 14.8696 6.08264C15.1421 5.65622 15.3199 5.17626 15.391 4.6752C15.4621 4.17414 15.4248 3.66366 15.2816 3.17825C15.1384 2.69285 14.8927 2.24384 14.5611 1.86157C14.2295 1.47929 13.8196 1.17267 13.3593 0.962411C12.899 0.752156 12.3989 0.643171 11.8928 0.642823Z" fill="#1E96FC"/>
<path d="M12.4932 9.67112C12.3466 9.65698 12.2001 9.64927 12.0561 9.64541C11.9925 9.64372 11.9299 9.66091 11.8761 9.69482C11.8223 9.72874 11.7798 9.77784 11.7539 9.83592C11.728 9.894 11.7199 9.95845 11.7307 10.0211C11.7415 10.0838 11.7706 10.1419 11.8143 10.188C13.3081 11.7593 14.1416 13.8442 14.1428 16.0123C14.1439 16.3283 14.1006 16.643 14.0142 16.947C14.0003 16.9947 13.9978 17.045 14.0067 17.0938C14.0156 17.1427 14.0358 17.1888 14.0656 17.2286C14.0957 17.2683 14.1346 17.3006 14.1792 17.3229C14.2238 17.3452 14.2729 17.3569 14.3228 17.3571H16.7142C17.0552 17.3571 17.3822 17.2217 17.6233 16.9805C17.8645 16.7394 17.9999 16.4124 17.9999 16.0714V16.0123C18.0255 14.4623 17.4774 12.9575 16.461 11.7871C15.4445 10.6166 14.0315 9.86306 12.4932 9.67112Z" fill="#1E96FC"/>
<path d="M2.57129 4.17854C2.57129 5.11627 2.9438 6.01559 3.60688 6.67866C4.26995 7.34174 5.16927 7.71425 6.107 7.71425C7.04473 7.71425 7.94406 7.34174 8.60713 6.67866C9.27021 6.01559 9.64272 5.11627 9.64272 4.17854C9.64272 3.24081 9.27021 2.34148 8.60713 1.67841C7.94406 1.01533 7.04473 0.642822 6.107 0.642822C5.16927 0.642822 4.26995 1.01533 3.60688 1.67841C2.9438 2.34148 2.57129 3.24081 2.57129 4.17854Z" fill="#2522A7"/>
<path d="M0 16.0714C0 16.4124 0.135459 16.7394 0.376577 16.9805C0.617695 17.2216 0.944722 17.3571 1.28571 17.3571H10.9286C11.2696 17.3571 11.5966 17.2216 11.8377 16.9805C12.0788 16.7394 12.2143 16.4124 12.2143 16.0714V16.0123C12.2398 14.4623 11.6918 12.9575 10.6753 11.7871C9.65891 10.6166 8.24583 9.86304 6.70757 9.67111C5.85904 9.58767 5.00243 9.68277 4.19286 9.95027C3.38328 10.2178 2.63866 10.6518 2.00688 11.2243C1.3751 11.7969 0.870153 12.4953 0.524519 13.2748C0.178884 14.0542 0.000214289 14.8973 0 15.75L0 16.0714Z" fill="#2522A7"/>
</g>
<defs>
<clipPath id="clip0_750_16">
<rect width="18" height="18" fill="white"/>
</clipPath>
</defs>
</svg>
