<svg width="18" height="18" viewBox="0 0 18 18" fill="none" xmlns="http://www.w3.org/2000/svg">
<g clip-path="url(#clip0_789_262)">
<path d="M17.1968 0.0967407H3.71975C3.27693 0.0967407 2.9165 0.457163 2.9165 0.900377V1.99992H14.2804C15.3159 1.99992 16.1586 2.84258 16.1586 3.87839V12.2976H17.1969C17.6397 12.2976 18.0001 11.9372 18.0001 11.494V0.900342C18.0001 0.457163 17.6397 0.0967407 17.1968 0.0967407Z" fill="#1E96FC"/>
<path d="M14.2803 3.07477H0.80325C0.360422 3.07477 0 3.43519 0 3.87837V14.472C0 14.9152 0.360422 15.2756 0.80325 15.2756H1.90424C2.12959 15.2756 2.33097 15.4161 2.4087 15.6275L3.13295 17.5977C3.20041 17.7813 3.37521 17.9033 3.57079 17.9033C3.76632 17.9033 3.94112 17.7813 4.00859 17.5978L4.73319 15.6275C4.81096 15.4161 5.0123 15.2756 5.2373 15.2756H14.2803C14.7231 15.2756 15.0835 14.9152 15.0835 14.472V3.87837C15.0836 3.43519 14.7232 3.07477 14.2803 3.07477ZM10.9415 10.1057C11.5362 10.7004 11.6115 11.6208 11.1669 12.2976C10.6474 13.093 9.59365 13.3148 8.80327 12.8351C8.57538 12.6971 8.56287 12.6656 7.54175 11.6445C6.52567 12.6606 6.51312 12.6936 6.28024 12.8351C5.48845 13.3155 4.43545 13.0919 3.91665 12.2976C3.47203 11.6208 3.54727 10.7004 4.142 10.1057L5.07245 9.17522L4.142 8.24478C3.46127 7.56405 3.46127 6.45624 4.142 5.77551C4.82382 5.09298 5.9291 5.09263 6.61127 5.77551L7.54172 6.70595L8.47217 5.77551C9.15289 5.09478 10.2607 5.09478 10.9414 5.77551C11.6222 6.45624 11.6222 7.56405 10.9414 8.24478L10.011 9.17522L10.9415 10.1057Z" fill="#2522A7"/>
</g>
<defs>
<clipPath id="clip0_789_262">
<rect width="18" height="18" fill="white"/>
</clipPath>
</defs>
</svg>
