<svg width="20" height="20" viewBox="0 0 20 20" fill="none" xmlns="http://www.w3.org/2000/svg">
<g clip-path="url(#clip0_1636_8)">
<path d="M12.0833 3.26168V4.58335C12.0834 4.6157 12.0759 4.64762 12.0614 4.67656C12.0469 4.7055 12.0259 4.73065 12 4.75001C11.9687 4.77402 11.9389 4.7999 11.9108 4.82751L7.74415 8.99418C7.66456 9.07105 7.60108 9.163 7.5574 9.26468C7.51373 9.36635 7.49074 9.4757 7.48978 9.58634C7.48882 9.69699 7.5099 9.80673 7.5518 9.90914C7.5937 10.0116 7.65558 10.1046 7.73382 10.1828C7.81207 10.2611 7.90511 10.323 8.00752 10.3649C8.10994 10.4068 8.21967 10.4278 8.33032 10.4269C8.44097 10.4259 8.55032 10.4029 8.65199 10.3593C8.75366 10.3156 8.84561 10.2521 8.92249 10.1725L13.0892 6.00585C13.1172 5.97812 13.1431 5.94831 13.1667 5.91668C13.1861 5.89085 13.2113 5.86989 13.2402 5.85543C13.2691 5.84097 13.301 5.83341 13.3333 5.83335H14.655C14.9863 5.83242 15.3038 5.70063 15.5383 5.46668L17.795 3.21085C17.8531 3.15253 17.8927 3.07829 17.9086 2.99751C17.9246 2.91673 17.9163 2.83302 17.8847 2.75697C17.8532 2.68091 17.7998 2.61591 17.7313 2.57018C17.6628 2.52445 17.5823 2.50003 17.5 2.50001H15.625C15.5697 2.50001 15.5167 2.47806 15.4777 2.43899C15.4386 2.39992 15.4167 2.34693 15.4167 2.29168V0.41668C15.4168 0.334163 15.3924 0.25346 15.3467 0.184802C15.3009 0.116145 15.2358 0.0626243 15.1595 0.0310263C15.0833 -0.00057161 14.9994 -0.0088242 14.9185 0.00731479C14.8376 0.0234538 14.7633 0.0632575 14.705 0.12168L12.4492 2.37751C12.3328 2.4934 12.2405 2.6312 12.1777 2.78297C12.1149 2.93473 12.0828 3.09744 12.0833 3.26168Z" fill="white"/>
<path d="M8.33301 4.58331C7.00693 4.58331 5.73516 5.1101 4.79747 6.04778C3.85979 6.98546 3.33301 8.25723 3.33301 9.58331C3.33301 10.9094 3.85979 12.1812 4.79747 13.1188C5.73516 14.0565 7.00693 14.5833 8.33301 14.5833C8.55402 14.5833 8.76598 14.4955 8.92226 14.3392C9.07854 14.183 9.16634 13.971 9.16634 13.75C9.16634 13.529 9.07854 13.317 8.92226 13.1607C8.76598 13.0044 8.55402 12.9166 8.33301 12.9166C7.44895 12.9166 6.60111 12.5655 5.97599 11.9403C5.35086 11.3152 4.99967 10.4674 4.99967 9.58331C4.99967 8.69926 5.35086 7.85141 5.97599 7.22629C6.60111 6.60117 7.44895 6.24998 8.33301 6.24998C8.55402 6.24998 8.76598 6.16218 8.92226 6.0059C9.07854 5.84962 9.16634 5.63766 9.16634 5.41665C9.16634 5.19563 9.07854 4.98367 8.92226 4.82739C8.76598 4.67111 8.55402 4.58331 8.33301 4.58331Z" fill="white"/>
<path d="M8.33322 17.9167C8.55423 17.9167 8.7662 17.8289 8.92248 17.6726C9.07876 17.5163 9.16655 17.3043 9.16655 17.0833C9.16655 16.8623 9.07876 16.6504 8.92248 16.4941C8.7662 16.3378 8.55423 16.25 8.33322 16.25C7.37928 16.2489 6.43668 16.0431 5.5691 15.6465C4.70151 15.2499 3.92915 14.6717 3.30418 13.951C2.6792 13.2303 2.21618 12.3838 1.94638 11.4688C1.67658 10.5539 1.60629 9.59161 1.74025 8.64713C1.87421 7.70264 2.20931 6.7979 2.72291 5.99402C3.23651 5.19014 3.91665 4.50585 4.71739 3.98736C5.51812 3.46887 6.42081 3.12827 7.36446 2.98856C8.30812 2.84884 9.27077 2.91328 10.1874 3.1775C10.2935 3.21118 10.4052 3.22327 10.5161 3.21305C10.6269 3.20284 10.7346 3.17052 10.8327 3.11801C10.9308 3.0655 11.0175 2.99386 11.0875 2.90732C11.1575 2.82078 11.2094 2.7211 11.2403 2.61415C11.2711 2.50721 11.2802 2.39517 11.267 2.28464C11.2539 2.17412 11.2187 2.06736 11.1636 1.97065C11.1085 1.87394 11.0346 1.78926 10.9462 1.72159C10.8578 1.65392 10.7568 1.60465 10.6491 1.57667C9.50311 1.246 8.29954 1.16517 7.11968 1.33964C5.93982 1.51412 4.81115 1.93982 3.80995 2.58799C2.80876 3.23616 1.95836 4.09169 1.31623 5.09677C0.674094 6.10185 0.255192 7.23306 0.0878265 8.41395C-0.079539 9.59485 0.00853257 10.7979 0.346089 11.9418C0.683646 13.0858 1.26282 14.1439 2.04448 15.0448C2.82614 15.9456 3.79206 16.6682 4.87698 17.1636C5.9619 17.6591 7.14053 17.9159 8.33322 17.9167Z" fill="white"/>
<path d="M14.5832 20C15.6545 20 16.7017 19.6823 17.5925 19.0872C18.4833 18.492 19.1775 17.646 19.5875 16.6562C19.9975 15.6665 20.1048 14.5773 19.8958 13.5266C19.6868 12.4759 19.1709 11.5107 18.4133 10.7532C17.6558 9.99566 16.6906 9.47977 15.6399 9.27077C14.5892 9.06177 13.5001 9.16903 12.5103 9.57901C11.5205 9.98898 10.6746 10.6833 10.0794 11.574C9.48419 12.4648 9.1665 13.512 9.1665 14.5834C9.16827 16.0194 9.73952 17.3961 10.755 18.4116C11.7704 19.427 13.1471 19.9983 14.5832 20ZM11.7548 14.7309C11.8723 14.614 12.0312 14.5483 12.1969 14.5483C12.3626 14.5483 12.5216 14.614 12.639 14.7309L13.7223 15.8142C13.7441 15.8357 13.7703 15.8523 13.799 15.8628C13.8278 15.8733 13.8585 15.8775 13.889 15.875C13.9188 15.8729 13.9478 15.8644 13.974 15.85C14.0002 15.8356 14.0229 15.8157 14.0407 15.7917L16.3115 12.75C16.411 12.6174 16.559 12.5297 16.7231 12.5063C16.8872 12.4829 17.0539 12.5256 17.1865 12.625C17.3191 12.7245 17.4068 12.8725 17.4302 13.0366C17.4537 13.2007 17.411 13.3674 17.3115 13.5L14.8898 16.7334C14.7821 16.8779 14.6444 16.9974 14.4862 17.0837C14.328 17.17 14.153 17.221 13.9732 17.2334H13.8823C13.7187 17.233 13.5567 17.2003 13.4057 17.1373C13.2547 17.0742 13.1176 16.982 13.0023 16.8659L11.7523 15.6159C11.6943 15.5576 11.6483 15.4885 11.617 15.4125C11.5857 15.3365 11.5697 15.255 11.57 15.1728C11.5702 15.0906 11.5866 15.0093 11.6184 14.9334C11.6501 14.8576 11.6965 14.7887 11.7548 14.7309Z" fill="#1E96FC"/>
</g>
<defs>
<clipPath id="clip0_1636_8">
<rect width="20" height="20" fill="white"/>
</clipPath>
</defs>
</svg>
