<svg width="56" height="56" viewBox="0 0 56 56" fill="none" xmlns="http://www.w3.org/2000/svg">
<path d="M41.125 14.875V18.375C38.71 15.2162 36.8987 14.1137 35 14.0087L39.7162 8.75C40.646 10.6578 41.1279 12.7527 41.125 14.875Z" fill="#5C9EFF"/>
<path d="M41.125 18.375V22.75C41.1265 24.8845 40.6068 26.987 39.6113 28.875H16.3888C15.3932 26.987 14.8735 24.8845 14.875 22.75V16.8613C26.4775 18.2175 30.9225 13.7813 35 14.0088C36.8988 14.1138 38.71 15.2163 41.125 18.375Z" fill="#F9F8FF"/>
<path d="M14.875 16.8613C14.3062 16.8 13.7287 16.7213 13.125 16.625V14.875C13.1253 11.7081 14.1992 8.63488 16.1714 6.15704C18.1436 3.6792 20.8975 1.94313 23.9836 1.23229C27.0697 0.521442 30.3056 0.87781 33.163 2.24321C36.0204 3.60861 38.3306 5.90238 39.7162 8.75002L35 14.0088C30.9225 13.7813 26.4775 18.2175 14.875 16.8613Z" fill="#2522A7"/>
<path d="M28 45.5C29.933 45.5 31.5 43.933 31.5 42C31.5 40.067 29.933 38.5 28 38.5C26.067 38.5 24.5 40.067 24.5 42C24.5 43.933 26.067 45.5 28 45.5Z" fill="#F9F8FF"/>
<path d="M48.125 30.625L46.375 53.375C46.3736 53.8387 46.1888 54.283 45.8609 54.6109C45.533 54.9388 45.0887 55.1236 44.625 55.125H11.375C10.9113 55.1236 10.467 54.9388 10.1391 54.6109C9.81117 54.283 9.62636 53.8387 9.625 53.375L7.875 30.625C7.87636 30.1613 8.06117 29.717 8.38906 29.3891C8.71696 29.0612 9.16129 28.8764 9.625 28.875H46.375C46.8387 28.8764 47.283 29.0612 47.6109 29.3891C47.9388 29.717 48.1236 30.1613 48.125 30.625ZM31.5 42C31.5 41.3078 31.2947 40.6311 30.9101 40.0555C30.5256 39.4799 29.9789 39.0313 29.3394 38.7664C28.6999 38.5015 27.9961 38.4322 27.3172 38.5673C26.6383 38.7023 26.0146 39.0356 25.5251 39.5251C25.0356 40.0146 24.7023 40.6383 24.5673 41.3172C24.4322 41.9961 24.5015 42.6999 24.7664 43.3394C25.0313 43.9789 25.4799 44.5256 26.0555 44.9101C26.6311 45.2947 27.3078 45.5 28 45.5C28.4597 45.5001 28.9148 45.4097 29.3395 45.2338C29.7642 45.058 30.1501 44.8002 30.4752 44.4752C30.8002 44.1501 31.058 43.7642 31.2338 43.3395C31.4097 42.9148 31.5001 42.4597 31.5 42Z" fill="#1E96FC"/>
<path d="M16.3892 29.7491C16.2298 29.7494 16.0734 29.7061 15.937 29.6239C15.8005 29.5416 15.6891 29.4236 15.615 29.2826C14.5543 27.2684 14 25.0263 14 22.75C14 22.5179 14.0922 22.2954 14.2563 22.1313C14.4204 21.9672 14.6429 21.875 14.875 21.875C15.1071 21.875 15.3296 21.9672 15.4937 22.1313C15.6578 22.2954 15.75 22.5179 15.75 22.75C15.75 24.7415 16.2345 26.7031 17.1616 28.4657C17.2319 28.599 17.2665 28.7481 17.2622 28.8987C17.258 29.0492 17.2149 29.1961 17.1372 29.3252C17.0596 29.4543 16.9499 29.5611 16.8188 29.6354C16.6878 29.7096 16.5398 29.7488 16.3892 29.7491V29.7491Z" fill="#2522A7"/>
<path d="M39.6107 29.7491C39.4601 29.7488 39.3121 29.7096 39.1811 29.6354C39.05 29.5611 38.9403 29.4543 38.8627 29.3252C38.785 29.1961 38.7419 29.0492 38.7377 28.8986C38.7334 28.7481 38.768 28.599 38.8383 28.4657C39.7654 26.7031 40.2499 24.7415 40.2499 22.75C40.2499 22.5179 40.3421 22.2954 40.5062 22.1313C40.6703 21.9672 40.8928 21.875 41.1249 21.875C41.357 21.875 41.5795 21.9672 41.7436 22.1313C41.9077 22.2954 41.9999 22.5179 41.9999 22.75C41.9999 25.0264 41.4456 27.2685 40.3849 29.2826C40.3108 29.4236 40.1994 29.5417 40.0629 29.6239C39.9265 29.7061 39.7701 29.7495 39.6107 29.7491Z" fill="#2522A7"/>
<path d="M14.875 23.625C14.7601 23.6251 14.6463 23.6025 14.5401 23.5585C14.4339 23.5146 14.3374 23.4501 14.2561 23.3689C14.1749 23.2876 14.1104 23.1911 14.0665 23.0849C14.0225 22.9787 13.9999 22.8649 14 22.75V16.8549C14 16.6228 14.0922 16.4002 14.2563 16.2361C14.4204 16.072 14.6429 15.9799 14.875 15.9799C15.1071 15.9799 15.3296 16.072 15.4937 16.2361C15.6578 16.4002 15.75 16.6228 15.75 16.8549V22.75C15.7501 22.8649 15.7275 22.9787 15.6835 23.0849C15.6396 23.1911 15.5751 23.2876 15.4939 23.3689C15.4126 23.4501 15.3161 23.5146 15.2099 23.5585C15.1037 23.6025 14.9899 23.6251 14.875 23.625Z" fill="#2522A7"/>
<path d="M41.125 23.625C41.0101 23.6251 40.8963 23.6025 40.7901 23.5586C40.6839 23.5146 40.5874 23.4502 40.5061 23.3689C40.4249 23.2876 40.3604 23.1911 40.3165 23.085C40.2725 22.9788 40.2499 22.865 40.25 22.75V14.8741C40.25 14.6421 40.3422 14.4195 40.5063 14.2554C40.6704 14.0913 40.8929 13.9991 41.125 13.9991C41.3571 13.9991 41.5796 14.0913 41.7437 14.2554C41.9078 14.4195 42 14.6421 42 14.8741V22.75C42.0001 22.865 41.9775 22.9788 41.9335 23.085C41.8896 23.1911 41.8251 23.2876 41.7439 23.3689C41.6626 23.4502 41.5661 23.5146 41.4599 23.5586C41.3537 23.6025 41.2399 23.6251 41.125 23.625Z" fill="#2522A7"/>
<path d="M41.125 15.7491C41.0101 15.7492 40.8963 15.7266 40.7901 15.6827C40.6839 15.6387 40.5874 15.5743 40.5061 15.493C40.4249 15.4117 40.3604 15.3153 40.3165 15.2091C40.2725 15.1029 40.2499 14.9891 40.25 14.8741C40.25 11.3936 38.8674 8.05567 36.4063 5.59458C33.9452 3.13348 30.6072 1.75085 27.1267 1.75085C23.6462 1.75085 20.3082 3.13348 17.8471 5.59458C15.386 8.05567 14.0034 11.3936 14.0034 14.8741C14.0034 15.1062 13.9112 15.3288 13.7471 15.4929C13.583 15.657 13.3605 15.7491 13.1284 15.7491C12.8964 15.7491 12.6738 15.657 12.5097 15.4929C12.3456 15.3288 12.2534 15.1062 12.2534 14.8741C12.2534 10.9295 13.8204 7.14642 16.6097 4.35714C19.399 1.56786 23.1821 0.000854492 27.1267 0.000854492C31.0713 0.000854492 34.8544 1.56786 37.6437 4.35714C40.433 7.14642 42 10.9295 42 14.8741C42.0001 14.9891 41.9775 15.1029 41.9335 15.2091C41.8896 15.3153 41.8251 15.4117 41.7439 15.493C41.6626 15.5743 41.5661 15.6387 41.4599 15.6827C41.3537 15.7266 41.2399 15.7492 41.125 15.7491Z" fill="#2522A7"/>
<path d="M41.1255 19.2492C40.991 19.2494 40.8583 19.2186 40.7377 19.1592C40.617 19.0997 40.5117 19.0133 40.4299 18.9065C36.5454 13.836 34.6467 14.4794 30.4862 15.8962C24.9107 18.0204 18.8586 18.5711 12.9913 17.4881C12.8779 17.4701 12.7691 17.43 12.6712 17.37C12.5732 17.31 12.488 17.2313 12.4205 17.1384C12.353 17.0455 12.3044 16.9402 12.2776 16.8285C12.2508 16.7168 12.2462 16.6009 12.2642 16.4875C12.2821 16.374 12.3222 16.2652 12.3822 16.1673C12.4423 16.0694 12.521 15.9842 12.6139 15.9167C12.7068 15.8491 12.8121 15.8006 12.9238 15.7738C13.0355 15.7469 13.1513 15.7424 13.2648 15.7603C18.8522 16.7863 24.6139 16.2602 29.9231 14.2393C34.2896 12.7533 37.1726 11.7749 41.8194 17.8419C41.9187 17.9714 41.9798 18.1261 41.9958 18.2886C42.0118 18.4511 41.982 18.6147 41.9098 18.7612C41.8376 18.9076 41.7259 19.0309 41.5873 19.1171C41.4487 19.2034 41.2888 19.2491 41.1255 19.2492V19.2492Z" fill="#2522A7"/>
<path d="M13.1284 17.4992C13.0135 17.4992 12.8997 17.4766 12.7935 17.4327C12.6873 17.3887 12.5908 17.3243 12.5096 17.243C12.4283 17.1618 12.3638 17.0653 12.3199 16.9591C12.2759 16.8529 12.2534 16.7391 12.2534 16.6242V14.8741C12.2534 14.6421 12.3456 14.4195 12.5097 14.2554C12.6738 14.0913 12.8964 13.9991 13.1284 13.9991C13.3605 13.9991 13.583 14.0913 13.7471 14.2554C13.9112 14.4195 14.0034 14.6421 14.0034 14.8741V16.6242C14.0035 16.7391 13.9809 16.8529 13.9369 16.9591C13.893 17.0653 13.8285 17.1618 13.7473 17.243C13.666 17.3243 13.5695 17.3887 13.4633 17.4327C13.3572 17.4766 13.2433 17.4992 13.1284 17.4992Z" fill="#2522A7"/>
<path d="M35 14.8844C34.8309 14.8844 34.6655 14.8354 34.5237 14.7434C34.3819 14.6514 34.2698 14.5203 34.2009 14.3659C34.132 14.2115 34.1094 14.0405 34.1356 13.8735C34.1619 13.7065 34.2359 13.5507 34.3489 13.4249L39.0656 8.16463C39.2211 7.99358 39.4379 7.89098 39.6687 7.87924C39.8996 7.8675 40.1257 7.94758 40.2977 8.10197C40.4697 8.25637 40.5736 8.47256 40.5868 8.70332C40.5999 8.93408 40.5212 9.16067 40.3679 9.33361L35.6511 14.5939C35.5691 14.6854 35.4687 14.7585 35.3565 14.8086C35.2443 14.8586 35.1228 14.8845 35 14.8844Z" fill="#2522A7"/>
<path d="M44.6249 55.9991H11.3749C10.679 55.9984 10.0117 55.7216 9.51961 55.2295C9.02749 54.7373 8.75068 54.0701 8.74992 53.3741L7.00249 30.6917C6.99545 30.342 7.05795 29.9945 7.18638 29.6692C7.3148 29.344 7.50658 29.0475 7.75057 28.7969C7.99457 28.5464 8.28592 28.3469 8.60768 28.2099C8.92945 28.073 9.27523 28.0013 9.62492 27.9991H46.3749C47.0709 27.9999 47.7381 28.2767 48.2302 28.7688C48.7224 29.2609 48.9992 29.9282 48.9999 30.6241L47.2499 53.4109C47.2395 54.1004 46.9584 54.7583 46.4673 55.2425C45.9763 55.7266 45.3146 55.9984 44.6249 55.9991ZM9.62492 29.7491C9.39291 29.7493 9.17044 29.8415 9.00638 30.0056C8.84232 30.1697 8.75008 30.3921 8.74992 30.6241L10.4974 53.3066C10.4911 53.4266 10.5091 53.5466 10.5501 53.6595C10.5912 53.7724 10.6546 53.8759 10.7364 53.9638C10.8183 54.0518 10.917 54.1223 11.0267 54.1713C11.1364 54.2204 11.2548 54.2468 11.3749 54.2491H44.6249C44.8569 54.249 45.0794 54.1567 45.2435 53.9927C45.4075 53.8286 45.4998 53.6062 45.4999 53.3741C45.4999 53.3519 45.5008 53.3297 45.5025 53.3066L47.2525 30.5566C47.2369 30.3355 47.1373 30.1287 46.9742 29.9785C46.811 29.8284 46.5966 29.7463 46.3749 29.7491H9.62492Z" fill="#1E96FC"/>
<path d="M28 46.3741C27.1347 46.3741 26.2888 46.1175 25.5694 45.6368C24.8499 45.1561 24.2892 44.4728 23.958 43.6734C23.6269 42.874 23.5403 41.9943 23.7091 41.1456C23.8779 40.297 24.2946 39.5174 24.9064 38.9056C25.5183 38.2937 26.2978 37.877 27.1465 37.7082C27.9951 37.5394 28.8748 37.626 29.6742 37.9572C30.4737 38.2883 31.1569 38.8491 31.6377 39.5685C32.1184 40.288 32.375 41.1339 32.375 41.9991C32.3736 43.159 31.9123 44.2711 31.0921 45.0912C30.2719 45.9114 29.1599 46.3728 28 46.3741ZM28 39.3741C27.4808 39.3741 26.9733 39.5281 26.5416 39.8165C26.11 40.105 25.7735 40.5149 25.5748 40.9946C25.3761 41.4743 25.3242 42.0021 25.4254 42.5113C25.5267 43.0205 25.7767 43.4882 26.1438 43.8553C26.511 44.2224 26.9787 44.4724 27.4879 44.5737C27.9971 44.675 28.5249 44.623 29.0045 44.4243C29.4842 44.2256 29.8942 43.8892 30.1826 43.4575C30.471 43.0258 30.625 42.5183 30.625 41.9991C30.6242 41.3032 30.3474 40.6359 29.8553 40.1438C29.3632 39.6517 28.696 39.3749 28 39.3741Z" fill="#F9F8FF"/>
</svg>
