<svg width="15" height="15" viewBox="0 0 15 15" fill="none" xmlns="http://www.w3.org/2000/svg">
<path d="M14.52 6.34497L8.145 0.34497C7.96839 0.184756 7.73846 0.0960083 7.5 0.0960083C7.26154 0.0960083 7.03162 0.184756 6.855 0.34497L0.480002 6.34497C0.306793 6.52401 0.209961 6.76336 0.209961 7.01247C0.209961 7.26158 0.306793 7.50093 0.480002 7.67997C0.657165 7.85675 0.897223 7.95604 1.1475 7.95604C1.39778 7.95604 1.63784 7.85675 1.815 7.67997L7.5 2.32497L13.23 7.70997C13.3153 7.79302 13.4162 7.85833 13.527 7.9021C13.6377 7.94587 13.756 7.96724 13.875 7.96497C14.0648 7.96941 14.2514 7.91566 14.4097 7.81096C14.5681 7.70625 14.6906 7.5556 14.7608 7.37924C14.831 7.20287 14.8456 7.00924 14.8025 6.82436C14.7595 6.63947 14.6609 6.47219 14.52 6.34497Z" fill="#1E96FC"/>
<path d="M8.02508 4.61997C7.88488 4.48255 7.69639 4.40558 7.50008 4.40558C7.30376 4.40558 7.11527 4.48255 6.97508 4.61997L2.47508 9.11997C2.40261 9.18978 2.34524 9.27373 2.30654 9.36662C2.26784 9.45951 2.24862 9.55935 2.25008 9.65997V14.16C2.25008 14.3589 2.32909 14.5496 2.46975 14.6903C2.6104 14.831 2.80116 14.91 3.00008 14.91H12.0001C12.199 14.91 12.3898 14.831 12.5304 14.6903C12.6711 14.5496 12.7501 14.3589 12.7501 14.16V9.65997C12.7515 9.55935 12.7323 9.45951 12.6936 9.36662C12.6549 9.27373 12.5976 9.18978 12.5251 9.11997L8.02508 4.61997Z" fill="#2522A7"/>
</svg>
