<svg width="20" height="20" viewBox="0 0 20 20" fill="none" xmlns="http://www.w3.org/2000/svg">
<path d="M4.83332 5.08318C4.16664 4.4165 1.33332 4.24986 0.416641 4.1665C0.33332 4.1665 0.249961 4.1665 0.166641 4.24982C0.0833203 4.33318 0 4.49986 0 4.58318V12.0832C0 12.3332 0.16668 12.4999 0.41668 12.4999H2.91668C3.08336 12.4999 3.25 12.4166 3.33336 12.2499C3.33336 11.9999 4.83336 7.58319 5.00004 5.41655C5 5.33319 5 5.16654 4.83332 5.08318Z" fill="#1E96FC"/>
<path d="M13.75 7.08341C12.9167 6.83341 12.1667 6.50009 11.5 6.25008C10 5.5834 9.33337 5.91676 8.00005 7.25009C7.41673 7.83341 7.00005 8.66677 7.08337 9.00009C7.08337 9.08341 7.08337 9.08341 7.25005 9.16677C7.66673 9.33345 8.25005 9.41677 8.83337 8.50009C8.91669 8.41677 9.00005 8.33341 9.16669 8.33341C9.41669 8.33341 9.50001 8.25009 9.75001 8.16673C9.91669 8.08341 10.0833 8.00005 10.3333 7.91673C10.4167 7.91673 10.4167 7.91673 10.5 7.91673C10.5833 7.91673 10.75 8.00005 10.8333 8.00005C11.25 8.41677 12 9.00009 12.75 9.66677C13.9167 10.5835 15.0834 11.5835 15.6667 12.3335H15.75C15.1667 10.6668 14.1667 7.83341 13.75 7.08341Z" fill="#1E96FC"/>
<path d="M19.5832 5C16.3332 5 14.4999 5.83332 14.4165 5.83332C14.3332 5.91664 14.2498 6 14.1665 6.08332C14.1665 6.16664 14.1665 6.33332 14.2498 6.41664C14.7498 7.24996 16.4165 11.8333 16.6665 13C16.7498 13.1666 16.9165 13.3333 17.0832 13.3333H19.5832C19.8332 13.3333 19.9999 13.1666 19.9999 12.9166V5.4166C19.9999 5.16668 19.8332 5 19.5832 5Z" fill="#2522A7"/>
<path d="M15.0835 13.1668C14.7501 12.4168 13.3335 11.3334 12.0835 10.3334C11.4168 9.75007 10.7501 9.25007 10.2501 8.83339C10.1668 8.91671 10.0001 8.91671 10.0001 9.00007C9.75014 9.08339 9.66682 9.16675 9.33346 9.16675C8.66682 10.0001 7.83346 10.3334 6.91682 10.0001C6.50014 9.91675 6.25014 9.58339 6.16682 9.25007C6.00014 8.41675 6.75014 7.25007 7.3335 6.66675H5.66682C5.3335 8.33343 4.75014 10.5001 4.3335 11.6668C4.66682 12.0001 5.00018 12.4168 5.25018 12.5834C6.8335 13.9168 8.66686 15.2501 9.00018 15.5001C9.25018 15.6668 9.75018 15.8334 10.0002 15.8334C10.0835 15.8334 10.1669 15.8334 10.2502 15.8334L8.91682 14.5001C8.75014 14.3334 8.75014 14.0834 8.91682 13.9168C9.0835 13.7501 9.3335 13.7501 9.50014 13.9168L11.1668 15.5834C11.3335 15.7501 11.5001 15.6668 11.6668 15.6668C11.9168 15.5834 12.0001 15.4168 12.0835 15.1668L10.1668 13.2501C10.0001 13.0834 10.0001 12.8334 10.1668 12.6668C10.3335 12.5001 10.5835 12.5001 10.7501 12.6668L12.8335 14.7501C12.9168 14.8334 13.2501 14.8334 13.5001 14.7501C13.5835 14.6668 13.7501 14.5834 13.8335 14.4168L11.5001 12.0834C11.3335 11.9167 11.3335 11.6667 11.5001 11.5001C11.6668 11.3334 11.9168 11.3334 12.0835 11.5001L14.5001 13.9168C14.6668 14.0001 14.8335 13.9168 15.0001 13.8334C15.0835 13.7501 15.2501 13.5001 15.0835 13.1668Z" fill="#2522A7"/>
</svg>
