<svg width="15" height="14" viewBox="0 0 15 14" fill="none" xmlns="http://www.w3.org/2000/svg">
<path d="M7.00016 13.6667C3.31816 13.6667 0.333496 10.682 0.333496 7.00004C0.333496 3.31804 3.31816 0.333376 7.00016 0.333376C8.03527 0.332598 9.05629 0.573224 9.98212 1.03614C10.9079 1.49905 11.7131 2.17149 12.3335 3.00004H10.5268C9.75698 2.32122 8.80761 1.87895 7.79264 1.72631C6.77767 1.57367 5.74021 1.71715 4.80475 2.13952C3.8693 2.56189 3.07559 3.24522 2.51888 4.1075C1.96216 4.96978 1.66608 5.97439 1.66616 7.00078C1.66625 8.02717 1.9625 9.03173 2.51936 9.89392C3.07622 10.7561 3.87004 11.4393 4.80556 11.8615C5.74109 12.2837 6.77857 12.427 7.79352 12.2742C8.80847 12.1214 9.75776 11.679 10.5275 11H12.3342C11.7137 11.8287 10.9084 12.5012 9.98248 12.9641C9.05653 13.427 8.03538 13.6676 7.00016 13.6667ZM11.6668 9.66671V7.66671H6.3335V6.33338H11.6668V4.33338L15.0002 7.00004L11.6668 9.66671Z" fill="black"/>
</svg>
