<svg width="88" height="26" viewBox="0 0 88 26" fill="none" xmlns="http://www.w3.org/2000/svg">
<path d="M32.76 19.24C35.2 19.24 37.12 18.06 37.12 15.9C37.12 13.58 35.02 13.08 33.4 12.72C32.26 12.48 31.4 12.26 31.4 11.58C31.4 10.98 32.12 10.7 33 10.7C34.04 10.7 34.9 11.08 35.64 11.64L36.9 9.9C35.98 9.18 34.68 8.56 32.94 8.56C30.68 8.56 28.78 9.62 28.78 11.78C28.78 14.1 30.88 14.6 32.5 14.96C33.62 15.22 34.5 15.46 34.5 16.14C34.5 16.76 33.74 17.1 32.7 17.1C31.48 17.1 30.5 16.64 29.72 15.96L28.46 17.68C29.44 18.52 30.86 19.24 32.76 19.24ZM51.1689 8.56C49.6889 8.56 48.5089 9.14 47.6889 10.22C47.0489 9.18 45.9289 8.56 44.4889 8.56C43.2489 8.56 42.2289 9 41.4689 9.86V8.8H38.8689V19H41.4689V13.18C41.4689 11.92 42.3489 11.08 43.6089 11.08C44.8289 11.08 45.6289 11.9 45.6289 13.14V19H48.2289V13.18C48.2289 11.92 49.0889 11.08 50.3689 11.08C51.5889 11.08 52.3689 11.9 52.3689 13.14V19H54.9689V12.36C54.9689 10.06 53.4689 8.56 51.1689 8.56ZM65.0069 8.8V10.02C64.1869 9.12 63.0469 8.56 61.6869 8.56C58.8469 8.56 56.7069 10.86 56.7069 13.9C56.7069 16.94 58.8469 19.24 61.6869 19.24C63.0469 19.24 64.1869 18.68 65.0069 17.78V19H67.6069V8.8H65.0069ZM62.1869 16.72C60.5869 16.72 59.3869 15.5 59.3869 13.9C59.3869 12.3 60.5869 11.08 62.1869 11.08C63.8069 11.08 65.0069 12.3 65.0069 13.9C65.0069 15.5 63.8069 16.72 62.1869 16.72ZM75.6198 8.64C74.4198 8.64 73.4198 9.18 72.6798 10.12V8.8H70.0798V19H72.6798V14.16C72.6798 12.42 73.7598 11.32 75.6198 11.32H76.0598V8.64H75.6198ZM83.9231 19H80.6031C79.9631 19 79.5231 18.64 79.5231 18.14C79.5231 17.8 79.7231 17.46 80.0431 17.26C80.5631 17.42 81.1231 17.52 81.7231 17.52C84.4431 17.52 86.5231 15.6 86.5231 13.04C86.5231 12.04 86.2031 11.12 85.6431 10.4C85.7431 9.94 86.1631 9.66 86.6831 9.66H87.4031V7.26H86.5631C85.2231 7.26 84.2431 7.94 83.9431 9.04C83.2831 8.74 82.5431 8.56 81.7231 8.56C78.9831 8.56 76.9431 10.48 76.9431 13.04C76.9431 14.32 77.4431 15.42 78.3031 16.22C77.4631 16.74 76.9231 17.74 76.9231 18.78C76.9231 20.4 78.1831 21.5 80.0831 21.5H83.4231C84.3431 21.5 84.9631 21.98 85.0431 22.72L87.7231 22C87.3831 20.12 85.9431 19 83.9231 19ZM81.7231 11.02C82.9231 11.02 83.8431 11.88 83.8431 13.04C83.8431 14.2 82.9231 15.06 81.7231 15.06C80.5031 15.06 79.6031 14.2 79.6031 13.04C79.6031 11.88 80.5031 11.02 81.7231 11.02Z" fill="#040403"/>
<circle cx="3.6" cy="7.6" r="3.6" fill="#1E96FC"/>
<circle cx="3.6" cy="18.3998" r="3.6" fill="#2522A7"/>
<circle cx="14.3998" cy="7.6" r="3.6" fill="#2522A7"/>
<circle cx="14.3998" cy="18.3998" r="3.6" fill="#1E96FC"/>
</svg>
