<svg width="18" height="18" viewBox="0 0 18 18" fill="none" xmlns="http://www.w3.org/2000/svg">
<path d="M7.87497 17.9999C9.96281 17.9976 11.9645 17.1671 13.4408 15.6908C14.9171 14.2145 15.7476 12.2128 15.7499 10.125C15.7499 10.0255 15.7104 9.93013 15.6401 9.8598C15.5698 9.78948 15.4744 9.74997 15.3749 9.74997H8.62496C8.52551 9.74997 8.43013 9.71046 8.3598 9.64013C8.28947 9.56981 8.24997 9.47443 8.24997 9.37497V2.625C8.24997 2.52554 8.21046 2.43016 8.14013 2.35983C8.06981 2.28951 7.97442 2.25 7.87497 2.25C5.7864 2.25 3.78337 3.07968 2.30652 4.55652C0.829682 6.03337 0 8.0364 0 10.125C0 12.2135 0.829682 14.2166 2.30652 15.6934C3.78337 17.1703 5.7864 17.9999 7.87497 17.9999Z" fill="#2522A7"/>
<path d="M10.125 0C10.0255 0 9.93016 0.0395086 9.85983 0.109834C9.78951 0.18016 9.75 0.275543 9.75 0.374998V7.49997C9.75 7.69888 9.82902 7.88964 9.96967 8.03029C10.1103 8.17095 10.3011 8.24996 10.5 8.24996H17.625C17.7244 8.24996 17.8198 8.21046 17.8901 8.14013C17.9605 8.0698 18 7.97442 18 7.87497C17.9976 5.78713 17.1671 3.78548 15.6908 2.30915C14.2145 0.832829 12.2128 0.00238202 10.125 0V0Z" fill="#1E96FC"/>
</svg>
