<svg xmlns="http://www.w3.org/2000/svg" width="102" height="105" fill="none" viewBox="0 0 102 105"><circle r="10" fill="#2522A7" transform="matrix(1 0 0 -1 83 22)"/><circle r="5.5" fill="#2522A7" transform="matrix(1 0 0 -1 96.5 5.5)"/><circle cx="42.447" cy="62.447" r="42.447" fill="#E9EFFD"/><g clip-path="url(#clip0_2108_3)"><path fill="#2522A7" d="M27.1301 47.9339L46.3477 40.9393C46.8111 40.7706 47.3224 40.793 47.7693 41.0013C48.2162 41.2097 48.562 41.5871 48.7306 42.0504L60.1764 73.4974C60.345 73.9608 60.3227 74.4721 60.1143 74.919C59.9059 75.3659 59.5286 75.7117 59.0652 75.8803L38.1006 83.5108C37.6372 83.6795 37.1259 83.6572 36.679 83.4488C36.2321 83.2404 35.8863 82.863 35.7176 82.3997L22.3643 45.7115L25.8584 44.4398L27.1301 47.9339ZM28.4019 51.428L31.5812 60.1633L49.0518 53.8045L45.8724 45.0693L28.4019 51.428Z"/><rect width="3.638" height="3.638" x="34.658" y="65.604" fill="#fff" rx="1" transform="rotate(-20 34.6582 65.6043)"/><rect width="3.638" height="3.638" x="37.597" y="71.156" fill="#fff" rx="1" transform="rotate(-20 37.5967 71.1556)"/><rect width="3.638" height="3.638" x="40.022" y="63.691" fill="#fff" rx="1" transform="rotate(-20 40.0215 63.6912)"/><rect width="3.638" height="3.638" x="42.96" y="69.243" fill="#fff" rx="1" transform="rotate(-20 42.96 69.2426)"/><rect width="3.638" height="3.638" x="45.386" y="61.778" fill="#fff" rx="1" transform="rotate(-20 45.3857 61.7782)"/><rect width="3.638" height="3.638" x="48.324" y="67.329" fill="#fff" rx="1" transform="rotate(-20 48.3242 67.3295)"/></g><defs><clipPath id="clip0_2108_3"><rect width="44.62" height="44.62" fill="#fff" transform="translate(13.6299 48.8909) rotate(-20)"/></clipPath></defs></svg>