<svg width="50" height="50" viewBox="0 0 50 50" fill="none" xmlns="http://www.w3.org/2000/svg">
<path d="M8.09369 30.383C8.42738 30.6063 8.80472 30.7131 9.17806 30.7131C9.80794 30.7131 10.4264 30.4088 10.8031 29.846C13.959 25.13 19.2347 22.3145 24.9155 22.3145C30.5794 22.3145 35.8464 25.1171 39.0046 29.8115C39.6069 30.7065 40.8204 30.9439 41.7154 30.3418C42.6104 29.7396 42.8478 28.526 42.2456 27.6311C39.7223 23.8805 36.1045 21.113 31.9703 19.6325C34.4496 17.6072 36.0354 14.5274 36.0354 11.084C36.0354 4.99912 31.0851 0.0488281 25.0002 0.0488281C18.9154 0.0488281 13.9651 4.99912 13.9651 11.084C13.9651 14.5027 15.5278 17.5632 17.9764 19.589C13.7776 21.064 10.1054 23.8649 7.55667 27.6735C6.95677 28.57 7.1972 29.7831 8.09369 30.383ZM25.0002 3.95508C28.9311 3.95508 32.1291 7.15312 32.1291 11.084C32.1291 15.0148 28.9311 18.2129 25.0002 18.2129C21.0694 18.2129 17.8713 15.0148 17.8713 11.084C17.8713 7.15312 21.0694 3.95508 25.0002 3.95508Z" fill="#1E96FC"/>
<path d="M46.5763 43.5683L49.488 41.4678C50.4567 40.7689 49.9589 39.1113 48.7615 39.1113H45.1625C44.627 39.1113 44.1524 38.9052 43.9869 38.3995L42.8748 34.9789C42.6897 34.4136 42.1945 34.1309 41.6992 34.1309C41.2039 34.1309 40.7087 34.4136 40.5236 34.9789L39.4115 38.3995C39.2461 38.9052 38.7715 39.1113 38.2359 39.1113H34.6369C33.4395 39.1113 32.9416 40.7689 33.9104 41.4678L36.8221 43.5683C37.2553 43.8808 37.4366 44.4348 37.2711 44.9404L36.0996 48.3391C36.0501 48.4903 36.0306 48.6383 36.0361 48.7793C36.0725 49.6921 37.222 50.3165 38.061 49.7112L40.9727 47.6102C41.1893 47.4539 41.4442 47.3758 41.6992 47.3758C41.9542 47.3758 42.2092 47.4539 42.4258 47.6102L45.3374 49.7112C46.1765 50.3165 47.3205 49.6921 47.362 48.7793C47.3684 48.6383 47.3493 48.4904 47.2998 48.3391L46.1272 44.9404C45.9617 44.4348 46.1431 43.8808 46.5763 43.5683Z" fill="#2522A7"/>
<path d="M29.8771 36.7323L32.7888 34.6318C33.7575 33.933 33.2597 32.2754 32.0623 32.2754H28.4633C27.9277 32.2754 27.4532 32.0692 27.2877 31.5636L26.1756 28.143C25.9905 27.5776 25.4953 27.2949 25 27.2949C24.5047 27.2949 24.0095 27.5776 23.8244 28.143L22.7123 31.5636C22.5469 32.0692 22.0723 32.2754 21.5367 32.2754H17.9377C16.7402 32.2754 16.2424 33.933 17.2111 34.6318L20.1229 36.7323C20.5561 37.0448 20.7374 37.5988 20.5719 38.1045L19.4004 41.5031C19.3509 41.6544 19.3313 41.8023 19.3369 41.9434C19.3732 42.8562 20.5228 43.4806 21.3618 42.8753L24.2734 40.7742C24.49 40.618 24.745 40.5398 25 40.5398C25.255 40.5398 25.51 40.618 25.7266 40.7742L28.6382 42.8753C29.4772 43.4806 30.6213 42.8562 30.6628 41.9434C30.6691 41.8023 30.6501 41.6545 30.6006 41.5031L29.428 38.1045C29.2625 37.5988 29.4438 37.0448 29.8771 36.7323Z" fill="#2522A7"/>
<path d="M13.1779 43.5683L16.0896 41.4678C17.0584 40.7689 16.5605 39.1113 15.3631 39.1113H11.7641C11.2285 39.1113 10.754 38.9052 10.5885 38.3995L9.47637 34.9789C9.29131 34.4136 8.79609 34.1309 8.30078 34.1309C7.80547 34.1309 7.31025 34.4136 7.12519 34.9789L6.01309 38.3995C5.84766 38.9052 5.37305 39.1113 4.8375 39.1113H1.23848C0.0410153 39.1113 -0.456836 40.7689 0.511914 41.4678L3.42363 43.5683C3.85684 43.8808 4.03818 44.4348 3.87266 44.9404L2.70117 48.3391C2.65166 48.4903 2.63213 48.6383 2.6377 48.7793C2.67402 49.6921 3.82353 50.3165 4.6626 49.7112L7.57422 47.6102C7.79082 47.4539 8.0458 47.3758 8.30078 47.3758C8.55576 47.3758 8.81074 47.4539 9.02734 47.6102L11.9391 49.7112C12.7781 50.3165 13.9222 49.6921 13.9637 48.7793C13.97 48.6383 13.951 48.4904 13.9015 48.3391L12.7289 44.9404C12.5634 44.4348 12.7447 43.8808 13.1779 43.5683Z" fill="#2522A7"/>
</svg>
