<svg width="204" height="163" viewBox="0 0 204 163" fill="none" xmlns="http://www.w3.org/2000/svg">
<path d="M48.7508 52.6963C48.5583 52.9415 48.1655 53.0382 47.8703 53.0442C46.6457 53.0698 45.4426 53.3572 44.2134 53.3769C44.0323 53.3796 43.6748 53.2884 43.8687 53.0423C44.0607 52.798 44.4549 52.699 44.7491 52.6945C45.977 52.6752 47.1792 52.3874 48.4061 52.3617C48.5872 52.3581 48.9437 52.4506 48.7508 52.6963ZM56.7261 52.8682C57.6129 52.8682 58.4993 52.8682 59.3857 52.8682C60.153 52.8682 60.3977 51.8732 59.4976 51.8732C58.6107 51.8732 57.7243 51.8732 56.8379 51.8732C56.0707 51.8732 55.8259 52.8682 56.7261 52.8682ZM51.1038 68.4181C50.4915 69.5822 49.4158 70.7243 47.9721 70.469C46.5421 70.2165 46.1585 68.6023 46.1337 67.3754C46.1209 66.7452 47.4684 66.5632 47.4826 67.2878C47.4826 67.3034 47.484 67.3236 47.4844 67.3396C47.7278 67.2585 48.0252 67.1861 48.2659 67.2755C49.0102 67.5523 49.782 67.5697 50.5662 67.5702C50.8192 67.5702 50.8499 67.7104 50.6377 67.8374C50.6207 67.8475 50.601 67.8548 50.5836 67.8644C50.9691 67.8534 51.3055 68.0344 51.1038 68.4181ZM49.9754 68.0665C49.8824 68.0807 49.7893 68.0894 49.6991 68.0894C48.9547 68.089 48.2333 68.0574 47.5238 67.8763C47.5995 68.4955 47.8043 69.216 48.347 69.4241C49.034 69.6876 49.5703 68.7274 49.8269 68.2407C49.8622 68.1738 49.9135 68.1156 49.9754 68.0665ZM16.548 112.266C16.548 130.329 16.548 148.392 16.548 166.455C16.548 167.142 17.8923 166.931 17.8923 166.348C17.8923 148.285 17.8923 130.222 17.8923 112.159C17.8918 111.472 16.548 111.683 16.548 112.266ZM159.053 64.3977C155.804 62.8715 158.662 58.3061 159.834 56.2524C159.964 56.0251 158.719 56.1186 158.519 56.4687C158.323 56.8125 158.095 57.2057 157.861 57.6315C158.129 56.9908 158.185 56.3349 158.186 55.6396C158.186 54.9632 156.844 55.1822 156.843 55.7519C156.842 56.3981 156.827 57.0288 156.55 57.6246C156.263 58.2406 157.355 58.2644 157.727 57.8762C156.426 60.287 155.076 63.5869 157.97 64.9463C158.278 65.0902 159.497 64.6067 159.053 64.3977ZM164.323 57.0815C164.323 57.7277 164.307 58.3584 164.03 58.9542C163.716 59.6284 165.057 59.5949 165.294 59.0857C165.611 58.4056 165.666 57.7094 165.666 56.9692C165.667 56.2932 164.324 56.5118 164.323 57.0815ZM163.704 53.1019C164.828 52.8558 165.905 53.1523 166.861 53.7573C167.175 53.9558 168.273 53.4122 168.114 53.3118C166.851 52.5125 165.408 52.3191 163.957 52.6372C163.733 52.6862 163.302 52.7595 163.176 52.9901C163.066 53.1931 163.65 53.1138 163.704 53.1019ZM157.118 52.8384C157.783 52.8384 158.447 52.8384 159.113 52.8384C159.395 52.8384 159.806 52.6243 159.848 52.3154C159.894 51.9717 159.486 51.9043 159.24 51.9043C158.575 51.9043 157.911 51.9043 157.246 51.9043C156.963 51.9043 156.552 52.1184 156.511 52.4273C156.464 52.7705 156.872 52.8384 157.118 52.8384ZM160.546 67.8878C160.414 67.7649 160.938 67.4886 161.359 67.4043C162.642 66.5463 164.062 65.9395 165.445 65.2575C165.605 65.1786 166.372 64.8945 166.49 65.1589C167.148 66.643 166.237 67.9538 164.881 68.5743C163.375 69.2632 161.75 69.0116 160.546 67.8878ZM162.045 67.6531C162.911 68.3557 164.188 68.886 164.96 67.7558C165.374 67.1508 165.478 66.5183 165.286 65.8602C164.169 66.3932 163.057 66.9267 162.045 67.6531ZM203.393 167.885C203.503 168.439 202.172 168.776 202.065 168.241C201.972 167.776 201.87 167.313 201.766 166.85C199.912 158.596 196.441 150.669 195.66 142.199C195.03 135.369 195.938 128.556 197.038 121.812C194.92 125.882 193.261 130.216 190.921 134.15C187.058 140.644 181.545 145.641 174.874 149.153C168.697 152.403 162.059 154.637 155.505 157.015C155.377 160.367 154.594 163.649 154.529 167.007C154.528 167.055 154.514 167.1 154.494 167.143C154.29 167.591 153.176 167.727 153.188 167.126C153.251 163.894 153.979 160.732 154.147 157.51C153.697 157.675 153.248 157.841 152.8 158.009C152.802 158.391 151.687 158.716 151.449 158.268C151.445 158.259 151.441 158.251 151.437 158.243C151.379 158.315 151.288 158.386 151.152 158.451C147.84 160.009 144.683 161.875 141.247 163.161C140.971 164.572 139.746 165.318 138.273 165.007C138.267 165.015 138.264 165.022 138.256 165.031C137.237 166.083 135.582 166.318 134.085 165.935C133.979 168.129 131.908 168.659 129.951 168.243C129.876 168.319 129.784 168.378 129.704 168.407C128.467 168.858 126.937 169.272 125.643 168.772C124.877 168.476 124.185 167.881 124.066 167.022C124.064 167.004 124.064 166.987 124.062 166.968C123.085 167.462 121.754 167.83 120.773 167.379C120.627 167.311 120.509 167.233 120.408 167.149C120.169 167.26 119.892 167.353 119.77 167.351C118.018 167.313 116.31 166.852 114.566 166.825C114.486 167.044 114.251 167.239 113.909 167.236C104.351 167.15 94.3394 162.911 86.1954 158.217C80.3889 154.87 73.3238 150.034 70.2654 143.57C70.7013 151.262 71.0666 158.956 71.0803 166.665C71.0808 166.89 70.814 167.065 70.5193 167.134C70.1541 167.221 69.7452 167.146 69.7448 166.802C69.7095 147.381 67.4531 128.044 67.4174 108.624C67.4165 108.12 68.752 107.864 68.753 108.485C68.7708 118.028 69.3245 127.551 69.8873 137.074C70.0028 137.149 70.0826 137.265 70.089 137.431C70.1605 139.295 70.6128 141.054 71.3411 142.714C72.9915 146.471 76.0825 149.702 79.524 152.393C82.2149 154.497 85.117 156.273 87.7088 157.712C95.135 161.837 104.093 165.764 112.775 166.186C115.025 161.462 116.38 156.39 118.287 151.528C118.299 151.497 118.319 151.468 118.343 151.44C110.318 148.551 102.141 145.401 95.1772 140.378C94.1964 139.671 93.2504 138.926 92.3328 138.153C89.433 135.707 86.8614 132.934 84.6916 129.862C82.8299 127.226 81.2597 124.374 80.0378 121.318C78.2251 116.784 77.5175 112.098 76.7301 107.307C75.9555 102.595 75.1012 97.438 72.1271 93.5404C71.7573 93.0555 71.3649 92.6077 70.9552 92.1893C70.6669 92.2035 70.4098 92.1045 70.4098 91.8373C70.4098 91.7777 70.4098 91.7177 70.4098 91.6581C66.4082 87.9737 60.834 86.9282 55.473 85.5684C55.8754 88.091 57.1069 90.4807 57.227 93.0349C57.3292 95.2 55.6921 96.6501 54.0224 97.7203C55.8319 100.147 57.8297 102.835 58.2917 105.889C58.7803 109.119 57.8884 112.32 56.7343 115.32C54.1292 122.091 50.2321 128.259 47.5463 134.972C47.3698 136.031 47.1407 137.071 46.8061 138.057C46.785 138.118 46.7387 138.174 46.6778 138.225C46.7213 138.359 46.7607 138.496 46.8066 138.63C46.9541 139.057 45.636 139.441 45.4788 138.985C45.0333 137.696 44.7006 136.354 44.4159 134.996C39.6668 128.315 34.4666 121.652 31.065 114.176C29.8871 111.587 28.9182 108.755 29.5461 105.883C30.2258 102.773 31.7703 99.9102 33.1105 97.0443C30.8344 96.3146 27.9507 95.0556 28.5786 92.2026C29.1973 89.3935 30.8381 86.9663 31.4385 84.1325C31.4481 84.0871 31.4564 84.0413 31.4655 83.9959C29.1235 84.5496 26.8058 85.2192 24.521 85.9511C22.0144 86.7536 19.4015 87.5681 16.9 88.575C15.6217 89.0897 14.371 89.6511 13.1825 90.2937C5.92496 94.2201 3.44314 101.965 2.39403 109.668C-0.24179 129.023 2.88352 148.588 2.92935 168.003C2.92935 168.024 2.92386 168.044 2.92019 168.064C2.82532 168.566 1.59059 168.757 1.58876 168.123C1.56309 157.25 0.625359 146.415 0.2312 135.555C-0.123543 125.776 -0.33987 115.649 1.69096 106.019C3.1521 99.0884 6.37595 92.4079 13.1486 89.3303C20.3269 86.0689 28.0987 83.494 35.8962 82.2291C35.7733 81.8844 35.7408 81.5824 35.8659 81.378C35.8952 81.3299 35.9365 81.2882 35.9823 81.2497C36.5598 80.1978 37.4347 79.0942 37.4985 77.8796C37.5067 77.7256 37.6566 77.595 37.8527 77.5079C37.8087 77.4227 37.8715 77.3269 37.9934 77.2398C38.1447 76.297 38.2263 75.3327 38.2121 74.3721C38.0077 74.4276 37.7968 74.4326 37.6493 74.3519C31.3583 70.8999 27.2054 65.1736 26.7618 57.9427C26.4313 52.5533 26.7315 46.7546 32.1187 44.0712C31.9092 44.0386 31.7822 43.9286 31.8936 43.7123C33.5023 40.5916 36.3701 39.1726 39.6957 38.4916C41.5565 38.1102 43.4567 37.9957 45.3363 37.7459C47.2159 37.4961 48.9712 36.9562 50.8041 36.5048C56.1775 35.1802 65.8 34.1316 65.8926 42.2617C65.9237 45.0029 64.2797 46.6831 62.1173 47.718C62.38 50.3309 62.6559 52.9594 62.7847 55.5901C62.9648 55.6662 63.1334 55.7583 63.2719 55.8945C64.1253 56.7323 63.9511 58.9157 63.9181 59.973C63.8805 61.183 64.128 63.8926 63.083 64.8234C62.8662 65.0164 62.6371 65.1452 62.3988 65.2341C62.0394 67.5665 61.3657 69.8503 59.999 71.6886C58.7193 73.4101 56.6885 74.2538 54.7241 74.9184C51.3573 76.0573 50.2797 77.8475 50.4631 81.4467C50.4649 81.4825 50.4516 81.5164 50.4314 81.5494C50.4732 81.587 50.4892 81.6369 50.4622 81.7038C50.3146 82.0636 50.2128 82.4335 50.1262 82.807C50.524 82.9789 50.9292 83.1407 51.3412 83.2928C51.718 83.1906 52.1479 83.231 52.1245 83.5344C52.1236 83.5458 52.1227 83.5577 52.1217 83.5692C58.1487 85.6083 65.3801 86.0478 70.4089 89.9408C70.4089 63.4783 70.4089 37.0153 70.4089 10.5528C70.4089 10.4644 70.4538 10.3832 70.5248 10.3136C70.6335 10.1417 70.8498 10.0024 71.1367 10.0024C90.3029 10.0024 109.47 10.0024 128.636 10.0024C127.99 7.81161 128.166 6.11583 129.188 5.09377C129.807 4.4755 130.675 4.162 131.769 4.162C133.081 4.162 134.729 4.62995 136.569 5.52184C137.805 1.95244 139.537 0 141.487 0C143.437 0 145.169 1.95244 146.405 5.52184C148.246 4.63041 149.893 4.162 151.206 4.162C152.3 4.162 153.168 4.4755 153.786 5.09377C155.165 6.47377 155.009 9.07841 153.359 12.4755C156.928 13.712 158.881 15.4436 158.881 17.3928C158.881 19.342 156.928 21.0736 153.359 22.3101C155.009 25.7072 155.165 28.3118 153.787 29.6914C153.168 30.3101 152.3 30.6236 151.206 30.6236C150.992 30.6236 150.766 30.6066 150.535 30.5819C150.535 51.5908 150.535 72.5993 150.535 93.6083C151.367 91.9684 152.467 90.4596 153.955 89.1621C155.104 88.1597 156.341 87.2949 157.63 86.5126C152.352 84.1467 153.223 75.0046 155.719 70.9241C155.734 70.8994 155.754 70.8765 155.775 70.8545C155.773 70.8513 155.77 70.8485 155.768 70.8458C151.364 64.6621 155.413 55.9142 155.188 49.0568C155.186 49.0192 155.195 48.9834 155.207 48.9491C155.016 48.8006 154.841 48.5934 154.685 48.3368C154.232 47.9133 153.808 47.3724 153.417 46.6854C151.578 43.4478 151.987 38.9572 155.523 36.9956C160.143 34.4318 165.449 36.3352 170.027 37.9402C170.207 38.0035 170.294 38.0965 170.321 38.1996C175.501 39.7286 180.897 38.2033 186.194 38.9059C186.64 38.965 187.059 39.0507 187.465 39.1493C187.511 39.1406 187.559 39.1328 187.602 39.1231C187.975 39.0402 188.438 39.2441 188.957 39.6278C191.607 40.7204 193.226 42.8085 194.071 45.5373C194.272 46.0048 194.412 46.6043 194.498 47.3092C194.617 47.9738 194.702 48.6649 194.754 49.3813C195.069 53.8228 194.436 58.1705 193.567 62.5181C193.084 64.9408 192.552 67.3603 192.182 69.8036C191.934 71.4416 191.515 73.1763 191.962 74.8148C192.73 77.6303 194.291 80.2161 195.918 82.615C196.547 83.5426 197.191 84.462 197.879 85.347C198.107 85.6399 198.334 85.9346 198.575 86.2165C199.044 86.7655 198.871 86.359 198.335 86.5121C198.695 86.4392 199.082 86.5318 199.076 86.8833C199.063 87.5836 198.995 88.0768 198.755 88.6873V89.0663C199.262 89.6232 199.727 90.2387 200.154 90.8982C200.402 90.9688 200.436 91.0902 200.357 91.2158C203.314 96.0231 204.24 103.037 203.165 108.041C202.389 111.651 200.699 115.024 198.935 118.289C197.544 126.545 195.969 135.091 197.18 143.453C198.391 151.807 201.741 159.63 203.393 167.885ZM198.262 90.4871C197.856 89.9445 197.404 89.4389 196.897 88.982C193.163 88.063 189.25 88.4939 185.483 87.8375C178.238 95.9214 170.445 103.508 163.955 112.242C163.772 112.489 162.947 112.877 162.718 112.481C160.94 109.406 160.932 105.25 160.98 101.798C161.032 98.0938 161.208 94.0638 162.582 90.5664C162.511 90.4674 162.48 90.34 162.529 90.186C163.13 88.3 163.937 86.425 165.054 84.7833C165.266 84.4726 165.511 84.1229 165.783 83.7741L161.245 85.5391C160.407 85.952 159.58 86.3847 158.781 86.8517C158.984 86.9282 159.099 87.096 158.982 87.3609C155.525 95.194 153.462 104.329 152.784 112.847C152.624 114.861 152.481 116.956 152.799 118.964C153.161 121.254 154.354 123.065 155.415 125.075C156.549 127.223 156.452 129.322 156.601 131.671C156.774 134.395 157.026 137.105 156.889 139.833C157.744 139.3 158.587 138.75 159.409 138.178C160.985 137.083 162.48 135.899 163.847 134.595C165.284 133.225 166.58 131.724 167.654 130.031C170.51 125.523 172.544 120.312 174.848 115.501C176.834 111.353 178.776 107.185 180.634 102.978C180.6 102.937 180.59 102.884 180.619 102.815C182.619 98.219 185.523 93.1587 190.441 91.2025C193 90.1851 195.629 90.048 198.262 90.4871ZM175.262 82.4326C172.276 83.3685 170.551 86.2591 169.652 89.3812C171.521 90.0132 171.886 91.7878 172.906 93.2256C174.509 91.1631 176.229 89.1955 177.855 87.1501C178.063 86.8893 179.352 86.7119 179.064 87.0744C177.2 89.4187 175.204 91.6531 173.412 94.0556C173.249 94.2747 172.411 94.5574 172.184 94.326C171.024 93.1472 170.675 91.3199 169.398 90.3583C169.02 91.9858 168.849 93.627 168.828 95.0451C168.818 95.6684 167.469 95.8526 167.48 95.1363C167.506 93.4066 167.747 91.4954 168.259 89.6543C168.055 89.7634 167.809 89.8125 167.608 89.7327C166.33 89.2267 165.074 89.9596 163.878 90.4986C162.574 93.7448 162.37 97.6121 162.321 101.058C162.319 101.186 162.318 101.318 162.316 101.448C162.275 104.287 162.245 107.681 163.265 110.46C163.346 110.679 163.433 110.895 163.527 111.106C169.892 102.764 177.382 95.4108 184.376 87.6088C183.627 87.4292 182.884 87.2019 182.152 86.8948C179.699 85.8645 177.291 84.3461 175.498 82.3198C175.432 82.3643 175.355 82.4037 175.262 82.4326ZM169.119 87.2468C168.938 87.1854 168.807 87.0497 168.809 86.8256C168.82 85.8535 168.941 84.8773 168.906 83.9052C168.895 83.5912 168.917 82.9867 168.662 82.736C168.533 82.6095 167.457 83.5784 167.443 83.593C165.929 85.2095 164.9 87.2546 164.149 89.3422C165.517 88.7523 166.817 88.2001 168.367 88.8138C168.416 88.833 168.458 88.8546 168.494 88.8775C168.675 88.3211 168.883 87.7757 169.119 87.2468ZM173.164 39.7185C173.574 39.8235 173.968 39.8885 174.312 39.8885C174.64 39.8885 175.068 39.8684 175.553 39.8363C174.753 39.8267 173.956 39.7923 173.164 39.7185ZM157.799 71.2102C160.219 73.3808 163.388 74.4789 165.959 76.4501C167.938 77.9667 168.979 79.9627 170.147 82.1136C170.205 82.2213 170.131 82.3359 169.994 82.4321C170.349 83.1136 170.335 84.1916 170.268 85.1587C171.39 83.506 172.895 82.1947 174.857 81.5384C174.276 80.7698 173.779 79.9375 173.398 79.0369C171.517 74.5866 171.295 69.3297 171.329 64.5585C171.369 58.8868 171.909 53.2344 171.965 47.5626C169.945 46.3421 167.544 46.8784 165.094 47.7102C164.659 47.9967 163.96 48.2258 163.123 48.4128C160.79 49.2548 158.493 50.0064 156.518 49.4101C156.528 53.0396 155.737 56.5714 155.368 60.1752C154.995 63.8032 154.805 68.5244 157.799 71.2102ZM149.202 95.6615C149.202 73.884 149.202 52.1069 149.202 30.3293C148.34 30.102 147.403 29.7477 146.406 29.2651C145.629 31.5104 144.655 33.1146 143.554 33.9968C143.554 63.3962 143.554 92.7947 143.554 122.194C144.322 122.268 144.046 123.143 143.325 123.143C123.014 123.157 102.702 123.17 82.3899 123.183C83.1425 124.749 83.9803 126.262 84.8993 127.718C84.9621 127.702 85.029 127.691 85.1014 127.691C104.724 127.698 124.343 128.175 143.966 128.189C144.29 126.863 144.611 125.537 144.92 124.208C146.493 117.457 147.438 110.776 148.048 103.881C148.285 101.198 148.678 98.4981 149.53 95.9993C149.341 95.9626 149.202 95.8581 149.202 95.6615ZM130.081 10.0106C130.631 10.0601 130.655 10.512 130.365 10.7747C130.593 11.3384 130.87 11.9342 131.201 12.5589L131.591 13.294L130.795 13.5383C128.847 14.1373 127.362 14.8789 126.46 15.6691C126.395 15.7259 126.329 15.7827 126.27 15.84C125.748 16.3492 125.47 16.8754 125.47 17.3946C125.47 18.7843 127.461 20.2261 130.795 21.2509L131.59 21.4952L131.201 22.2304C129.567 25.3117 129.178 27.7385 130.162 28.722C130.513 29.0731 131.054 29.2514 131.77 29.2514C133.03 29.2514 134.718 28.7092 136.653 27.683L137.388 27.2934L137.632 28.0886C138.656 31.4229 140.098 33.4138 141.488 33.4138C142.879 33.4138 144.32 31.4234 145.344 28.0886L145.588 27.2934L146.323 27.683C148.259 28.7087 149.947 29.2509 151.206 29.2514C151.922 29.2514 152.464 29.0731 152.815 28.722C153.798 27.7385 153.409 25.3121 151.776 22.2308L151.386 21.4957L152.181 21.2514C155.516 20.2266 157.506 18.7852 157.506 17.3951C157.506 16.005 155.516 14.5636 152.181 13.5388L151.386 13.2945L151.776 12.5594C153.409 9.47806 153.798 7.05126 152.815 6.0677C152.464 5.71663 151.922 5.5388 151.206 5.5388C149.947 5.5388 148.258 6.08145 146.323 7.10717L145.588 7.49674L145.344 6.70156C144.32 3.36728 142.878 1.37634 141.488 1.37634C140.097 1.37634 138.656 3.36682 137.632 6.70156L137.387 7.49674L136.652 7.10717C134.717 6.08145 133.028 5.5388 131.769 5.5388C131.053 5.5388 130.512 5.71709 130.161 6.06816C129.47 6.75931 129.46 8.16635 130.081 10.0106ZM46.0347 84.4015C46.8423 85.0221 47.4803 85.8145 48.188 86.5382C48.4414 85.4974 48.5124 84.4125 48.7159 83.3575C48.6829 83.3423 48.649 83.3286 48.616 83.3135C48.2599 83.1494 48.5079 82.8666 48.869 82.698C48.9428 82.422 49.0276 82.1489 49.1371 81.8812C49.1417 81.8698 49.1504 81.8592 49.1569 81.8482C49.1449 81.8358 49.1371 81.8216 49.1362 81.8047C49.111 81.3138 49.1041 80.8097 49.1284 80.3083C48.7132 80.795 48.3117 81.2932 47.9162 81.7928C47.5193 82.2942 47.1233 82.7979 46.7516 83.3185C46.6347 83.4821 46.5169 83.6471 46.4129 83.8195C46.3423 83.9368 46.3189 83.9877 46.3088 84.0028C46.3107 84.1426 46.1974 84.2897 46.0347 84.4015ZM43.4553 89.1878C43.3893 89.3165 43.272 89.4238 43.1331 89.499C43.1262 90.1663 43.3439 90.8515 43.7537 91.3309C43.7711 91.351 43.788 91.3721 43.8059 91.3914C44.2253 91.8451 44.8294 92.0894 45.5934 91.9006C47.4281 91.4473 47.9803 89.5498 47.8497 87.8632C46.901 87.1299 46.1915 86.1573 45.3198 85.3502C44.7996 86.6798 44.1075 87.9173 43.4553 89.1878ZM46.9188 128.963C47.5339 123.472 48.0367 117.969 48.5134 112.465C48.545 112.098 48.5743 111.732 48.6059 111.365C48.3722 110.641 48.4047 109.343 48.3493 108.889C48.0734 106.625 47.8277 104.358 47.5853 102.09C47.3391 99.7896 47.0999 97.4884 46.8529 95.1876C46.774 94.4506 46.8703 93.1284 46.5944 92.3222C46.2919 92.4538 45.9651 92.5578 45.6108 92.627C44.9508 92.7558 44.3293 92.7251 43.7848 92.5628C43.541 99.0824 41.8887 105.503 41.8195 112.034C41.8191 112.104 41.7824 112.167 41.726 112.225C41.7581 112.415 41.7907 112.606 41.8228 112.795C42.7651 118.393 43.733 123.988 44.8028 129.563C45.1167 131.199 45.389 132.884 45.7318 134.549C45.8899 134.774 46.049 134.998 46.2071 135.223C46.5609 133.143 46.6934 130.978 46.9188 128.963ZM47.8043 91.7548C47.8043 91.7608 47.8011 91.7663 47.8007 91.7727C47.8016 91.7727 47.803 91.7722 47.8043 91.7722C47.8043 91.7663 47.8043 91.7603 47.8043 91.7548ZM41.8205 89.3523C41.8241 89.3207 41.8347 89.29 41.8493 89.2602C40.1334 88.3005 38.7873 86.6257 37.6942 85.0464C37.6767 85.0212 37.6534 84.9891 37.63 84.9575C38.3046 92.3511 39.5715 99.7383 40.841 107.074C41.3993 101.976 42.4319 96.9109 42.4864 91.7777C42.4864 91.7718 42.4891 91.7663 42.4896 91.7598C41.9722 91.1805 41.7036 90.3583 41.8205 89.3523ZM49.9255 83.868C49.7463 85.0734 49.6505 86.2962 49.1688 87.4283C49.3214 89.064 48.8301 90.6136 47.7145 91.6104C47.7535 91.6334 47.7883 91.6599 47.8089 91.6966C48.2278 92.4414 48.0931 94.0065 48.1815 94.832C48.4116 96.9856 48.6362 99.1397 48.8667 101.293C48.9749 102.304 49.0831 103.315 49.1935 104.325C49.738 97.6126 50.2477 90.8978 50.7628 84.1829C50.481 84.0821 50.2023 83.9767 49.9255 83.868ZM61.1232 65.4248C60.7378 65.4289 60.3445 65.4151 59.9518 65.444C59.4164 65.4839 58.9196 65.576 58.6066 65.4271C57.8105 65.9775 56.864 66.2346 55.8713 66.0939C54.978 65.9669 55.7861 65.1626 56.3622 65.2442C57.0547 65.3427 57.563 65.1745 58.0671 64.6896C58.1267 64.6323 58.1968 64.5824 58.2725 64.5411C58.3462 62.8779 57.7853 61.7958 57.1519 60.4112C57.0409 60.4877 56.9002 60.5377 56.7311 60.5377C55.5789 60.5377 54.4267 60.5377 53.2744 60.5377C53.2387 62.0167 53.0778 63.6575 52.1369 64.7103C51.2074 65.7506 49.3778 65.3679 48.2003 65.4202C46.9376 65.4761 45.1103 65.8212 44.0818 64.8601C42.8961 63.7524 42.9351 61.1028 42.7114 59.6275C42.7069 59.5958 42.7014 59.5619 42.6959 59.5294C42.5607 59.5729 42.4424 59.6018 42.3819 59.6018C41.2274 59.6018 40.0733 59.6018 38.9193 59.6018C38.9481 59.864 38.9821 60.127 39.0228 60.3901C39.0554 60.4117 39.0902 60.4318 39.1214 60.4543C39.1704 60.4891 39.1397 60.5469 39.0618 60.6106C39.093 60.7966 39.1228 60.9827 39.1603 61.1693C39.2314 61.5222 37.8958 61.8407 37.8326 61.5249C37.784 61.2829 37.7432 61.0419 37.7047 60.8008C36.822 60.2164 35.738 59.8268 34.6724 59.8048C34.2471 59.8837 33.7874 59.9928 33.325 60.1426C32.2236 60.7403 31.4225 62.0277 31.9944 63.2377C32.7236 64.7799 34.4616 65.2378 35.8893 65.9065C39.5916 67.6403 39.8556 73.5691 39.2676 77.216C41.2558 79.2944 43.4915 81.1172 45.3253 83.3378C45.6099 82.912 45.988 82.5032 46.1205 82.3299C47.0509 81.1117 48.0069 79.8848 49.0826 78.7898C49.1527 78.7184 49.2526 78.6656 49.3649 78.6294C49.6564 77.4914 50.2477 76.4785 51.3793 75.8218C53.4069 74.6457 56.0248 74.4546 57.7917 72.839C59.7991 71.0044 60.7016 68.2274 61.1232 65.4248ZM35.4525 66.8052C35.3627 66.7392 35.2701 66.6787 35.1738 66.6279C35.0987 66.5884 35.0189 66.5499 34.9373 66.5114C35.1069 66.6081 35.2783 66.7058 35.4525 66.8052ZM46.0925 56.1039C44.0397 55.7753 43.6808 56.6406 43.9283 58.4881C44.1061 59.8135 44.2771 61.1716 44.5736 62.4755C44.7941 63.4457 45.0823 64.7322 46.257 64.9133C47.5293 65.109 48.8704 64.9206 50.1537 64.9481C51.6923 64.9811 52.0438 62.5502 52.004 60.4304C51.7633 60.2641 51.7766 59.941 51.9755 59.7219C51.927 58.8997 51.8284 58.181 51.7331 57.758C51.2088 55.4274 48.7439 55.8619 46.785 55.9362C46.5242 56.0402 46.2254 56.125 46.0925 56.1039ZM58.8609 56.1039C56.3053 55.5031 59.0182 60.9882 59.3271 61.7605C59.6933 62.6767 59.5952 63.5227 59.5883 64.4875C59.5823 65.2598 60.5059 65.0214 61.192 64.9486C61.3739 63.5621 61.4482 62.1822 61.4858 60.919C61.5348 59.2737 61.5069 57.6329 61.4299 55.9939C60.8739 55.8436 60.2258 55.8903 59.6286 55.9238C59.3509 56.0407 59.0039 56.1374 58.8609 56.1039ZM60.8079 48.2529C59.2977 48.7731 57.6634 49.0549 56.2215 49.2094C56.0441 49.2286 55.8667 49.2424 55.6889 49.2589C55.3493 49.3258 55.1471 49.3597 55.1471 49.3597L54.6338 49.3446C49.7371 49.6783 44.861 49.1897 39.961 49.1008C39.2121 52.4204 38.5929 55.7318 38.8739 59.1027C40.1256 59.1027 41.3777 59.1027 42.6294 59.1027C42.4612 57.9963 42.3306 56.6099 43.3962 55.9999C44.4407 55.4022 45.6433 55.4082 46.8006 55.5631C46.9871 55.4957 47.1645 55.4458 47.2438 55.4458C48.6101 55.4412 50.7152 55.0479 51.9994 55.7244C53.1731 56.3422 53.3038 58.1714 53.2891 59.341C53.2886 59.3923 53.2882 59.4455 53.2877 59.4978C54.4464 59.4978 55.605 59.4978 56.7632 59.4978C55.8773 57.1003 57.1014 55.1886 59.5571 55.5475C59.7258 55.4884 59.8812 55.4462 59.9531 55.4458C60.3624 55.4435 60.8771 55.3898 61.3941 55.3825C61.2667 53.0029 61.0449 50.6284 60.8079 48.2529ZM64.4071 44.1445C64.0661 44.9658 63.6367 45.6941 63.1752 46.2207C63.7659 45.667 64.1995 44.9846 64.4071 44.1445ZM45.3812 38.3605H45.5228C45.5228 38.3605 45.6736 38.3279 45.928 38.2711C45.746 38.3014 45.5636 38.3312 45.3812 38.3605ZM37.2083 81.3312C37.2083 81.3917 37.1873 81.4619 37.1387 81.5416C36.9682 81.8203 38.8303 84.3598 39.1356 84.7737C40.0807 86.0547 41.1559 87.4723 42.5538 88.3151C43.145 87.189 43.7399 86.0716 44.1772 84.8704C44.2262 84.7361 44.3394 84.6343 44.4783 84.5661C44.4971 84.5189 44.5415 84.4693 44.6057 84.4208C44.5727 84.4056 44.5434 84.3873 44.5241 84.3621C42.8191 82.1475 40.6806 80.3623 38.7103 78.4026C38.4293 79.4388 37.7079 80.4095 37.2083 81.3312ZM43.8174 131.838C43.679 131.057 43.5428 130.279 43.3975 129.514C42.3315 123.898 41.3502 118.265 40.407 112.627C38.9454 103.89 37.2643 95.0662 36.3976 86.2275C36.3183 85.4181 36.2353 84.6091 36.1707 83.7997C36.1569 83.6306 36.3045 83.4876 36.5039 83.3882C36.4264 83.2676 36.3508 83.1466 36.2802 83.0252C36.2234 83.0472 36.1647 83.0655 36.1015 83.0756C36.0025 83.0912 35.9035 83.1104 35.8045 83.1265C34.8833 83.2763 33.9648 83.4482 33.05 83.6412C32.967 83.659 32.8845 83.6783 32.8016 83.6962C32.8002 83.7039 32.7979 83.7108 32.7965 83.7186C32.2781 86.4278 30.795 88.6974 30.0681 91.3222C29.156 94.6156 31.9821 95.8036 34.7118 96.63C34.9548 96.7033 34.7609 96.8807 34.4666 97.0227C33.1201 99.9198 31.2112 103.048 30.8088 106.27C30.3784 109.717 31.8217 112.949 33.4528 115.908C36.5218 121.476 40.1558 126.661 43.8174 131.838ZM54.1233 85.7943C54.0935 85.5927 54.2612 85.4217 54.4862 85.3131C53.6617 85.095 52.8454 84.864 52.0429 84.611C51.3674 93.4318 50.7009 102.253 49.9429 111.067C49.9841 111.174 50.0318 111.259 50.0886 111.306C50.1927 111.394 50.0859 111.521 49.8957 111.631C49.8764 111.852 49.859 112.072 49.8398 112.293C49.3608 117.796 48.8677 123.301 48.2452 128.791C48.1568 129.572 48.083 130.377 48.0065 131.189C50.3668 126.231 53.1498 121.461 55.1288 116.317C56.3851 113.051 57.744 109.307 56.8695 105.769C56.1229 102.749 54.291 100.222 52.4609 97.7629C52.4077 97.6914 52.6497 97.5333 52.9444 97.4215C52.9724 97.3995 53.0008 97.3779 53.037 97.355C55.2723 95.9521 56.3402 94.2458 55.6426 91.626C55.1229 89.6745 54.4193 87.8018 54.1233 85.7943ZM75.1374 96.0291C75.901 97.6241 76.4583 99.2974 76.8928 101.018C76.8928 72.526 76.8928 44.0336 76.8928 15.5412C76.8928 15.4527 76.9377 15.3716 77.0092 15.3019C77.1178 15.1301 77.3342 14.9912 77.6211 14.9912C93.4745 14.9912 109.328 14.9912 125.182 14.9912C126.106 14.0287 127.604 13.1744 129.616 12.4773C129.361 11.9516 129.146 11.4475 128.962 10.9616C109.889 10.9616 90.8167 10.9616 71.744 10.9616C71.744 37.6803 71.744 64.3995 71.744 91.1182C71.9929 91.3666 72.2358 91.6246 72.4695 91.8969C72.5043 91.9372 72.5406 91.9743 72.5749 92.0151C73.6327 93.2755 74.4641 94.6225 75.1374 96.0291ZM80.6135 118.965C81.0228 120.079 81.4705 121.171 81.9559 122.241C82.0045 122.232 82.0549 122.226 82.109 122.226C102.146 122.213 122.183 122.2 142.22 122.187C142.22 93.0221 142.22 63.8573 142.22 34.6926C141.98 34.7549 141.736 34.787 141.488 34.787C139.538 34.787 137.806 32.8345 136.57 29.2651C134.73 30.1566 133.082 30.625 131.77 30.625C130.676 30.625 129.808 30.3115 129.189 29.6927C127.81 28.3132 127.967 25.7086 129.617 22.3115C126.048 21.0749 124.095 19.3434 124.095 17.3942C124.095 16.896 124.224 16.4124 124.474 15.9477C109.058 15.9477 93.6427 15.9477 78.2274 15.9477C78.2274 45.5185 78.2274 75.0894 78.2274 104.66C78.2274 104.863 77.9987 105.025 77.7311 105.104C78.1619 107.653 78.4859 110.244 78.9589 112.781C79.3137 114.682 79.7514 116.553 80.3852 118.352C80.4581 118.558 80.5383 118.76 80.6135 118.965ZM120.094 166.754C119.884 166.285 120.05 165.708 120.335 165.179C119.332 165.536 118.173 165.768 117.395 165.143C115.228 163.401 120.329 159.889 123.193 158.173C122.635 158.267 122.049 158.255 121.399 158.104C121.003 158.013 122.169 157.503 122.486 157.577C123.921 157.91 126.118 156.081 127.599 155.681C128.54 155.428 129.348 155.469 130.244 155.814C131.888 156.448 133.839 156.812 135.608 156.663C137.633 156.493 138.166 154.892 136.84 153.557C134.878 151.581 132.376 149.873 129.91 148.587C126.735 146.931 122.258 150.439 119.399 151.923C117.576 156.686 116.226 161.629 114 166.232C114.006 166.232 114.012 166.232 114.019 166.232C114.135 166.233 114.231 166.252 114.311 166.281C116.269 166.131 118.155 166.633 120.094 166.754ZM128.727 167.854C128.189 167.62 127.701 167.316 127.317 166.961C126.878 166.555 126.551 165.99 126.363 165.373C126.347 165.372 126.332 165.366 126.317 165.364C126.236 165.357 126.018 165.364 126.057 165.355C125.871 165.399 125.834 165.389 125.664 165.591C125.401 165.903 125.312 166.431 125.435 166.86C125.85 168.312 127.515 168.208 128.727 167.854ZM132.944 165.505C132.075 165.055 131.355 164.376 131.003 163.504C130.937 163.34 130.88 163.17 130.834 162.998C130.503 163.118 130.113 163.179 130.005 163.006C129.689 162.499 128.741 161.083 128.119 162.074C127.764 162.642 127.519 163.294 127.53 163.976C127.534 164.219 127.558 164.448 127.594 164.669C127.924 164.792 127.893 165.004 127.712 165.186C127.912 165.814 128.289 166.342 128.907 166.784C129.675 167.332 130.625 167.831 131.588 167.876C132.737 167.931 132.824 166.626 132.748 165.748C132.74 165.658 132.821 165.575 132.944 165.505ZM137.798 164.872C136.111 164.297 134.206 162.736 133.753 160.977C133.752 160.974 133.752 160.97 133.751 160.967C133.207 160.436 132.485 159.98 132.166 160.869C131.878 161.673 131.98 162.652 132.457 163.376C133.221 164.537 135.731 166.471 137.047 165.111C137.156 164.999 137.498 164.906 137.798 164.872ZM140.076 162.805C139.352 161.787 138.498 160.816 137.546 160.019C136.989 159.553 136.252 158.893 135.485 158.847C134.992 158.818 134.964 160.17 135.034 160.438C135.05 160.5 135.073 160.558 135.093 160.619C135.244 160.765 135.392 160.922 135.533 161.1C135.6 161.184 135.534 161.282 135.407 161.371C135.87 162.228 136.61 162.962 137.388 163.505C137.936 163.888 138.597 164.312 139.282 164.388C139.916 164.458 139.966 163.449 139.979 163.005C139.982 162.932 140.019 162.865 140.076 162.805ZM151.154 157.679C149.407 154.072 148.868 150.13 146.273 146.976C146.182 147.201 145.382 147.519 145.096 147.42C142.584 146.551 139.9 146.028 137.266 145.71C134.74 145.404 129.358 144.502 127.84 147.275C127.63 147.658 126.348 147.775 126.518 147.464C128.007 144.742 132.119 144.645 134.813 144.771C138.611 144.948 142.521 145.566 146.127 146.808C146.008 146.668 145.892 146.528 145.764 146.392C145.459 146.068 146.206 145.685 146.693 145.731C146.726 145.706 146.766 145.68 146.813 145.652C149.594 143.994 152.604 142.406 155.526 140.663C155.515 140.62 155.508 140.572 155.512 140.518C155.741 137.33 155.328 134.191 155.215 131.01C155.162 129.51 155.204 127.996 154.61 126.585C154.114 125.405 153.424 124.351 152.833 123.221C151.055 119.826 151.113 116.117 151.488 112.385C152.292 104.387 154.069 95.9411 157.178 88.4462C157.291 88.1753 157.406 87.9068 157.522 87.6386C157.477 87.6684 157.432 87.6978 157.387 87.7276C156.161 88.5493 155.021 89.4733 154.033 90.5591C149.726 95.2935 149.622 101.563 149.099 107.594C148.003 120.244 143.753 132.286 141.566 144.742C141.462 145.337 140.104 145.51 140.221 144.844C141.149 139.555 142.457 134.355 143.734 129.146C124.323 129.13 104.916 128.666 85.5052 128.651C88.3454 132.907 91.9167 136.642 96.2167 139.668C103.256 144.622 111.292 147.804 119.345 150.7C119.659 150.814 119.669 150.999 119.538 151.168C119.562 151.181 119.582 151.196 119.597 151.213C121.527 150.167 123.433 149.032 125.509 148.311C126.788 147.866 128.749 147.129 130.118 147.646C131.711 148.249 133.196 149.295 134.579 150.268C135.916 151.208 137.591 152.234 138.527 153.613C140.637 156.72 135.297 157.349 133.48 157.215C130.739 157.013 128.087 155.425 125.527 157.135C125.818 157.133 125.987 157.205 125.565 157.421C124.014 158.212 122.486 159.167 121.128 160.254C120.206 160.992 117.884 162.686 118.368 164.147C118.657 165.015 119.586 164.987 120.73 164.561C120.781 164.492 120.832 164.423 120.884 164.359C121.069 164.127 121.439 164.061 121.729 164.122C123.62 163.183 125.74 161.629 126.55 161.254C126.853 161.113 128.105 161.043 127.31 161.411C125.498 162.25 123.913 163.52 122.122 164.414C122.149 164.518 122.122 164.643 122.005 164.788C121.727 165.136 120.821 166.281 121.683 166.501C122.405 166.685 123.291 166.263 123.886 165.902C124.006 165.829 124.127 165.796 124.241 165.79C124.589 165.065 125.354 164.624 126.198 164.522C126.114 163.523 126.403 162.506 127.196 161.857C128.436 160.841 129.732 160.94 130.712 161.875C130.759 161.07 131.134 160.343 132.025 159.992C132.653 159.744 133.225 159.712 133.751 159.842C134.056 158.676 135.31 157.908 136.629 158.261C138.514 158.765 140.124 160.616 141.255 162.211C144.467 160.939 147.456 159.2 150.58 157.73C150.779 157.636 150.985 157.631 151.154 157.679ZM185.935 139.244C187.305 137.667 188.558 135.94 189.657 134.021C191.829 130.232 193.362 126.127 195.435 122.28C196.142 120.968 196.889 119.648 197.619 118.311C197.658 118.073 197.699 117.836 197.738 117.598C197.771 117.401 197.986 117.249 198.234 117.168C199.583 114.627 200.815 112.018 201.547 109.278C202.469 105.828 202.244 102.081 201.49 98.6168C200.973 96.2431 200.256 93.6972 198.972 91.5509C198.934 91.5412 198.897 91.5316 198.86 91.5224C198.609 91.4615 198.357 91.4056 198.103 91.3538C195.585 90.8391 192.946 90.8043 190.58 91.9611C186.996 93.7132 184.654 97.0745 182.911 100.591C180.706 105.689 178.362 110.723 175.957 115.73C175.775 116.108 175.596 116.487 175.414 116.865C173.249 121.353 171.435 126.468 168.512 130.523C168.166 131.003 167.804 131.466 167.431 131.917C164.495 135.467 160.757 138.161 156.817 140.573C156.718 140.787 156.451 140.926 156.183 140.962C156.068 141.031 155.952 141.099 155.837 141.169C155.833 141.171 155.829 141.173 155.826 141.175C153.092 142.808 150.287 144.331 147.606 145.929C147.503 145.99 147.334 146.03 147.16 146.047C150.068 149.28 150.613 153.408 152.42 157.199C153.014 156.977 153.612 156.757 154.212 156.537C154.33 156.234 154.862 156.066 155.213 156.158C155.22 156.16 155.227 156.163 155.234 156.165C155.351 156.122 155.468 156.08 155.585 156.037C163.327 153.233 171.334 150.471 178.088 146.019C180.974 144.116 183.627 141.9 185.935 139.244ZM167.712 30.7198C168.801 32.0755 171.704 31.4169 173.17 31.4114C173.931 31.4082 174.691 31.4073 175.452 31.4055C176.455 31.4032 178.766 30.9774 179.613 31.5352C180.725 32.2671 181.092 34.2205 181.896 35.2517C183.026 36.7005 184.435 35.8164 185.269 34.5546C185.619 34.0243 185.894 33.4363 186.191 32.8753C186.834 31.6589 187.105 31.3899 188.536 31.3885C189.531 31.3876 190.525 31.3872 191.52 31.3862C193.45 31.4147 197.049 32.1773 198.364 30.1886C199.353 28.6922 199.571 26.6852 199.731 24.94C199.972 22.317 200.023 19.5776 200.058 16.9455C200.105 13.4467 199.023 10.7215 195.361 10.0491C191.593 9.35752 187.666 10.2856 183.86 9.84518C183.54 9.80806 182.318 10.3585 183.012 10.4387C185.971 10.7811 188.925 10.4887 191.891 10.4561C194.959 10.4222 197.667 11.1573 198.51 14.4142C198.961 16.159 198.64 18.0267 198.579 19.7994C198.502 22.0209 198.55 24.2419 198.277 26.4524C198.113 27.782 197.808 29.4915 196.914 30.5457C196.514 31.0168 195.425 31.0503 194.343 30.9815C194.424 30.8743 194.369 30.7872 194.03 30.7872C193.375 30.7872 192.72 30.7881 192.064 30.7886C192.052 30.7886 192.038 30.7872 192.026 30.7872C192.02 30.7872 192.013 30.7881 192.006 30.7886C191.55 30.7886 191.093 30.789 190.636 30.7895C189.381 30.7904 187.845 30.503 186.643 30.9577C185.726 31.3042 183.559 35.276 183.604 35.3049C182.22 34.4254 182.096 30.9678 180.213 30.8028C177.424 30.5585 174.467 30.7551 171.66 30.861C170.163 30.9174 169.12 30.823 168.432 29.3779C167.795 28.0419 167.614 26.3933 167.481 24.939C167.313 23.1163 167.35 21.2716 167.305 19.4433C167.26 17.6408 167.025 15.922 167.367 14.1282C168.032 10.65 171.308 10.4025 174.251 10.4703C176.959 10.5327 179.633 10.7343 182.334 10.4217C182.905 10.3557 183.494 9.75306 182.562 9.86076C177.95 10.3942 171.254 8.26443 167.413 11.7252C165.094 13.8151 165.927 17.7865 165.994 20.481C166.072 23.6044 165.61 28.1028 167.712 30.7198ZM26.2544 30.7198C27.3429 32.0755 30.2464 31.4169 31.7126 31.4114C32.4734 31.4082 33.2338 31.4073 33.9946 31.4055C34.9974 31.4032 37.3092 30.9774 38.1557 31.5352C39.2676 32.2671 39.6352 34.2205 40.4386 35.2517C41.5679 36.7005 42.9777 35.8164 43.811 34.5546C44.1611 34.0243 44.4366 33.4363 44.7331 32.8753C45.3766 31.6589 45.6479 31.3899 47.0784 31.3885C48.0729 31.3876 49.0675 31.3872 50.062 31.3862C51.992 31.4147 55.5917 32.1773 56.9067 30.1886C57.8953 28.6922 58.1134 26.6852 58.2738 24.94C58.5149 22.317 58.5653 19.5776 58.6006 16.9455C58.6483 13.4467 57.5657 10.7215 53.9037 10.0491C50.1358 9.35752 46.2085 10.2856 42.4025 9.84518C42.0831 9.80806 40.8612 10.3585 41.5551 10.4387C44.5136 10.7811 47.4684 10.4887 50.4342 10.4561C53.5022 10.4222 56.21 11.1573 57.0529 14.4142C57.5048 16.159 57.183 18.0267 57.1221 19.7994C57.0455 22.0209 57.0932 24.2419 56.82 26.4524C56.656 27.782 56.3516 29.4915 55.457 30.5457C55.0573 31.0168 53.9679 31.0503 52.8858 30.9815C52.9674 30.8743 52.9119 30.7872 52.5732 30.7872C51.9178 30.7872 51.2629 30.7881 50.6074 30.7886C50.5955 30.7886 50.5809 30.7872 50.5694 30.7872C50.5634 30.7872 50.5561 30.7881 50.5497 30.7886C50.0932 30.7886 49.6363 30.789 49.1798 30.7895C47.9244 30.7904 46.3881 30.503 45.1859 30.9577C44.2693 31.3042 42.1019 35.276 42.1472 35.3049C40.7626 34.4254 40.6394 30.9678 38.7561 30.8028C35.9667 30.5585 33.0101 30.7551 30.2029 30.861C28.7055 30.9174 27.6633 30.823 26.9744 29.3779C26.3373 28.0419 26.1577 26.3933 26.0239 24.939C25.8561 23.1163 25.8923 21.2716 25.8469 19.4433C25.802 17.6408 25.5669 15.922 25.9097 14.1282C26.5748 10.65 29.8499 10.4025 32.7938 10.4703C35.5015 10.5327 38.1749 10.7343 40.8763 10.4217C41.4478 10.3557 42.0368 9.75306 41.1046 9.86076C36.492 10.3947 29.7963 8.26443 25.9551 11.7252C23.636 13.8151 24.4692 17.7865 24.5361 20.481C24.614 23.6044 24.1525 28.1028 26.2544 30.7198ZM88.9687 41.396C103.597 41.3859 118.224 41.3767 132.852 41.3671C133.606 41.3666 133.876 40.4096 132.975 40.4101C118.347 40.4197 103.719 40.4289 89.0911 40.439C88.3376 40.4394 88.0667 41.3969 88.9687 41.396ZM132.975 90.2776C118.347 90.2873 103.719 90.2969 89.0911 90.3065C88.3376 90.307 88.0672 91.264 88.9687 91.2635C103.597 91.2534 118.224 91.2442 132.852 91.2346C133.606 91.2342 133.876 90.2772 132.975 90.2776ZM123.5 108.236C115.188 108.242 106.877 108.247 98.5656 108.253C97.8121 108.253 97.5417 109.21 98.4432 109.21C106.755 109.204 115.066 109.199 123.377 109.193C124.131 109.193 124.402 108.236 123.5 108.236ZM133.165 54.4489C130.268 54.4507 127.372 54.4526 124.475 54.4549C123.945 54.4553 123.074 55.2601 123.972 55.2597C126.869 55.2578 129.766 55.2556 132.662 55.2537C133.192 55.2537 134.064 54.4485 133.165 54.4489ZM120.146 54.3733C115.144 54.3765 110.142 54.3797 105.141 54.3829C104.381 54.3834 104.122 55.3568 105.023 55.3564C110.025 55.3532 115.026 55.35 120.028 55.3468C120.788 55.3463 121.047 54.3724 120.146 54.3733ZM89.4596 54.6061C89.1777 54.6061 87.9448 55.1552 88.6002 55.1547C92.6711 55.152 96.7424 55.1492 100.814 55.1465C101.096 55.1465 102.328 54.5974 101.673 54.5979C97.6017 54.6006 93.5309 54.6034 89.4596 54.6061ZM133.16 63.1492C130.837 63.1506 128.514 63.1524 126.191 63.1538C125.626 63.1542 124.804 64.0118 125.702 64.0113C128.025 64.0099 130.348 64.0081 132.671 64.0067C133.236 64.0063 134.059 63.1487 133.16 63.1492ZM109.868 64.1076C113.933 64.1048 117.998 64.1021 122.062 64.0993C122.842 64.0988 123.064 63.0699 122.166 63.0704C118.1 63.0731 114.035 63.0759 109.971 63.0786C109.191 63.0791 108.969 64.108 109.868 64.1076ZM88.7836 64.0205C94.4223 64.0168 100.061 64.0127 105.699 64.009C106.244 64.0086 107.095 63.1817 106.196 63.1822C100.557 63.1859 94.9191 63.19 89.2804 63.1937C88.7359 63.1941 87.8848 64.0209 88.7836 64.0205ZM132.484 72.5658C132.75 72.5658 133.993 72.0429 133.351 72.0434C131.036 72.0452 128.722 72.0466 126.407 72.0479C126.142 72.0479 124.899 72.5709 125.541 72.5704C127.855 72.5691 130.17 72.5677 132.484 72.5658ZM114.071 71.9068C113.53 71.9072 112.674 72.729 113.573 72.7286C116.35 72.7267 119.128 72.7249 121.906 72.7231C122.447 72.7231 123.303 71.9008 122.404 71.9013C119.626 71.9027 116.849 71.905 114.071 71.9068ZM100.892 72.5943C103.785 72.5924 106.678 72.5906 109.572 72.5888C109.847 72.5888 111.084 72.0507 110.434 72.0512C107.541 72.053 104.648 72.0548 101.755 72.0567C101.48 72.0567 100.243 72.5947 100.892 72.5943ZM97.4885 72.7918C98.231 72.7914 98.5216 71.8633 97.6182 71.8642C94.7784 71.866 91.9387 71.8683 89.0989 71.8701C88.3564 71.8706 88.0658 72.7987 88.9692 72.7978C91.809 72.7959 94.6487 72.7936 97.4885 72.7918Z" fill="white"/>
</svg>
