<svg width="36" height="12" viewBox="0 0 36 12" fill="none" xmlns="http://www.w3.org/2000/svg">
<path d="M33.333 11.6522L32.9955 9.96468H29.2245L28.6245 11.6402L25.602 11.6462C27.0409 8.18589 28.4829 4.72689 29.928 1.26918C30.174 0.682676 30.6105 0.384177 31.254 0.387177C31.746 0.391677 32.5485 0.391676 33.663 0.388676L36 11.6477L33.333 11.6522ZM30.0735 7.65318H32.5035L31.596 3.42318L30.0735 7.65318ZM10.59 0.385676L13.629 0.388676L8.931 11.6537L5.8545 11.6507C5.08087 8.67515 4.31687 5.69714 3.5625 2.71668C3.4125 2.12268 3.1155 1.70718 2.544 1.51068C2.0355 1.33518 1.188 1.06518 0 0.697676V0.390176H4.8555C5.6955 0.390176 6.186 0.796676 6.3435 1.63068C6.5025 2.46618 6.9015 4.59318 7.5435 8.01168L10.59 0.385676ZM17.805 0.388676L15.402 11.6507L12.51 11.6477L14.91 0.385676L17.805 0.388676ZM23.67 0.180176C24.5355 0.180176 25.626 0.450176 26.253 0.697676L25.746 3.03318C25.179 2.80518 24.246 2.49768 23.4615 2.50818C22.3215 2.52768 21.6165 3.00618 21.6165 3.46518C21.6165 4.21218 22.8405 4.58868 24.1005 5.40468C25.539 6.33468 25.728 7.17018 25.71 8.07768C25.6905 9.96168 24.1005 11.8202 20.7465 11.8202C19.2165 11.7977 18.6645 11.6687 17.4165 11.2262L17.9445 8.78868C19.215 9.32118 19.7535 9.49068 20.8395 9.49068C21.834 9.49068 22.6875 9.08868 22.695 8.38818C22.701 7.89018 22.395 7.64268 21.279 7.02768C20.163 6.41118 18.597 5.55768 18.618 3.84468C18.6435 1.65168 20.721 0.180176 23.6715 0.180176H23.67Z" fill="white"/>
</svg>
